InterAlia-BlackItalic.ufo
<glyph name="percent" format="2">
  <advance height="2479" width="1824"/>
  <unicode hex="0025"/>
  <anchor x="1216" y="791" name="dnom"/>
  <anchor x="672" y="698" name="numr"/>
  <outline>
    <contour>
      <point x="905" y="279" type="line" smooth="yes"/>
      <point x="870" y="91"/>
      <point x="970" y="-73"/>
      <point x="1199" y="-73" type="curve" smooth="yes"/>
      <point x="1427" y="-73"/>
      <point x="1577" y="91"/>
      <point x="1612" y="279" type="curve" smooth="yes"/>
      <point x="1626" y="358" type="line" smooth="yes"/>
      <point x="1662" y="549"/>
      <point x="1561" y="710"/>
      <point x="1329" y="710" type="curve" smooth="yes"/>
      <point x="1104" y="710"/>
      <point x="954" y="546"/>
      <point x="919" y="358" type="curve" smooth="yes"/>
    </contour>
    <contour>
      <point x="1172" y="358" type="line" smooth="yes"/>
      <point x="1183" y="416"/>
      <point x="1215" y="483"/>
      <point x="1292" y="483" type="curve" smooth="yes"/>
      <point x="1375" y="483"/>
      <point x="1381" y="416"/>
      <point x="1370" y="358" type="curve" smooth="yes"/>
      <point x="1356" y="279" type="line" smooth="yes"/>
      <point x="1345" y="222"/>
      <point x="1316" y="157"/>
      <point x="1236" y="157" type="curve" smooth="yes"/>
      <point x="1159" y="157"/>
      <point x="1148" y="225"/>
      <point x="1158" y="279" type="curve" smooth="yes"/>
    </contour>
    <contour>
      <point x="268" y="1132" type="line" smooth="yes"/>
      <point x="239" y="942"/>
      <point x="333" y="783"/>
      <point x="561" y="783" type="curve" smooth="yes"/>
      <point x="790" y="783"/>
      <point x="946" y="940"/>
      <point x="975" y="1132" type="curve" smooth="yes"/>
      <point x="986" y="1210" type="line" smooth="yes"/>
      <point x="1015" y="1403"/>
      <point x="921" y="1562"/>
      <point x="689" y="1562" type="curve" smooth="yes"/>
      <point x="467" y="1562"/>
      <point x="308" y="1403"/>
      <point x="279" y="1210" type="curve" smooth="yes"/>
    </contour>
    <contour>
      <point x="535" y="1210" type="line" smooth="yes"/>
      <point x="543" y="1265"/>
      <point x="575" y="1335"/>
      <point x="652" y="1335" type="curve" smooth="yes"/>
      <point x="735" y="1335"/>
      <point x="739" y="1268"/>
      <point x="730" y="1210" type="curve" smooth="yes"/>
      <point x="719" y="1132" type="line" smooth="yes"/>
      <point x="710" y="1073"/>
      <point x="679" y="1009"/>
      <point x="599" y="1009" type="curve" smooth="yes"/>
      <point x="525" y="1009"/>
      <point x="515" y="1073"/>
      <point x="524" y="1132" type="curve" smooth="yes"/>
    </contour>
    <component base="fraction" xOffset="636"/>
  </outline>
</glyph>
<glyph name="ampersand" format="2">
  <advance height="2479" width="1474"/>
  <unicode hex="0026"/>
  <outline>
    <contour>
      <point x="485" y="-23" type="curve"/>
      <point x="611" y="-23"/>
      <point x="751" y="6"/>
      <point x="881" y="81" type="curve"/>
      <point x="924" y="102"/>
      <point x="965" y="119"/>
      <point x="1009" y="140" type="curve"/>
      <point x="1228" y="276"/>
      <point x="1344" y="518"/>
      <point x="1384" y="777" type="curve"/>
      <point x="1067" y="777" type="line"/>
      <point x="1021" y="495"/>
      <point x="765" y="291"/>
      <point x="567" y="291" type="curve" smooth="yes"/>
      <point x="468" y="291"/>
      <point x="416" y="340"/>
      <point x="427" y="425" type="curve"/>
      <point x="439" y="492"/>
      <point x="486" y="532"/>
      <point x="537" y="564" type="curve" smooth="yes"/>
      <point x="884" y="783" type="line" smooth="yes"/>
      <point x="1027" y="873"/>
      <point x="1117" y="995"/>
      <point x="1140" y="1135" type="curve"/>
      <point x="1175" y="1341"/>
      <point x="1047" y="1513"/>
      <point x="796" y="1513" type="curve" smooth="yes"/>
      <point x="535" y="1513"/>
      <point x="332" y="1327"/>
      <point x="293" y="1100" type="curve" smooth="yes"/>
      <point x="258" y="896"/>
      <point x="373" y="735"/>
      <point x="447" y="640" type="curve" smooth="yes"/>
      <point x="945" y="0" type="line"/>
      <point x="1346" y="0" type="line"/>
      <point x="756" y="794" type="line"/>
      <point x="672" y="922"/>
      <point x="605" y="1007"/>
      <point x="616" y="1094" type="curve" smooth="yes"/>
      <point x="624" y="1159"/>
      <point x="678" y="1196"/>
      <point x="744" y="1196" type="curve" smooth="yes"/>
      <point x="820" y="1196"/>
      <point x="847" y="1152"/>
      <point x="837" y="1105" type="curve" smooth="yes"/>
      <point x="830" y="1071"/>
      <point x="804" y="1020"/>
      <point x="729" y="977" type="curve" smooth="yes"/>
      <point x="357" y="768" type="line"/>
      <point x="186" y="663"/>
      <point x="67" y="564"/>
      <point x="40" y="396" type="curve"/>
      <point x="3" y="166"/>
      <point x="166" y="-23"/>
    </contour>
  </outline>
</glyph>
<glyph name="quotesingle" format="2">
  <advance height="2479" width="582"/>
  <unicode hex="0027"/>
  <outline>
    <contour>
      <point x="614" y="1489" type="line"/>
      <point x="276" y="1489" type="line"/>
      <point x="212" y="887" type="line"/>
      <point x="480" y="887" type="line"/>
    </contour>
  </outline>
</glyph>
<glyph name="parenleft" format="2">
  <advance height="2479" width="902"/>
  <unicode hex="0028"/>
  <outline>
    <contour>
      <point x="177" y="576" type="curve" smooth="yes"/>
      <point x="119" y="218"/>
      <point x="163" y="-79"/>
      <point x="332" y="-337" type="curve"/>
      <point x="724" y="-337" type="line"/>
      <point x="596" y="-145"/>
      <point x="538" y="233"/>
      <point x="596" y="576" type="curve" smooth="yes"/>
      <point x="655" y="919"/>
      <point x="835" y="1297"/>
      <point x="1027" y="1489" type="curve"/>
      <point x="634" y="1489" type="line"/>
      <point x="378" y="1231"/>
      <point x="236" y="934"/>
    </contour>
  </outline>
</glyph>
<glyph name="plus" format="2">
  <advance height="2479" width="1420"/>
  <unicode hex="002B"/>
  <outline>
    <contour>
      <point x="465" y="67" type="line"/>
      <point x="791" y="67" type="line"/>
      <point x="969" y="1143" type="line"/>
      <point x="643" y="1143" type="line"/>
    </contour>
    <contour>
      <point x="151" y="442" type="line"/>
      <point x="1228" y="442" type="line"/>
      <point x="1283" y="768" type="line"/>
      <point x="207" y="768" type="line"/>
    </contour>
  </outline>
</glyph>
<glyph name="zero" format="2">
  <advance height="2479" width="1497"/>
  <unicode hex="0030"/>
  <outline>
    <contour>
      <point x="651" y="-41" type="curve" smooth="yes"/>
      <point x="1055" y="-41"/>
      <point x="1355" y="250"/>
      <point x="1436" y="742" type="curve" smooth="yes"/>
      <point x="1518" y="1234"/>
      <point x="1311" y="1510"/>
      <point x="907" y="1510" type="curve" smooth="yes"/>
      <point x="503" y="1510"/>
      <point x="206" y="1233"/>
      <point x="121" y="742" type="curve" smooth="yes"/>
      <point x="37" y="251"/>
      <point x="244" y="-41"/>
    </contour>
    <contour>
      <point x="706" y="288" type="curve" smooth="yes"/>
      <point x="567" y="288"/>
      <point x="488" y="428"/>
      <point x="540" y="742" type="curve" smooth="yes"/>
      <point x="591" y="1047"/>
      <point x="715" y="1184"/>
      <point x="855" y="1184" type="curve" smooth="yes"/>
      <point x="994" y="1184"/>
      <point x="1070" y="1047"/>
      <point x="1017" y="742" type="curve" smooth="yes"/>
      <point x="964" y="428"/>
      <point x="846" y="288"/>
    </contour>
  </outline>
</glyph>
<glyph name="one" format="2">
  <advance height="2479" width="1036"/>
  <unicode hex="0031"/>
  <outline>
    <contour>
      <point x="983" y="1489" type="line"/>
      <point x="611" y="1489" type="line"/>
      <point x="207" y="1265" type="line"/>
      <point x="151" y="922" type="line"/>
      <point x="509" y="1117" type="line"/>
      <point x="518" y="1117" type="line"/>
      <point x="332" y="0" type="line"/>
      <point x="736" y="0" type="line"/>
    </contour>
  </outline>
</glyph>
<glyph name="two" format="2">
  <advance height="2479" width="1324"/>
  <unicode hex="0032"/>
  <anchor x="940" y="817" name="cross"/>
  <outline>
    <contour>
      <point x="6" y="0" type="line"/>
      <point x="1149" y="0" type="line"/>
      <point x="1203" y="323" type="line"/>
      <point x="621" y="323" type="line"/>
      <point x="623" y="332" type="line"/>
      <point x="781" y="448" type="line" smooth="yes"/>
      <point x="1168" y="732"/>
      <point x="1279" y="879"/>
      <point x="1308" y="1050" type="curve" smooth="yes"/>
      <point x="1355" y="1328"/>
      <point x="1156" y="1510"/>
      <point x="799" y="1510" type="curve" smooth="yes"/>
      <point x="452" y="1510"/>
      <point x="195" y="1318"/>
      <point x="143" y="1004" type="curve"/>
      <point x="527" y="1004" type="line"/>
      <point x="547" y="1129"/>
      <point x="636" y="1199"/>
      <point x="748" y="1199" type="curve" smooth="yes"/>
      <point x="858" y="1199"/>
      <point x="927" y="1130"/>
      <point x="908" y="1015" type="curve" smooth="yes"/>
      <point x="890" y="911"/>
      <point x="812" y="841"/>
      <point x="687" y="751" type="curve" smooth="yes"/>
      <point x="54" y="291" type="line"/>
    </contour>
  </outline>
</glyph>
<glyph name="eight" format="2">
  <advance height="2479" width="1411"/>
  <unicode hex="0038"/>
  <outline>
    <contour>
      <point x="608" y="-20" type="curve" smooth="yes"/>
      <point x="969" y="-20"/>
      <point x="1263" y="164"/>
      <point x="1303" y="404" type="curve" smooth="yes"/>
      <point x="1335" y="589"/>
      <point x="1206" y="736"/>
      <point x="1018" y="765" type="curve"/>
      <point x="1018" y="777" type="line"/>
      <point x="1194" y="806"/>
      <point x="1337" y="939"/>
      <point x="1364" y="1105" type="curve" smooth="yes"/>
      <point x="1401" y="1337"/>
      <point x="1190" y="1510"/>
      <point x="861" y="1510" type="curve" smooth="yes"/>
      <point x="532" y="1510"/>
      <point x="262" y="1339"/>
      <point x="224" y="1105" type="curve" smooth="yes"/>
      <point x="198" y="940"/>
      <point x="298" y="806"/>
      <point x="460" y="777" type="curve"/>
      <point x="460" y="765" type="line"/>
      <point x="263" y="736"/>
      <point x="84" y="587"/>
      <point x="52" y="404" type="curve" smooth="yes"/>
      <point x="11" y="162"/>
      <point x="248" y="-20"/>
    </contour>
    <contour>
      <point x="655" y="259" type="curve" smooth="yes"/>
      <point x="542" y="259"/>
      <point x="468" y="335"/>
      <point x="486" y="439" type="curve" smooth="yes"/>
      <point x="503" y="542"/>
      <point x="598" y="617"/>
      <point x="713" y="617" type="curve" smooth="yes"/>
      <point x="828" y="617"/>
      <point x="899" y="543"/>
      <point x="881" y="439" type="curve" smooth="yes"/>
      <point x="864" y="337"/>
      <point x="769" y="259"/>
    </contour>
    <contour>
      <point x="759" y="896" type="curve" smooth="yes"/>
      <point x="657" y="896"/>
      <point x="595" y="966"/>
      <point x="611" y="1059" type="curve" smooth="yes"/>
      <point x="627" y="1152"/>
      <point x="714" y="1219"/>
      <point x="815" y="1219" type="curve" smooth="yes"/>
      <point x="915" y="1219"/>
      <point x="976" y="1153"/>
      <point x="960" y="1059" type="curve" smooth="yes"/>
      <point x="944" y="967"/>
      <point x="861" y="896"/>
    </contour>
  </outline>
</glyph>
<glyph name="less" format="2">
  <advance height="2479" width="1420"/>
  <unicode hex="003C"/>
  <outline>
    <contour>
      <point x="148" y="431" type="line"/>
      <point x="1158" y="-3" type="line"/>
      <point x="1219" y="364" type="line"/>
      <point x="567" y="602" type="line"/>
      <point x="576" y="585" type="line"/>
      <point x="585" y="625" type="line"/>
      <point x="570" y="608" type="line"/>
      <point x="1297" y="847" type="line"/>
      <point x="1359" y="1213" type="line"/>
      <point x="207" y="780" type="line"/>
    </contour>
  </outline>
</glyph>
<glyph name="question" format="2">
  <advance height="2479" width="1228"/>
  <unicode hex="003F"/>
  <outline>
    <contour>
      <point x="381" y="465" type="line"/>
      <point x="724" y="465" type="line"/>
      <point x="730" y="500" type="line" smooth="yes"/>
      <point x="750" y="617"/>
      <point x="815" y="675"/>
      <point x="931" y="736" type="curve" smooth="yes"/>
      <point x="1087" y="817"/>
      <point x="1199" y="922"/>
      <point x="1228" y="1100" type="curve" smooth="yes"/>
      <point x="1273" y="1373"/>
      <point x="1065" y="1510"/>
      <point x="756" y="1510" type="curve" smooth="yes"/>
      <point x="471" y="1510"/>
      <point x="215" y="1376"/>
      <point x="160" y="1056" type="curve"/>
      <point x="532" y="1056" type="line"/>
      <point x="544" y="1140"/>
      <point x="623" y="1199"/>
      <point x="701" y="1199" type="curve" smooth="yes"/>
      <point x="774" y="1199"/>
      <point x="823" y="1149"/>
      <point x="812" y="1076" type="curve" smooth="yes"/>
      <point x="799" y="995"/>
      <point x="719" y="945"/>
      <point x="617" y="884" type="curve" smooth="yes"/>
      <point x="498" y="813"/>
      <point x="427" y="739"/>
      <point x="387" y="500" type="curve" smooth="yes"/>
    </contour>
    <component base="period" xOffset="250"/>
  </outline>
</glyph>
<glyph name="at" format="2">
  <advance height="2479" width="2240"/>
  <unicode hex="0040"/>
  <outline>
    <contour>
      <point x="986" y="-454" type="curve" smooth="yes"/>
      <point x="1232" y="-454"/>
      <point x="1453" y="-401"/>
      <point x="1556" y="-340" type="curve"/>
      <point x="1507" y="-79" type="line"/>
      <point x="1404" y="-119"/>
      <point x="1235" y="-151"/>
      <point x="1062" y="-151" type="curve" smooth="yes"/>
      <point x="604" y="-151"/>
      <point x="388" y="81"/>
      <point x="460" y="518" type="curve" smooth="yes"/>
      <point x="522" y="887"/>
      <point x="790" y="1216"/>
      <point x="1292" y="1216" type="curve" smooth="yes"/>
      <point x="1567" y="1216"/>
      <point x="1953" y="1155"/>
      <point x="1862" y="611" type="curve" smooth="yes"/>
      <point x="1823" y="358"/>
      <point x="1738" y="241"/>
      <point x="1670" y="241" type="curve" smooth="yes"/>
      <point x="1645" y="241"/>
      <point x="1628" y="256"/>
      <point x="1635" y="314" type="curve" smooth="yes"/>
      <point x="1757" y="1059" type="line"/>
      <point x="1481" y="1059" type="line"/>
      <point x="1469" y="977" type="line"/>
      <point x="1457" y="977" type="line"/>
      <point x="1439" y="1041"/>
      <point x="1270" y="1105"/>
      <point x="1088" y="1073" type="curve" smooth="yes"/>
      <point x="903" y="1041"/>
      <point x="641" y="896"/>
      <point x="576" y="509" type="curve" smooth="yes"/>
      <point x="513" y="122"/>
      <point x="729" y="-29"/>
      <point x="940" y="-44" type="curve" smooth="yes"/>
      <point x="1101" y="-55"/>
      <point x="1302" y="6"/>
      <point x="1350" y="96" type="curve"/>
      <point x="1359" y="96" type="line"/>
      <point x="1360" y="12"/>
      <point x="1351" y="-73"/>
      <point x="1568" y="-52" type="curve" smooth="yes"/>
      <point x="1892" y="-23"/>
      <point x="2105" y="177"/>
      <point x="2170" y="585" type="curve" smooth="yes"/>
      <point x="2271" y="1181"/>
      <point x="1942" y="1516"/>
      <point x="1341" y="1516" type="curve" smooth="yes"/>
      <point x="673" y="1516"/>
      <point x="231" y="1097"/>
      <point x="131" y="500" type="curve" smooth="yes"/>
      <point x="33" y="-99"/>
      <point x="351" y="-454"/>
    </contour>
    <contour>
      <point x="1105" y="256" type="curve" smooth="yes"/>
      <point x="915" y="256"/>
      <point x="874" y="384"/>
      <point x="896" y="518" type="curve" smooth="yes"/>
      <point x="924" y="681"/>
      <point x="1025" y="765"/>
      <point x="1184" y="765" type="curve" smooth="yes"/>
      <point x="1375" y="765"/>
      <point x="1383" y="649"/>
      <point x="1364" y="521" type="curve" smooth="yes"/>
      <point x="1340" y="352"/>
      <point x="1273" y="256"/>
    </contour>
  </outline>
</glyph>
<glyph name="B" format="2">
  <advance height="2479" width="1367"/>
  <unicode hex="0042"/>
  <anchor x="570" y="0" name="bottom"/>
  <anchor x="852" y="1676" name="top"/>
  <outline>
    <contour>
      <point x="3" y="0" type="line"/>
      <point x="704" y="0" type="line" smooth="yes"/>
      <point x="1027" y="0"/>
      <point x="1257" y="177"/>
      <point x="1297" y="422" type="curve" smooth="yes"/>
      <point x="1332" y="631"/>
      <point x="1201" y="771"/>
      <point x="1009" y="777" type="curve"/>
      <point x="1012" y="791" type="line"/>
      <point x="1190" y="826"/>
      <point x="1327" y="954"/>
      <point x="1356" y="1117" type="curve" smooth="yes"/>
      <point x="1393" y="1344"/>
      <point x="1236" y="1489"/>
      <point x="896" y="1489" type="curve" smooth="yes"/>
      <point x="250" y="1489" type="line"/>
    </contour>
    <contour>
      <point x="463" y="323" type="line"/>
      <point x="512" y="637" type="line"/>
      <point x="707" y="637" type="line" smooth="yes"/>
      <point x="832" y="637"/>
      <point x="896" y="579"/>
      <point x="879" y="474" type="curve" smooth="yes"/>
      <point x="864" y="375"/>
      <point x="785" y="323"/>
      <point x="652" y="323" type="curve" smooth="yes"/>
    </contour>
    <contour>
      <point x="556" y="887" type="line"/>
      <point x="602" y="1172" type="line"/>
      <point x="774" y="1172" type="line" smooth="yes"/>
      <point x="873" y="1172"/>
      <point x="940" y="1123"/>
      <point x="925" y="1030" type="curve" smooth="yes"/>
      <point x="911" y="940"/>
      <point x="826" y="887"/>
      <point x="721" y="887" type="curve" smooth="yes"/>
    </contour>
  </outline>
</glyph>
<glyph name="C" format="2">
  <advance height="2479" width="1620"/>
  <unicode hex="0043"/>
  <anchor x="706" y="6" name="cedilla"/>
  <anchor x="994" y="1676" name="top"/>
  <outline>
    <contour>
      <point x="1545" y="931" type="line"/>
      <point x="1574" y="1300"/>
      <point x="1332" y="1510"/>
      <point x="943" y="1510" type="curve" smooth="yes"/>
      <point x="556" y="1510"/>
      <point x="207" y="1257"/>
      <point x="126" y="768" type="curve"/>
      <point x="44" y="262"/>
      <point x="314" y="-20"/>
      <point x="734" y="-20" type="curve" smooth="yes"/>
      <point x="1161" y="-20"/>
      <point x="1420" y="285"/>
      <point x="1481" y="538" type="curve"/>
      <point x="1074" y="538" type="line"/>
      <point x="1033" y="413"/>
      <point x="919" y="332"/>
      <point x="757" y="332" type="curve" smooth="yes"/>
      <point x="573" y="332"/>
      <point x="492" y="460"/>
      <point x="533" y="721" type="curve"/>
      <point x="579" y="992"/>
      <point x="727" y="1158"/>
      <point x="940" y="1158" type="curve" smooth="yes"/>
      <point x="1088" y="1158"/>
      <point x="1152" y="1068"/>
      <point x="1141" y="931" type="curve"/>
    </contour>
  </outline>
</glyph>
<glyph name="D" format="2">
  <advance height="2479" width="1501"/>
  <unicode hex="0044"/>
  <anchor x="582" y="0" name="bottom"/>
  <anchor x="335" y="788" name="cross"/>
  <anchor x="780" y="1676" name="top"/>
  <outline>
    <contour>
      <point x="585" y="0" type="line"/>
      <point x="1039" y="0"/>
      <point x="1361" y="268"/>
      <point x="1437" y="724" type="curve"/>
      <point x="1516" y="1199"/>
      <point x="1268" y="1489"/>
      <point x="809" y="1489" type="curve"/>
      <point x="410" y="1489" type="line"/>
      <point x="352" y="1146" type="line"/>
      <point x="748" y="1146" type="line"/>
      <point x="980" y="1146"/>
      <point x="1088" y="1068"/>
      <point x="1039" y="765" type="curve"/>
      <point x="986" y="445"/>
      <point x="832" y="343"/>
      <point x="611" y="343" type="curve"/>
      <point x="227" y="343" type="line"/>
      <point x="169" y="0" type="line"/>
    </contour>
    <contour>
      <point x="655" y="1489" type="line"/>
      <point x="250" y="1489" type="line"/>
      <point x="3" y="0" type="line"/>
      <point x="407" y="0" type="line"/>
    </contour>
  </outline>
</glyph>
<glyph name="F" format="2">
  <advance height="2479" width="1196"/>
  <unicode hex="0046"/>
  <anchor x="553" y="12" name="bottom"/>
  <anchor x="244" y="250" name="cross"/>
  <anchor x="809" y="1676" name="top"/>
  <outline>
    <contour>
      <point x="3" y="0" type="line"/>
      <point x="407" y="0" type="line"/>
      <point x="503" y="582" type="line"/>
      <point x="1082" y="582" type="line"/>
      <point x="1137" y="908" type="line"/>
      <point x="559" y="908" type="line"/>
      <point x="599" y="1164" type="line"/>
      <point x="1242" y="1164" type="line"/>
      <point x="1297" y="1489" type="line"/>
      <point x="250" y="1489" type="line"/>
    </contour>
  </outline>
</glyph>
<glyph name="G" format="2">
  <advance height="2479" width="1630"/>
  <unicode hex="0047"/>
  <anchor x="712" y="6" name="bottom"/>
  <anchor x="991" y="1676" name="top"/>
  <outline>
    <contour>
      <point x="1137" y="998" type="curve"/>
      <point x="1545" y="998" type="line"/>
      <point x="1564" y="1297"/>
      <point x="1328" y="1510"/>
      <point x="977" y="1510" type="curve" smooth="yes"/>
      <point x="575" y="1510"/>
      <point x="203" y="1233"/>
      <point x="121" y="742" type="curve" smooth="yes"/>
      <point x="44" y="271"/>
      <point x="291" y="-20"/>
      <point x="725" y="-20" type="curve" smooth="yes"/>
      <point x="1116" y="-20"/>
      <point x="1434" y="218"/>
      <point x="1502" y="625" type="curve" smooth="yes"/>
      <point x="1535" y="832" type="line"/>
      <point x="875" y="832" type="line"/>
      <point x="828" y="544" type="line"/>
      <point x="1169" y="544" type="line"/>
      <point x="1099" y="551" type="line"/>
      <point x="1078" y="417"/>
      <point x="964" y="332"/>
      <point x="779" y="332" type="curve" smooth="yes"/>
      <point x="570" y="332"/>
      <point x="495" y="486"/>
      <point x="539" y="748" type="curve" smooth="yes"/>
      <point x="581" y="1006"/>
      <point x="737" y="1158"/>
      <point x="942" y="1158" type="curve" smooth="yes"/>
      <point x="1068" y="1158"/>
      <point x="1129" y="1100"/>
    </contour>
  </outline>
</glyph>
<glyph name="L" format="2">
  <advance height="2479" width="1169"/>
  <unicode hex="004C"/>
  <anchor x="460" y="0" name="bottom"/>
  <anchor x="335" y="788" name="cross"/>
  <anchor x="657" y="873" name="dot"/>
  <anchor x="861" y="1489" name="raccent"/>
  <anchor x="480" y="1676" name="top"/>
  <outline>
    <contour>
      <point x="3" y="0" type="line"/>
      <point x="1009" y="0" type="line"/>
      <point x="1065" y="326" type="line"/>
      <point x="463" y="326" type="line"/>
      <point x="655" y="1489" type="line"/>
      <point x="250" y="1489" type="line"/>
    </contour>
  </outline>
</glyph>
<glyph name="M" format="2">
  <advance height="2479" width="1909"/>
  <unicode hex="004D"/>
  <anchor x="861" y="0" name="bottom"/>
  <anchor x="1719" y="0" name="right"/>
  <anchor x="1140" y="1676" name="top"/>
  <outline>
    <contour>
      <point x="250" y="1489" type="line"/>
      <point x="3" y="0" type="line"/>
      <point x="399" y="0" type="line"/>
      <point x="544" y="867" type="line"/>
      <point x="556" y="867" type="line"/>
      <point x="743" y="0" type="line"/>
      <point x="981" y="0" type="line"/>
      <point x="1455" y="861" type="line"/>
      <point x="1466" y="861" type="line"/>
      <point x="1324" y="0" type="line"/>
      <point x="1719" y="0" type="line"/>
      <point x="1967" y="1489" type="line"/>
      <point x="1463" y="1489" type="line"/>
      <point x="977" y="646" type="line"/>
      <point x="960" y="646" type="line"/>
      <point x="753" y="1489" type="line"/>
    </contour>
  </outline>
</glyph>
<glyph name="N" format="2">
  <advance height="2479" width="1481"/>
  <unicode hex="004E"/>
  <anchor x="649" y="0" name="bottom"/>
  <anchor x="1361" y="0" name="right"/>
  <anchor x="928" y="1676" name="top"/>
  <outline>
    <contour>
      <point x="1539" y="1489" type="line"/>
      <point x="1135" y="1489" type="line"/>
      <point x="1007" y="710" type="line"/>
      <point x="995" y="710" type="line"/>
      <point x="593" y="1489" type="line"/>
      <point x="250" y="1489" type="line"/>
      <point x="3" y="0" type="line"/>
      <point x="407" y="0" type="line"/>
      <point x="538" y="783" type="line"/>
      <point x="547" y="783" type="line"/>
      <point x="954" y="0" type="line"/>
      <point x="1292" y="0" type="line"/>
    </contour>
  </outline>
</glyph>
<glyph name="O" format="2">
  <advance height="2479" width="1629"/>
  <unicode hex="004F"/>
  <anchor x="721" y="0" name="bottom"/>
  <anchor x="931" y="6" name="ogonek"/>
  <anchor x="326" y="1489" name="tonos"/>
  <anchor x="1001" y="1676" name="top"/>
  <outline>
    <contour>
      <point x="1565" y="719" type="curve" smooth="yes"/>
      <point x="1649" y="1228"/>
      <point x="1367" y="1510"/>
      <point x="951" y="1510" type="curve" smooth="yes"/>
      <point x="556" y="1510"/>
      <point x="204" y="1251"/>
      <point x="125" y="765" type="curve" smooth="yes"/>
      <point x="41" y="259"/>
      <point x="323" y="-20"/>
      <point x="742" y="-20" type="curve" smooth="yes"/>
      <point x="1135" y="-20"/>
      <point x="1484" y="233"/>
    </contour>
    <contour>
      <point x="1158" y="765" type="curve" smooth="yes"/>
      <point x="1111" y="489"/>
      <point x="969" y="332"/>
      <point x="756" y="332" type="curve" smooth="yes"/>
      <point x="570" y="332"/>
      <point x="486" y="460"/>
      <point x="532" y="719" type="curve" smooth="yes"/>
      <point x="576" y="995"/>
      <point x="721" y="1158"/>
      <point x="937" y="1158" type="curve" smooth="yes"/>
      <point x="1126" y="1158"/>
      <point x="1199" y="1021"/>
    </contour>
  </outline>
</glyph>
<glyph name="P" format="2">
  <advance height="2479" width="1344"/>
  <unicode hex="0050"/>
  <anchor x="230" y="1489" name="tonos"/>
  <anchor x="844" y="1676" name="top"/>
  <outline>
    <contour>
      <point x="3" y="0" type="line"/>
      <point x="407" y="0" type="line"/>
      <point x="602" y="1167" type="line"/>
      <point x="745" y="1167" type="line" smooth="yes"/>
      <point x="887" y="1167"/>
      <point x="957" y="1091"/>
      <point x="937" y="963" type="curve" smooth="yes"/>
      <point x="916" y="835"/>
      <point x="820" y="756"/>
      <point x="675" y="756" type="curve" smooth="yes"/>
      <point x="372" y="756" type="line"/>
      <point x="320" y="442" type="line"/>
      <point x="704" y="442" type="line" smooth="yes"/>
      <point x="1047" y="442"/>
      <point x="1306" y="640"/>
      <point x="1359" y="963" type="curve" smooth="yes"/>
      <point x="1411" y="1280"/>
      <point x="1225" y="1489"/>
      <point x="893" y="1489" type="curve" smooth="yes"/>
      <point x="250" y="1489" type="line"/>
    </contour>
  </outline>
</glyph>
<glyph name="W" format="2">
  <advance height="2479" width="2232"/>
  <unicode hex="0057"/>
  <anchor x="1021" y="0" name="bottom"/>
  <anchor x="1300" y="1676" name="top"/>
  <outline>
    <contour>
      <point x="375" y="0" type="line"/>
      <point x="762" y="0" type="line"/>
      <point x="1155" y="832" type="line"/>
      <point x="1167" y="832" type="line"/>
      <point x="1280" y="0" type="line"/>
      <point x="1667" y="0" type="line"/>
      <point x="2354" y="1489" type="line"/>
      <point x="1903" y="1489" type="line"/>
      <point x="1548" y="570" type="line"/>
      <point x="1536" y="570" type="line"/>
      <point x="1446" y="1489" type="line"/>
      <point x="1091" y="1489" type="line"/>
      <point x="698" y="573" type="line"/>
      <point x="687" y="573" type="line"/>
      <point x="634" y="1489" type="line"/>
      <point x="183" y="1489" type="line"/>
    </contour>
  </outline>
</glyph>
<glyph name="Y" format="2">
  <advance height="2479" width="1565"/>
  <unicode hex="0059"/>
  <anchor x="689" y="0" name="bottom"/>
  <anchor x="783" y="556" name="cross"/>
  <anchor x="890" y="0" name="ogonek"/>
  <anchor x="84" y="1489" name="tonos"/>
  <anchor x="969" y="1676" name="top"/>
  <outline>
    <contour>
      <point x="189" y="1489" type="line"/>
      <point x="567" y="468" type="line"/>
      <point x="489" y="0" type="line"/>
      <point x="890" y="0" type="line"/>
      <point x="969" y="468" type="line"/>
      <point x="1684" y="1489" type="line"/>
      <point x="1233" y="1489" type="line"/>
      <point x="844" y="884" type="line"/>
      <point x="829" y="884" type="line"/>
      <point x="640" y="1489" type="line"/>
    </contour>
  </outline>
</glyph>
<glyph name="bracketleft" format="2">
  <advance height="2479" width="902"/>
  <unicode hex="005B"/>
  <outline>
    <contour>
      <point x="49" y="-337" type="line"/>
      <point x="719" y="-337" type="line"/>
      <point x="768" y="-47" type="line"/>
      <point x="489" y="-47" type="line"/>
      <point x="692" y="1199" type="line"/>
      <point x="972" y="1199" type="line"/>
      <point x="1021" y="1489" type="line"/>
      <point x="352" y="1489" type="line"/>
    </contour>
  </outline>
</glyph>
<glyph name="asciicircum" format="2">
  <advance height="2479" width="1024"/>
  <unicode hex="005E"/>
  <outline>
    <contour>
      <point x="623" y="1306" type="line"/>
      <point x="608" y="1222" type="line"/>
      <point x="660" y="1222" type="line"/>
      <point x="675" y="1306" type="line"/>
    </contour>
    <contour>
      <point x="102" y="815" type="line"/>
      <point x="390" y="815" type="line"/>
      <point x="643" y="1251" type="line"/>
      <point x="631" y="1251" type="line"/>
      <point x="745" y="815" type="line"/>
      <point x="1009" y="815" type="line"/>
      <point x="806" y="1466" type="line"/>
      <point x="521" y="1466" type="line"/>
    </contour>
  </outline>
</glyph>
<glyph name="underscore" format="2">
  <advance height="2479" width="1009"/>
  <unicode hex="005F"/>
  <anchor x="433" y="125" name="_bottom"/>
  <outline>
    <contour>
      <point x="916" y="0" type="line"/>
      <point x="-93" y="0" type="line"/>
      <point x="-140" y="-285" type="line"/>
      <point x="870" y="-285" type="line"/>
    </contour>
  </outline>
</glyph>
<glyph name="b" format="2">
  <advance height="2479" width="1321"/>
  <unicode hex="0062"/>
  <anchor x="538" y="0" name="bottom"/>
  <anchor x="413" y="1280" name="cross"/>
  <anchor x="954" y="1303" name="top"/>
  <outline>
    <contour>
      <point x="3" y="0" type="line"/>
      <point x="401" y="0" type="line"/>
      <point x="431" y="183" type="line"/>
      <point x="442" y="183" type="line"/>
      <point x="468" y="70"/>
      <point x="561" y="-15"/>
      <point x="719" y="-15" type="curve" smooth="yes"/>
      <point x="957" y="-15"/>
      <point x="1190" y="172"/>
      <point x="1254" y="559" type="curve" smooth="yes"/>
      <point x="1321" y="963"/>
      <point x="1135" y="1132"/>
      <point x="913" y="1132" type="curve" smooth="yes"/>
      <point x="748" y="1132"/>
      <point x="625" y="1036"/>
      <point x="564" y="922" type="curve"/>
      <point x="559" y="922" type="line"/>
      <point x="652" y="1489" type="line"/>
      <point x="250" y="1489" type="line"/>
    </contour>
    <contour>
      <point x="489" y="559" type="curve" smooth="yes"/>
      <point x="515" y="724"/>
      <point x="599" y="823"/>
      <point x="710" y="823" type="curve" smooth="yes"/>
      <point x="820" y="823"/>
      <point x="867" y="724"/>
      <point x="841" y="559" type="curve" smooth="yes"/>
      <point x="815" y="393"/>
      <point x="733" y="294"/>
      <point x="623" y="294" type="curve" smooth="yes"/>
      <point x="512" y="294"/>
      <point x="463" y="396"/>
    </contour>
  </outline>
</glyph>
<glyph name="f" format="2">
  <advance height="2479" width="825"/>
  <unicode hex="0066"/>
  <anchor x="272" y="0" name="bottom"/>
  <anchor x="376" y="610" name="cross"/>
  <anchor x="678" y="1676" name="top"/>
  <outline>
    <contour>
      <point x="865" y="1117" type="line"/>
      <point x="118" y="1117" type="line"/>
      <point x="68" y="826" type="line"/>
      <point x="816" y="826" type="line"/>
    </contour>
    <component base="_part.f_base" xOffset="-17"/>
  </outline>
</glyph>
<glyph name="g" format="2">
  <advance height="2479" width="1330"/>
  <unicode hex="0067"/>
  <anchor x="480" y="-416" name="bottom"/>
  <anchor x="1024" y="567" name="cross"/>
  <anchor x="762" y="1303" name="top"/>
  <outline>
    <contour>
      <point x="477" y="-442" type="curve" smooth="yes"/>
      <point x="829" y="-442"/>
      <point x="1091" y="-282"/>
      <point x="1135" y="3" type="curve" smooth="yes"/>
      <point x="1321" y="1117" type="line"/>
      <point x="919" y="1117" type="line"/>
      <point x="887" y="922" type="line"/>
      <point x="879" y="922" type="line"/>
      <point x="852" y="1036"/>
      <point x="765" y="1132"/>
      <point x="599" y="1132" type="curve" smooth="yes"/>
      <point x="378" y="1132"/>
      <point x="134" y="963"/>
      <point x="67" y="559" type="curve" smooth="yes"/>
      <point x="3" y="172"/>
      <point x="177" y="15"/>
      <point x="416" y="15" type="curve" smooth="yes"/>
      <point x="567" y="15"/>
      <point x="698" y="79"/>
      <point x="759" y="192" type="curve"/>
      <point x="771" y="192" type="line"/>
      <point x="739" y="3" type="line" smooth="yes"/>
      <point x="721" y="-128"/>
      <point x="637" y="-172"/>
      <point x="532" y="-172" type="curve" smooth="yes"/>
      <point x="439" y="-172"/>
      <point x="378" y="-145"/>
      <point x="375" y="-73" type="curve"/>
      <point x="-12" y="-73" type="line"/>
      <point x="-29" y="-288"/>
      <point x="140" y="-442"/>
    </contour>
    <contour>
      <point x="611" y="300" type="curve" smooth="yes"/>
      <point x="500" y="300"/>
      <point x="454" y="393"/>
      <point x="480" y="559" type="curve" smooth="yes"/>
      <point x="506" y="724"/>
      <point x="588" y="823"/>
      <point x="698" y="823" type="curve" smooth="yes"/>
      <point x="809" y="823"/>
      <point x="858" y="724"/>
      <point x="832" y="559" type="curve" smooth="yes"/>
      <point x="806" y="396"/>
      <point x="721" y="300"/>
    </contour>
  </outline>
</glyph>
<glyph name="l" format="2">
  <advance height="2479" width="608"/>
  <unicode hex="006C"/>
  <anchor x="215" y="0" name="bottom"/>
  <anchor x="340" y="768" name="cross"/>
  <anchor x="777" y="1489" name="raccent"/>
  <anchor x="492" y="1676" name="top"/>
  <outline>
    <contour>
      <point x="660" y="1489" type="line"/>
      <point x="259" y="1489" type="line"/>
      <point x="12" y="0" type="line"/>
      <point x="413" y="0" type="line"/>
    </contour>
  </outline>
</glyph>
<glyph name="m" format="2">
  <advance height="2479" width="1926"/>
  <unicode hex="006D"/>
  <anchor x="876" y="0" name="bottom"/>
  <anchor x="1094" y="1303" name="top"/>
  <outline>
    <contour>
      <point x="12" y="0" type="line"/>
      <point x="413" y="0" type="line"/>
      <point x="524" y="652" type="line" smooth="yes"/>
      <point x="537" y="749"/>
      <point x="599" y="809"/>
      <point x="681" y="809" type="curve" smooth="yes"/>
      <point x="764" y="809"/>
      <point x="808" y="749"/>
      <point x="794" y="652" type="curve" smooth="yes"/>
      <point x="684" y="0" type="line"/>
      <point x="1068" y="0" type="line"/>
      <point x="1178" y="652" type="line" smooth="yes"/>
      <point x="1192" y="749"/>
      <point x="1253" y="809"/>
      <point x="1335" y="809" type="curve" smooth="yes"/>
      <point x="1419" y="809"/>
      <point x="1463" y="749"/>
      <point x="1449" y="652" type="curve" smooth="yes"/>
      <point x="1338" y="0" type="line"/>
      <point x="1740" y="0" type="line"/>
      <point x="1865" y="753" type="line" smooth="yes"/>
      <point x="1903" y="983"/>
      <point x="1780" y="1132"/>
      <point x="1568" y="1132" type="curve" smooth="yes"/>
      <point x="1401" y="1132"/>
      <point x="1252" y="1041"/>
      <point x="1193" y="905" type="curve"/>
      <point x="1181" y="905" type="line"/>
      <point x="1180" y="1041"/>
      <point x="1069" y="1132"/>
      <point x="913" y="1132" type="curve" smooth="yes"/>
      <point x="757" y="1132"/>
      <point x="625" y="1044"/>
      <point x="556" y="905" type="curve"/>
      <point x="544" y="905" type="line"/>
      <point x="579" y="1117" type="line"/>
      <point x="198" y="1117" type="line"/>
    </contour>
  </outline>
</glyph>
<glyph name="o" format="2">
  <advance height="2479" width="1280"/>
  <unicode hex="006F"/>
  <anchor x="547" y="0" name="bottom"/>
  <anchor x="713" y="0" name="ogonek"/>
  <anchor x="762" y="1303" name="top"/>
  <outline>
    <contour>
      <point x="544" y="-20" type="curve" smooth="yes"/>
      <point x="908" y="-20"/>
      <point x="1161" y="212"/>
      <point x="1219" y="556" type="curve" smooth="yes"/>
      <point x="1275" y="899"/>
      <point x="1098" y="1132"/>
      <point x="736" y="1132" type="curve" smooth="yes"/>
      <point x="371" y="1132"/>
      <point x="117" y="899"/>
      <point x="61" y="556" type="curve" smooth="yes"/>
      <point x="4" y="212"/>
      <point x="180" y="-20"/>
    </contour>
    <contour>
      <point x="593" y="276" type="curve" smooth="yes"/>
      <point x="488" y="276"/>
      <point x="442" y="383"/>
      <point x="471" y="559" type="curve" smooth="yes"/>
      <point x="500" y="734"/>
      <point x="582" y="841"/>
      <point x="687" y="841" type="curve" smooth="yes"/>
      <point x="791" y="841"/>
      <point x="837" y="734"/>
      <point x="809" y="559" type="curve" smooth="yes"/>
      <point x="780" y="383"/>
      <point x="697" y="276"/>
    </contour>
  </outline>
</glyph>
<glyph name="p" format="2">
  <advance height="2479" width="1325"/>
  <unicode hex="0070"/>
  <anchor x="151" y="-401" name="bottom"/>
  <anchor x="1222" y="-477" name="bottom0315"/>
  <anchor x="186" y="-163" name="cross"/>
  <anchor x="855" y="1303" name="top"/>
  <outline>
    <contour>
      <point x="-58" y="-419" type="line"/>
      <point x="346" y="-419" type="line"/>
      <point x="445" y="183" type="line"/>
      <point x="454" y="183" type="line"/>
      <point x="478" y="70"/>
      <point x="571" y="-15"/>
      <point x="730" y="-15" type="curve" smooth="yes"/>
      <point x="967" y="-15"/>
      <point x="1200" y="172"/>
      <point x="1265" y="559" type="curve" smooth="yes"/>
      <point x="1331" y="963"/>
      <point x="1144" y="1132"/>
      <point x="925" y="1132" type="curve" smooth="yes"/>
      <point x="758" y="1132"/>
      <point x="635" y="1036"/>
      <point x="576" y="922" type="curve"/>
      <point x="567" y="922" type="line"/>
      <point x="599" y="1117" type="line"/>
      <point x="200" y="1117" type="line"/>
    </contour>
    <contour>
      <point x="500" y="559" type="curve" smooth="yes"/>
      <point x="525" y="724"/>
      <point x="609" y="823"/>
      <point x="721" y="823" type="curve" smooth="yes"/>
      <point x="830" y="823"/>
      <point x="877" y="724"/>
      <point x="852" y="559" type="curve" smooth="yes"/>
      <point x="822" y="393"/>
      <point x="743" y="294"/>
      <point x="634" y="294" type="curve" smooth="yes"/>
      <point x="522" y="294"/>
      <point x="472" y="396"/>
    </contour>
  </outline>
</glyph>
<glyph name="q" format="2">
  <advance height="2479" width="1323"/>
  <unicode hex="0071"/>
  <anchor x="856" y="-401" name="bottom"/>
  <anchor x="901" y="-163" name="cross"/>
  <anchor x="716" y="1303" name="top"/>
  <outline>
    <contour>
      <point x="655" y="-419" type="line"/>
      <point x="1057" y="-419" type="line"/>
      <point x="1311" y="1117" type="line"/>
      <point x="913" y="1117" type="line"/>
      <point x="879" y="922" type="line"/>
      <point x="871" y="922" type="line"/>
      <point x="847" y="1036"/>
      <point x="757" y="1132"/>
      <point x="591" y="1132" type="curve" smooth="yes"/>
      <point x="370" y="1132"/>
      <point x="127" y="963"/>
      <point x="60" y="559" type="curve"/>
      <point x="-4" y="172"/>
      <point x="167" y="-15"/>
      <point x="405" y="-15" type="curve" smooth="yes"/>
      <point x="562" y="-15"/>
      <point x="684" y="70"/>
      <point x="748" y="183" type="curve"/>
      <point x="754" y="183" type="line"/>
    </contour>
    <contour>
      <point x="604" y="294" type="curve" smooth="yes"/>
      <point x="494" y="294"/>
      <point x="446" y="393"/>
      <point x="473" y="559" type="curve" smooth="yes"/>
      <point x="501" y="724"/>
      <point x="581" y="823"/>
      <point x="692" y="823" type="curve" smooth="yes"/>
      <point x="802" y="823"/>
      <point x="853" y="724"/>
      <point x="825" y="559" type="curve"/>
      <point x="799" y="396"/>
      <point x="715" y="294"/>
    </contour>
  </outline>
</glyph>
<glyph name="r" format="2">
  <advance height="2479" width="887"/>
  <unicode hex="0072"/>
  <anchor x="212" y="0" name="bottom"/>
  <anchor x="300" y="535" name="cross"/>
  <anchor x="608" y="1303" name="top"/>
  <outline>
    <contour>
      <point x="9" y="0" type="line"/>
      <point x="410" y="0" type="line"/>
      <point x="506" y="582" type="line" smooth="yes"/>
      <point x="529" y="710"/>
      <point x="631" y="794"/>
      <point x="748" y="794" type="curve" smooth="yes"/>
      <point x="791" y="794"/>
      <point x="855" y="788"/>
      <point x="893" y="774" type="curve"/>
      <point x="951" y="1117" type="line"/>
      <point x="919" y="1126"/>
      <point x="887" y="1132"/>
      <point x="852" y="1132" type="curve"/>
      <point x="733" y="1132"/>
      <point x="628" y="1062"/>
      <point x="561" y="905" type="curve"/>
      <point x="550" y="905" type="line"/>
      <point x="585" y="1117" type="line"/>
      <point x="195" y="1117" type="line"/>
    </contour>
  </outline>
</glyph>
<glyph name="t" format="2">
  <advance height="2479" width="829"/>
  <unicode hex="0074"/>
  <anchor x="873" y="1562" name="raccent"/>
  <anchor x="362" y="0" name="bottom"/>
  <anchor x="477" y="0" name="cedilla"/>
  <anchor x="538" y="1542" name="top"/>
  <outline>
    <contour>
      <point x="861" y="1117" type="line"/>
      <point x="125" y="1117" type="line"/>
      <point x="76" y="826" type="line"/>
      <point x="812" y="826" type="line"/>
    </contour>
    <component base="_part.t_base"/>
  </outline>
</glyph>
<glyph name="u" format="2">
  <advance height="2479" width="1331"/>
  <unicode hex="0075"/>
  <anchor x="622" y="0" name="bottom"/>
  <anchor x="1136" y="0" name="ogonek"/>
  <anchor x="790" y="1303" name="top"/>
  <outline>
    <contour>
      <point x="816" y="489" type="line" smooth="yes"/>
      <point x="800" y="378"/>
      <point x="724" y="311"/>
      <point x="624" y="311" type="curve" smooth="yes"/>
      <point x="523" y="311"/>
      <point x="477" y="378"/>
      <point x="494" y="489" type="curve" smooth="yes"/>
      <point x="598" y="1117" type="line"/>
      <point x="197" y="1117" type="line"/>
      <point x="78" y="404" type="line" smooth="yes"/>
      <point x="38" y="160"/>
      <point x="163" y="-15"/>
      <point x="398" y="-15" type="curve" smooth="yes"/>
      <point x="564" y="-15"/>
      <point x="710" y="70"/>
      <point x="779" y="212" type="curve"/>
      <point x="790" y="212" type="line"/>
      <point x="755" y="0" type="line"/>
      <point x="1136" y="0" type="line"/>
      <point x="1323" y="1117" type="line"/>
      <point x="921" y="1117" type="line"/>
    </contour>
  </outline>
</glyph>
<glyph name="w" format="2">
  <advance height="2479" width="1792"/>
  <unicode hex="0077"/>
  <anchor x="794" y="0" name="bottom"/>
  <anchor x="1018" y="1303" name="top"/>
  <outline>
    <contour>
      <point x="207" y="0" type="line"/>
      <point x="640" y="0" type="line"/>
      <point x="896" y="599" type="line"/>
      <point x="908" y="599" type="line"/>
      <point x="966" y="0" type="line"/>
      <point x="1399" y="0" type="line"/>
      <point x="1865" y="1117" type="line"/>
      <point x="1463" y="1117" type="line"/>
      <point x="1228" y="442" type="line"/>
      <point x="1219" y="442" type="line"/>
      <point x="1184" y="1117" type="line"/>
      <point x="794" y="1117" type="line"/>
      <point x="538" y="436" type="line"/>
      <point x="529" y="436" type="line"/>
      <point x="515" y="1117" type="line"/>
      <point x="113" y="1117" type="line"/>
    </contour>
  </outline>
</glyph>
<glyph name="y" format="2">
  <advance height="2479" width="1239"/>
  <unicode hex="0079"/>
  <anchor x="918" y="0" name="bottom"/>
  <anchor x="679" y="-419" name="ogonek"/>
  <anchor x="740" y="1303" name="top"/>
  <outline>
    <contour>
      <point x="185" y="-419" type="curve" smooth="yes"/>
      <point x="465" y="-419"/>
      <point x="620" y="-278"/>
      <point x="713" y="-93" type="curve" smooth="yes"/>
      <point x="1321" y="1117" type="line"/>
      <point x="884" y="1117" type="line"/>
      <point x="572" y="343" type="line"/>
      <point x="560" y="343" type="line"/>
      <point x="509" y="1117" type="line"/>
      <point x="105" y="1117" type="line"/>
      <point x="304" y="-49" type="line"/>
      <point x="291" y="-70" type="line" smooth="yes"/>
      <point x="252" y="-131"/>
      <point x="177" y="-129"/>
      <point x="84" y="-95" type="curve"/>
      <point x="-51" y="-380" type="line"/>
      <point x="9" y="-404"/>
      <point x="92" y="-419"/>
    </contour>
  </outline>
</glyph>
<glyph name="bar" format="2">
  <advance height="2479" width="829"/>
  <unicode hex="007C"/>
  <outline>
    <contour>
      <point x="845" y="1969" type="line"/>
      <point x="452" y="1969" type="line"/>
      <point x="47" y="-480" type="line"/>
      <point x="439" y="-480" type="line"/>
    </contour>
  </outline>
</glyph>
<glyph name="cent" format="2">
  <advance height="2479" width="1242"/>
  <unicode hex="00A2"/>
  <anchor x="581" y="189" name="cedilla"/>
  <anchor x="796" y="1492" name="top"/>
  <outline>
    <contour>
      <point x="482" y="0" type="line"/>
      <point x="601" y="0" type="line"/>
      <point x="863" y="1489" type="line"/>
      <point x="744" y="1489" type="line"/>
    </contour>
    <component base="c" xOffset="31" yOffset="189"/>
  </outline>
</glyph>
<glyph name="brokenbar" format="2">
  <advance height="2479" width="815"/>
  <unicode hex="00A6"/>
  <outline>
    <contour>
      <point x="207" y="425" type="line"/>
      <point x="90" y="-279" type="line"/>
      <point x="445" y="-279" type="line"/>
      <point x="561" y="425" type="line"/>
    </contour>
    <contour>
      <point x="739" y="1489" type="line"/>
      <point x="384" y="1489" type="line"/>
      <point x="268" y="788" type="line"/>
      <point x="623" y="788" type="line"/>
    </contour>
  </outline>
</glyph>
<glyph name="ordfeminine" format="2">
  <advance height="2479" width="1050"/>
  <unicode hex="00AA"/>
  <outline>
    <contour>
      <point x="701" y="861" type="line"/>
      <point x="692" y="803"/>
      <point x="695" y="748"/>
      <point x="701" y="704" type="curve"/>
      <point x="887" y="704" type="line"/>
      <point x="873" y="771"/>
      <point x="881" y="835"/>
      <point x="890" y="887" type="curve" smooth="yes"/>
      <point x="943" y="1201" type="line"/>
      <point x="972" y="1385"/>
      <point x="864" y="1478"/>
      <point x="681" y="1478" type="curve" smooth="yes"/>
      <point x="486" y="1478"/>
      <point x="340" y="1379"/>
      <point x="317" y="1242" type="curve"/>
      <point x="497" y="1231" type="line"/>
      <point x="509" y="1295"/>
      <point x="567" y="1329"/>
      <point x="657" y="1329" type="curve" smooth="yes"/>
      <point x="742" y="1329"/>
      <point x="771" y="1280"/>
      <point x="759" y="1201" type="curve"/>
    </contour>
    <contour>
      <point x="797" y="1149" type="line"/>
      <point x="646" y="1149" type="line"/>
      <point x="404" y="1149"/>
      <point x="273" y="1068"/>
      <point x="250" y="919" type="curve" smooth="yes"/>
      <point x="227" y="783"/>
      <point x="305" y="692"/>
      <point x="471" y="692" type="curve" smooth="yes"/>
      <point x="614" y="692"/>
      <point x="704" y="765"/>
      <point x="748" y="832" type="curve"/>
      <point x="748" y="951" type="line"/>
      <point x="742" y="902"/>
      <point x="625" y="835"/>
      <point x="541" y="835" type="curve" smooth="yes"/>
      <point x="457" y="835"/>
      <point x="425" y="870"/>
      <point x="433" y="922" type="curve" smooth="yes"/>
      <point x="442" y="980"/>
      <point x="506" y="1033"/>
      <point x="625" y="1033" type="curve"/>
      <point x="777" y="1033" type="line"/>
    </contour>
  </outline>
</glyph>
<glyph name="logicalnot" format="2">
  <advance height="2479" width="1242"/>
  <unicode hex="00AC"/>
  <outline>
    <contour>
      <point x="1103" y="806" type="line"/>
      <point x="227" y="806" type="line"/>
      <point x="198" y="634" type="line"/>
      <point x="1073" y="634" type="line"/>
    </contour>
    <contour>
      <point x="1091" y="727" type="line"/>
      <point x="881" y="727" type="line"/>
      <point x="823" y="375" type="line"/>
      <point x="1033" y="375" type="line"/>
    </contour>
  </outline>
</glyph>
<glyph name="threesuperior" format="2">
  <advance height="2479" width="919"/>
  <unicode hex="00B3"/>
  <outline>
    <contour>
      <point x="500" y="733" type="curve" smooth="yes"/>
      <point x="745" y="733"/>
      <point x="916" y="841"/>
      <point x="940" y="992" type="curve" smooth="yes"/>
      <point x="957" y="1108"/>
      <point x="879" y="1193"/>
      <point x="748" y="1201" type="curve"/>
      <point x="748" y="1210" type="line"/>
      <point x="864" y="1222"/>
      <point x="948" y="1271"/>
      <point x="963" y="1370" type="curve" smooth="yes"/>
      <point x="986" y="1516"/>
      <point x="861" y="1649"/>
      <point x="631" y="1649" type="curve" smooth="yes"/>
      <point x="422" y="1649"/>
      <point x="241" y="1539"/>
      <point x="212" y="1379" type="curve"/>
      <point x="468" y="1379" type="line"/>
      <point x="477" y="1420"/>
      <point x="559" y="1440"/>
      <point x="623" y="1440" type="curve" smooth="yes"/>
      <point x="692" y="1440"/>
      <point x="713" y="1417"/>
      <point x="707" y="1388" type="curve" smooth="yes"/>
      <point x="695" y="1335"/>
      <point x="640" y="1297"/>
      <point x="559" y="1297" type="curve" smooth="yes"/>
      <point x="442" y="1297" type="line"/>
      <point x="413" y="1100" type="line"/>
      <point x="541" y="1100" type="line" smooth="yes"/>
      <point x="631" y="1100"/>
      <point x="675" y="1082"/>
      <point x="666" y="1036" type="curve" smooth="yes"/>
      <point x="657" y="986"/>
      <point x="593" y="954"/>
      <point x="509" y="954" type="curve" smooth="yes"/>
      <point x="442" y="954"/>
      <point x="396" y="972"/>
      <point x="399" y="1009" type="curve"/>
      <point x="131" y="1009" type="line"/>
      <point x="108" y="844"/>
      <point x="259" y="733"/>
    </contour>
  </outline>
</glyph>
<glyph name="acute" format="2">
  <advance height="2479" width="1018"/>
  <unicode hex="00B4"/>
  <anchor x="633" y="1303" name="_top"/>
  <anchor x="694" y="1676" name="top"/>
  <outline>
    <contour>
      <point x="490" y="1257" type="line"/>
      <point x="755" y="1257" type="line"/>
      <point x="1028" y="1583" type="line"/>
      <point x="685" y="1583" type="line"/>
    </contour>
  </outline>
</glyph>
<glyph name="micro" format="2">
  <advance height="2479" width="1425"/>
  <unicode hex="00B5"/>
  <outline>
    <contour>
      <point x="-55" y="-396" type="line"/>
      <point x="326" y="-396" type="line"/>
      <point x="416" y="154" type="line"/>
      <point x="425" y="154" type="line"/>
      <point x="446" y="73"/>
      <point x="521" y="20"/>
      <point x="623" y="20" type="curve" smooth="yes"/>
      <point x="728" y="20"/>
      <point x="818" y="73"/>
      <point x="867" y="154" type="curve"/>
      <point x="876" y="154" type="line"/>
      <point x="849" y="0" type="line"/>
      <point x="1231" y="0" type="line"/>
      <point x="1417" y="1117" type="line"/>
      <point x="1015" y="1117" type="line"/>
      <point x="911" y="489" type="line" smooth="yes"/>
      <point x="894" y="384"/>
      <point x="795" y="311"/>
      <point x="672" y="311" type="curve" smooth="yes"/>
      <point x="551" y="311"/>
      <point x="475" y="384"/>
      <point x="492" y="489" type="curve" smooth="yes"/>
      <point x="596" y="1117" type="line"/>
      <point x="195" y="1117" type="line"/>
    </contour>
  </outline>
</glyph>
<glyph name="cedilla" format="2">
  <advance height="2479" width="913"/>
  <unicode hex="00B8"/>
  <anchor x="364" y="0" name="_cedilla"/>
  <outline>
    <contour>
      <point x="297" y="6" type="line"/>
      <point x="236" y="-145" type="line"/>
      <point x="326" y="-160"/>
      <point x="367" y="-195"/>
      <point x="355" y="-250" type="curve" smooth="yes"/>
      <point x="340" y="-308"/>
      <point x="259" y="-340"/>
      <point x="116" y="-340" type="curve"/>
      <point x="90" y="-495" type="line"/>
      <point x="364" y="-495"/>
      <point x="544" y="-399"/>
      <point x="567" y="-241" type="curve" smooth="yes"/>
      <point x="585" y="-148"/>
      <point x="527" y="-79"/>
      <point x="416" y="-61" type="curve"/>
      <point x="439" y="6" type="line"/>
    </contour>
  </outline>
</glyph>
<glyph name="onesuperior" format="2">
  <advance height="2479" width="668"/>
  <unicode hex="00B9"/>
  <outline>
    <contour>
      <point x="308" y="745" type="line"/>
      <point x="561" y="745" type="line"/>
      <point x="710" y="1638" type="line"/>
      <point x="477" y="1638" type="line"/>
      <point x="225" y="1498" type="line"/>
      <point x="189" y="1283" type="line"/>
      <point x="413" y="1405" type="line"/>
      <point x="417" y="1405" type="line"/>
    </contour>
  </outline>
</glyph>
<glyph name="multiply" format="2">
  <advance height="2479" width="1420"/>
  <unicode hex="00D7"/>
  <outline>
    <contour>
      <point x="951" y="32" type="line"/>
      <point x="1236" y="276" type="line"/>
      <point x="483" y="1178" type="line"/>
      <point x="198" y="931" type="line"/>
    </contour>
    <contour>
      <point x="294" y="32" type="line"/>
      <point x="1344" y="931" type="line"/>
      <point x="1140" y="1178" type="line"/>
      <point x="90" y="276" type="line"/>
    </contour>
  </outline>
</glyph>
<glyph name="Oslash" format="2">
  <advance height="2479" width="1629"/>
  <unicode hex="00D8"/>
  <anchor x="721" y="0" name="bottom"/>
  <anchor x="931" y="6" name="ogonek"/>
  <anchor x="326" y="1489" name="tonos"/>
  <anchor x="1001" y="1676" name="top"/>
  <outline>
    <contour>
      <point x="247" y="-79" type="line"/>
      <point x="1588" y="1455" type="line"/>
      <point x="1443" y="1565" type="line"/>
      <point x="102" y="32" type="line"/>
    </contour>
    <component base="O"/>
  </outline>
</glyph>
<glyph name="germandbls" format="2">
  <advance height="2479" width="1419"/>
  <unicode hex="00DF"/>
  <outline>
    <contour>
      <point x="3" y="0" type="line"/>
      <point x="404" y="0" type="line"/>
      <point x="573" y="1012" type="line" smooth="yes"/>
      <point x="591" y="1119"/>
      <point x="669" y="1184"/>
      <point x="783" y="1184" type="curve" smooth="yes"/>
      <point x="889" y="1184"/>
      <point x="942" y="1124"/>
      <point x="925" y="1036" type="curve" smooth="yes"/>
      <point x="911" y="956"/>
      <point x="849" y="899"/>
      <point x="771" y="899" type="curve" smooth="yes"/>
      <point x="704" y="899" type="line"/>
      <point x="657" y="605" type="line"/>
      <point x="762" y="605" type="line" smooth="yes"/>
      <point x="890" y="605"/>
      <point x="961" y="552"/>
      <point x="945" y="460" type="curve" smooth="yes"/>
      <point x="933" y="369"/>
      <point x="849" y="314"/>
      <point x="736" y="314" type="curve" smooth="yes"/>
      <point x="602" y="314" type="line"/>
      <point x="550" y="0" type="line"/>
      <point x="768" y="0" type="line" smooth="yes"/>
      <point x="1065" y="0"/>
      <point x="1297" y="132"/>
      <point x="1347" y="410" type="curve" smooth="yes"/>
      <point x="1382" y="620"/>
      <point x="1292" y="779"/>
      <point x="1097" y="788" type="curve"/>
      <point x="1100" y="806" type="line"/>
      <point x="1233" y="836"/>
      <point x="1324" y="951"/>
      <point x="1347" y="1094" type="curve" smooth="yes"/>
      <point x="1395" y="1377"/>
      <point x="1139" y="1510"/>
      <point x="820" y="1510" type="curve" smooth="yes"/>
      <point x="473" y="1510"/>
      <point x="227" y="1353"/>
      <point x="183" y="1088" type="curve" smooth="yes"/>
    </contour>
  </outline>
</glyph>
<glyph name="ae" format="2">
  <advance height="2479" width="1856"/>
  <unicode hex="00E6"/>
  <anchor x="1036" y="1303" name="top"/>
  <outline>
    <contour>
      <point x="1184" y="-20" type="curve" smooth="yes"/>
      <point x="1455" y="-20"/>
      <point x="1684" y="128"/>
      <point x="1763" y="361" type="curve"/>
      <point x="1396" y="361" type="line"/>
      <point x="1361" y="297"/>
      <point x="1289" y="262"/>
      <point x="1207" y="262" type="curve" smooth="yes"/>
      <point x="1088" y="262"/>
      <point x="1033" y="340"/>
      <point x="1050" y="448" type="curve"/>
      <point x="1088" y="687" type="line"/>
      <point x="1108" y="783"/>
      <point x="1199" y="849"/>
      <point x="1297" y="849" type="curve" smooth="yes"/>
      <point x="1396" y="849"/>
      <point x="1460" y="783"/>
      <point x="1446" y="687" type="curve"/>
      <point x="855" y="687" type="line"/>
      <point x="820" y="465" type="line"/>
      <point x="1780" y="465" type="line"/>
      <point x="1795" y="559" type="line" smooth="yes"/>
      <point x="1853" y="913"/>
      <point x="1673" y="1132"/>
      <point x="1335" y="1132" type="curve" smooth="yes"/>
      <point x="1164" y="1132"/>
      <point x="1018" y="1076"/>
      <point x="890" y="919" type="curve"/>
      <point x="806" y="195" type="line"/>
      <point x="852" y="47"/>
      <point x="1004" y="-20"/>
    </contour>
    <contour>
      <point x="492" y="236" type="curve" smooth="yes"/>
      <point x="422" y="236"/>
      <point x="381" y="271"/>
      <point x="390" y="332" type="curve" smooth="yes"/>
      <point x="399" y="390"/>
      <point x="448" y="433"/>
      <point x="544" y="448" type="curve" smooth="yes"/>
      <point x="608" y="460"/>
      <point x="666" y="471"/>
      <point x="710" y="489" type="curve"/>
      <point x="695" y="396" type="line" smooth="yes"/>
      <point x="678" y="294"/>
      <point x="582" y="236"/>
    </contour>
    <contour>
      <point x="346" y="-17" type="curve" smooth="yes"/>
      <point x="532" y="-17"/>
      <point x="721" y="44"/>
      <point x="812" y="169" type="curve"/>
      <point x="835" y="169" type="line"/>
      <point x="986" y="983" type="line"/>
      <point x="951" y="1076"/>
      <point x="861" y="1132"/>
      <point x="710" y="1132" type="curve" smooth="yes"/>
      <point x="364" y="1132"/>
      <point x="175" y="957"/>
      <point x="125" y="753" type="curve"/>
      <point x="495" y="753" type="line"/>
      <point x="515" y="823"/>
      <point x="573" y="855"/>
      <point x="649" y="855" type="curve" smooth="yes"/>
      <point x="719" y="855"/>
      <point x="762" y="823"/>
      <point x="753" y="765" type="curve" smooth="yes"/>
      <point x="753" y="762" type="line" smooth="yes"/>
      <point x="742" y="698"/>
      <point x="669" y="678"/>
      <point x="477" y="663" type="curve" smooth="yes"/>
      <point x="244" y="646"/>
      <point x="49" y="553"/>
      <point x="9" y="308" type="curve" smooth="yes"/>
      <point x="-29" y="87"/>
      <point x="102" y="-17"/>
    </contour>
  </outline>
</glyph>
<glyph name="eth" format="2">
  <advance height="2479" width="1255"/>
  <unicode hex="00F0"/>
  <outline>
    <contour>
      <point x="1080" y="1393" type="line"/>
      <point x="1107" y="1556" type="line"/>
      <point x="304" y="1169" type="line"/>
      <point x="277" y="1007" type="line"/>
    </contour>
    <contour>
      <point x="523" y="-23" type="curve" smooth="yes"/>
      <point x="882" y="-23"/>
      <point x="1138" y="225"/>
      <point x="1199" y="591" type="curve" smooth="yes"/>
      <point x="1289" y="1136"/>
      <point x="879" y="1497"/>
      <point x="368" y="1564" type="curve"/>
      <point x="336" y="1370" type="line"/>
      <point x="530" y="1311"/>
      <point x="786" y="1155"/>
      <point x="864" y="931" type="curve"/>
      <point x="848" y="931" type="line"/>
      <point x="796" y="989"/>
      <point x="710" y="1025"/>
      <point x="597" y="1025" type="curve" smooth="yes"/>
      <point x="313" y="1025"/>
      <point x="99" y="794"/>
      <point x="53" y="512" type="curve" smooth="yes"/>
      <point x="-1" y="189"/>
      <point x="190" y="-23"/>
    </contour>
    <contour>
      <point x="584" y="269" type="curve" smooth="yes"/>
      <point x="466" y="269"/>
      <point x="408" y="371"/>
      <point x="435" y="543" type="curve" smooth="yes"/>
      <point x="462" y="704"/>
      <point x="543" y="797"/>
      <point x="671" y="797" type="curve" smooth="yes"/>
      <point x="798" y="797"/>
      <point x="850" y="704"/>
      <point x="822" y="543" type="curve" smooth="yes"/>
      <point x="793" y="369"/>
      <point x="700" y="269"/>
    </contour>
  </outline>
</glyph>
<glyph name="oslash" format="2">
  <advance height="2479" width="1280"/>
  <unicode hex="00F8"/>
  <anchor x="547" y="0" name="bottom"/>
  <anchor x="713" y="0" name="ogonek"/>
  <anchor x="762" y="1303" name="top"/>
  <outline>
    <contour>
      <point x="207" y="-79" type="line"/>
      <point x="1216" y="1076" type="line"/>
      <point x="1071" y="1187" type="line"/>
      <point x="61" y="32" type="line"/>
    </contour>
    <component base="o"/>
  </outline>
</glyph>
<glyph name="thorn" format="2">
  <advance height="2479" width="1260"/>
  <unicode hex="00FE"/>
  <outline>
    <contour>
      <point x="256" y="1489" type="line"/>
      <point x="-61" y="-419" type="line"/>
      <point x="340" y="-419" type="line"/>
      <point x="448" y="227" type="line"/>
      <point x="346" y="529" type="line"/>
      <point x="570" y="954" type="line"/>
      <point x="657" y="1489" type="line"/>
    </contour>
    <contour>
      <point x="419" y="1021" type="line"/>
      <point x="265" y="90" type="line"/>
      <point x="436" y="90" type="line"/>
      <point x="463" y="-3"/>
      <point x="565" y="-15"/>
      <point x="657" y="-15" type="curve" smooth="yes"/>
      <point x="891" y="-15"/>
      <point x="1129" y="169"/>
      <point x="1193" y="559" type="curve" smooth="yes"/>
      <point x="1260" y="963"/>
      <point x="1068" y="1132"/>
      <point x="852" y="1132" type="curve" smooth="yes"/>
      <point x="751" y="1132"/>
      <point x="644" y="1111"/>
      <point x="591" y="1021" type="curve"/>
    </contour>
    <contour>
      <point x="817" y="559" type="curve" smooth="yes"/>
      <point x="789" y="381"/>
      <point x="711" y="294"/>
      <point x="582" y="294" type="curve" smooth="yes"/>
      <point x="434" y="294"/>
      <point x="431" y="425"/>
      <point x="454" y="559" type="curve" smooth="yes"/>
      <point x="478" y="698"/>
      <point x="527" y="823"/>
      <point x="669" y="823" type="curve" smooth="yes"/>
      <point x="798" y="823"/>
      <point x="847" y="736"/>
    </contour>
  </outline>
</glyph>
<glyph name="Hbar" format="2">
  <advance height="2479" width="1704"/>
  <unicode hex="0126"/>
  <anchor x="756" y="0" name="bottom"/>
  <anchor x="276" y="0" name="cedilla"/>
  <anchor x="1646" y="163" name="cyrtic"/>
  <anchor x="1428" y="0" name="right"/>
  <anchor x="296" y="1489" name="tonos"/>
  <anchor x="1035" y="1676" name="top"/>
  <outline>
    <contour>
      <point x="1766" y="1268" type="line"/>
      <point x="172" y="1268" type="line"/>
      <point x="140" y="1076" type="line"/>
      <point x="1734" y="1076" type="line"/>
    </contour>
    <component base="H" xOffset="81"/>
  </outline>
</glyph>
<glyph name="Lslash" format="2">
  <advance height="2479" width="1231"/>
  <unicode hex="0141"/>
  <anchor x="565" y="0" name="bottom"/>
  <anchor x="440" y="788" name="cross"/>
  <anchor x="762" y="873" name="dot"/>
  <anchor x="966" y="1489" name="raccent"/>
  <anchor x="585" y="1676" name="top"/>
  <outline>
    <contour>
      <point x="820" y="983" type="line"/>
      <point x="58" y="794" type="line"/>
      <point x="26" y="596" type="line"/>
      <point x="788" y="783" type="line"/>
    </contour>
    <component base="L" xOffset="105"/>
  </outline>
</glyph>
<glyph name="Eng" format="2">
  <advance height="2479" width="1481"/>
  <unicode hex="014A"/>
  <anchor x="649" y="0" name="bottom"/>
  <anchor x="1361" y="0" name="right"/>
  <anchor x="928" y="1676" name="top"/>
  <outline>
    <contour>
      <point x="954" y="0" type="line" name="hr00"/>
      <point x="951" y="-29" type="line" smooth="yes"/>
      <point x="937" y="-111"/>
      <point x="861" y="-160"/>
      <point x="753" y="-160" type="curve" smooth="yes"/>
      <point x="704" y="-160"/>
      <point x="652" y="-154"/>
      <point x="614" y="-145" type="curve"/>
      <point x="564" y="-436" type="line"/>
      <point x="602" y="-448"/>
      <point x="649" y="-457"/>
      <point x="684" y="-457" type="curve" smooth="yes"/>
      <point x="1015" y="-457"/>
      <point x="1240" y="-363"/>
      <point x="1289" y="-20" type="curve" smooth="yes"/>
      <point x="1292" y="0" type="line"/>
    </contour>
    <component base="N"/>
  </outline>
</glyph>
<glyph name="Bhook" format="2">
  <advance height="2479" width="1860"/>
  <unicode hex="0181"/>
  <anchor x="1063" y="0" name="bottom"/>
  <anchor x="1345" y="1676" name="top"/>
  <outline>
    <contour>
      <point x="933" y="1167" type="line" name="hr00"/>
      <point x="985" y="1489" type="line"/>
      <point x="720" y="1489" type="line" smooth="yes"/>
      <point x="407" y="1489"/>
      <point x="180" y="1329"/>
      <point x="136" y="1047" type="curve" smooth="yes"/>
      <point x="106" y="870" type="line"/>
      <point x="461" y="870" type="line"/>
      <point x="479" y="977" type="line" smooth="yes"/>
      <point x="491" y="1065"/>
      <point x="544" y="1167"/>
      <point x="668" y="1167" type="curve" smooth="yes"/>
    </contour>
    <component base="B" xOffset="493"/>
  </outline>
</glyph>
<glyph name="Tonesix" format="2">
  <advance height="2479" width="1702"/>
  <unicode hex="0184"/>
  <outline>
    <contour>
      <point x="867" y="1489" type="line"/>
      <point x="183" y="1489" type="line"/>
      <point x="128" y="1164" type="line"/>
      <point x="812" y="1164" type="line"/>
    </contour>
    <contour>
      <point x="716" y="989" type="line"/>
      <point x="663" y="681" type="line"/>
      <point x="972" y="681" type="line"/>
      <point x="1116" y="681"/>
      <point x="1183" y="605"/>
      <point x="1167" y="503" type="curve"/>
      <point x="1148" y="396"/>
      <point x="1055" y="317"/>
      <point x="911" y="317" type="curve"/>
      <point x="759" y="317" type="line"/>
      <point x="954" y="1489" type="line"/>
      <point x="550" y="1489" type="line"/>
      <point x="303" y="0" type="line"/>
      <point x="858" y="0" type="line"/>
      <point x="1233" y="0"/>
      <point x="1518" y="204"/>
      <point x="1568" y="500" type="curve"/>
      <point x="1617" y="797"/>
      <point x="1399" y="989"/>
      <point x="1024" y="989" type="curve"/>
    </contour>
  </outline>
</glyph>
<glyph name="tonesix" format="2">
  <advance height="2479" width="1585"/>
  <unicode hex="0185"/>
  <outline>
    <contour>
      <point x="997" y="-23" type="curve" smooth="yes"/>
      <point x="1281" y="-23"/>
      <point x="1443" y="106"/>
      <point x="1489" y="383" type="curve" smooth="yes"/>
      <point x="1539" y="687"/>
      <point x="1396" y="847"/>
      <point x="1138" y="847" type="curve" smooth="yes"/>
      <point x="1014" y="847"/>
      <point x="927" y="809"/>
      <point x="865" y="745" type="curve"/>
      <point x="855" y="745" type="line"/>
      <point x="916" y="1117" type="line"/>
      <point x="516" y="1117" type="line"/>
      <point x="481" y="887" type="line"/>
      <point x="475" y="887" type="line"/>
      <point x="327" y="0" type="line"/>
      <point x="728" y="0" type="line"/>
      <point x="737" y="61" type="line"/>
      <point x="751" y="61" type="line"/>
      <point x="785" y="7"/>
      <point x="857" y="-24"/>
    </contour>
    <contour>
      <point x="916" y="271" type="curve" smooth="yes"/>
      <point x="827" y="270"/>
      <point x="787" y="320"/>
      <point x="801" y="407" type="curve" smooth="yes"/>
      <point x="816" y="500"/>
      <point x="879" y="553"/>
      <point x="969" y="553" type="curve" smooth="yes"/>
      <point x="1059" y="553"/>
      <point x="1098" y="500"/>
      <point x="1084" y="413" type="curve" smooth="yes"/>
      <point x="1068" y="320"/>
      <point x="1005" y="270"/>
    </contour>
    <contour>
      <point x="324" y="559" type="line"/>
      <point x="708" y="887" type="line"/>
      <point x="516" y="1117" type="line"/>
      <point x="132" y="788" type="line"/>
    </contour>
  </outline>
</glyph>
<glyph name="Chook" format="2">
  <advance height="2479" width="1801"/>
  <unicode hex="0187"/>
  <anchor x="706" y="6" name="cedilla"/>
  <anchor x="994" y="1676" name="top"/>
  <outline>
    <contour>
      <point x="1545" y="931" type="line" name="hr00"/>
      <point x="1556" y="1015" type="line" smooth="yes"/>
      <point x="1578" y="1173"/>
      <point x="1726" y="1225"/>
      <point x="1818" y="1225" type="curve"/>
      <point x="1845" y="1225"/>
      <point x="1900" y="1222"/>
      <point x="1929" y="1222" type="curve"/>
      <point x="1981" y="1542" type="line"/>
      <point x="1915" y="1551"/>
      <point x="1865" y="1551"/>
      <point x="1804" y="1551" type="curve" smooth="yes"/>
      <point x="1516" y="1551"/>
      <point x="1225" y="1388"/>
      <point x="1178" y="1082" type="curve" smooth="yes"/>
      <point x="1155" y="931" type="line"/>
    </contour>
    <component base="C"/>
  </outline>
</glyph>
<glyph name="Dtopbar" format="2">
  <advance height="2479" width="1324"/>
  <unicode hex="018B"/>
  <outline>
    <contour>
      <point x="592" y="0" type="curve" smooth="yes"/>
      <point x="1136" y="0" type="line"/>
      <point x="1383" y="1489" type="line"/>
      <point x="336" y="1489" type="line"/>
      <point x="282" y="1164" type="line"/>
      <point x="925" y="1164" type="line"/>
      <point x="896" y="989" type="line"/>
      <point x="735" y="989" type="line" smooth="yes"/>
      <point x="359" y="989"/>
      <point x="89" y="810"/>
      <point x="42" y="527" type="curve" smooth="yes"/>
      <point x="-9" y="217"/>
      <point x="216" y="0"/>
    </contour>
    <contour>
      <point x="623" y="317" type="line" smooth="yes"/>
      <point x="478" y="317"/>
      <point x="420" y="383"/>
      <point x="436" y="477" type="curve" smooth="yes"/>
      <point x="455" y="592"/>
      <point x="559" y="681"/>
      <point x="704" y="681" type="curve" smooth="yes"/>
      <point x="845" y="681" type="line"/>
      <point x="785" y="317" type="line"/>
    </contour>
  </outline>
</glyph>
<glyph name="Schwa" format="2">
  <advance height="2479" width="1628"/>
  <unicode hex="018F"/>
  <outline>
    <contour>
      <point x="732" y="-20" type="curve" smooth="yes"/>
      <point x="1156" y="-20"/>
      <point x="1487" y="257"/>
      <point x="1563" y="716" type="curve" smooth="yes"/>
      <point x="1647" y="1220"/>
      <point x="1359" y="1510"/>
      <point x="948" y="1510" type="curve" smooth="yes"/>
      <point x="605" y="1510"/>
      <point x="311" y="1297"/>
      <point x="229" y="998" type="curve"/>
      <point x="638" y="998" type="line"/>
      <point x="679" y="1100"/>
      <point x="785" y="1158"/>
      <point x="921" y="1158" type="curve" smooth="yes"/>
      <point x="1115" y="1158"/>
      <point x="1198" y="1019"/>
      <point x="1157" y="774" type="curve" smooth="yes"/>
      <point x="1111" y="499"/>
      <point x="966" y="332"/>
      <point x="745" y="332" type="curve" smooth="yes"/>
      <point x="572" y="332"/>
      <point x="503" y="404"/>
      <point x="524" y="538" type="curve"/>
      <point x="456" y="544" type="line"/>
      <point x="1320" y="544" type="line"/>
      <point x="1368" y="832" type="line"/>
      <point x="184" y="832" type="line"/>
      <point x="152" y="639" type="line" smooth="yes"/>
      <point x="84" y="231"/>
      <point x="332" y="-20"/>
    </contour>
  </outline>
</glyph>
<glyph name="Eopen" format="2">
  <advance height="2479" width="1425"/>
  <unicode hex="0190"/>
  <outline>
    <contour>
      <point x="618" y="-23" type="curve" smooth="yes"/>
      <point x="986" y="-23"/>
      <point x="1244" y="153"/>
      <point x="1287" y="404" type="curve"/>
      <point x="876" y="404" type="line"/>
      <point x="867" y="356"/>
      <point x="781" y="329"/>
      <point x="676" y="329" type="curve" smooth="yes"/>
      <point x="554" y="329"/>
      <point x="496" y="366"/>
      <point x="511" y="449" type="curve" smooth="yes"/>
      <point x="524" y="535"/>
      <point x="604" y="595"/>
      <point x="726" y="595" type="curve" smooth="yes"/>
      <point x="911" y="595" type="line"/>
      <point x="945" y="804" type="line"/>
      <point x="668" y="804" type="line"/>
      <point x="336" y="804"/>
      <point x="131" y="674"/>
      <point x="92" y="435" type="curve" smooth="yes"/>
      <point x="44" y="152"/>
      <point x="247" y="-23"/>
    </contour>
    <contour>
      <point x="672" y="708" type="curve"/>
      <point x="929" y="708" type="line" name="hr00"/>
      <point x="964" y="921" type="line"/>
      <point x="759" y="921" type="line" smooth="yes"/>
      <point x="665" y="921"/>
      <point x="617" y="955"/>
      <point x="628" y="1025" type="curve" smooth="yes"/>
      <point x="641" y="1106"/>
      <point x="721" y="1158"/>
      <point x="844" y="1158" type="curve" smooth="yes"/>
      <point x="929" y="1158"/>
      <point x="972" y="1132"/>
      <point x="966" y="1088" type="curve"/>
      <point x="1377" y="1088" type="line"/>
      <point x="1416" y="1332"/>
      <point x="1199" y="1510"/>
      <point x="831" y="1510" type="curve" smooth="yes"/>
      <point x="500" y="1510"/>
      <point x="268" y="1362"/>
      <point x="228" y="1121" type="curve" smooth="yes"/>
      <point x="186" y="867"/>
      <point x="369" y="708"/>
    </contour>
  </outline>
</glyph>
<glyph name="Fhook" format="2">
  <advance height="2479" width="1277"/>
  <unicode hex="0191"/>
  <anchor x="634" y="12" name="bottom"/>
  <anchor x="325" y="250" name="cross"/>
  <anchor x="890" y="1676" name="top"/>
  <outline>
    <contour>
      <point x="84" y="0" type="line"/>
      <point x="79" y="-35" type="line" smooth="yes"/>
      <point x="66" y="-103"/>
      <point x="-14" y="-116"/>
      <point x="-84" y="-116" type="curve"/>
      <point x="-104" y="-116"/>
      <point x="-136" y="-119"/>
      <point x="-151" y="-116" type="curve"/>
      <point x="-201" y="-413" type="line"/>
      <point x="-165" y="-419"/>
      <point x="-72" y="-419"/>
      <point x="-29" y="-419" type="curve"/>
      <point x="178" y="-419"/>
      <point x="424" y="-385"/>
      <point x="483" y="-35" type="curve" smooth="yes"/>
      <point x="489" y="0" type="line"/>
    </contour>
    <component base="F" xOffset="81"/>
  </outline>
</glyph>
<glyph name="Ghook" format="2">
  <advance height="2479" width="1795"/>
  <unicode hex="0193"/>
  <anchor x="712" y="6" name="bottom"/>
  <anchor x="991" y="1676" name="top"/>
  <outline>
    <contour>
      <point x="1548" y="998" type="line"/>
      <point x="1594" y="1271" type="line" smooth="yes"/>
      <point x="1615" y="1396"/>
      <point x="1723" y="1414"/>
      <point x="1830" y="1414" type="curve" smooth="yes"/>
      <point x="1865" y="1414"/>
      <point x="1897" y="1408"/>
      <point x="1935" y="1405" type="curve"/>
      <point x="1987" y="1719" type="line"/>
      <point x="1924" y="1734"/>
      <point x="1871" y="1743"/>
      <point x="1812" y="1743" type="curve" smooth="yes"/>
      <point x="1531" y="1743"/>
      <point x="1227" y="1577"/>
      <point x="1178" y="1271" type="curve" smooth="yes"/>
      <point x="1135" y="998" type="line"/>
    </contour>
    <component base="G"/>
  </outline>
</glyph>
<glyph name="Gamma-latin" format="2">
  <advance height="2479" width="1681"/>
  <unicode hex="0194"/>
  <outline>
    <contour>
      <point x="255" y="1489" type="line"/>
      <point x="739" y="169" type="line" smooth="yes"/>
      <point x="772" y="79"/>
      <point x="784" y="-30"/>
      <point x="771" y="-116" type="curve" smooth="yes"/>
      <point x="763" y="-165"/>
      <point x="748" y="-186"/>
      <point x="720" y="-186" type="curve" smooth="yes"/>
      <point x="691" y="-186"/>
      <point x="682" y="-164"/>
      <point x="689" y="-118" type="curve" smooth="yes"/>
      <point x="702" y="-32"/>
      <point x="752" y="74"/>
      <point x="817" y="169" type="curve" smooth="yes"/>
      <point x="1738" y="1489" type="line"/>
      <point x="1270" y="1489" type="line"/>
      <point x="761" y="688" type="line" smooth="yes"/>
      <point x="353" y="47"/>
      <point x="302" y="-49"/>
      <point x="288" y="-140" type="curve" smooth="yes"/>
      <point x="257" y="-327"/>
      <point x="417" y="-442"/>
      <point x="676" y="-442" type="curve" smooth="yes"/>
      <point x="932" y="-442"/>
      <point x="1123" y="-315"/>
      <point x="1151" y="-151" type="curve" smooth="yes"/>
      <point x="1172" y="-22"/>
      <point x="1108" y="245"/>
      <point x="970" y="687" type="curve" smooth="yes"/>
      <point x="720" y="1489" type="line"/>
    </contour>
  </outline>
</glyph>
<glyph name="hv" format="2">
  <advance height="2479" width="2065"/>
  <unicode hex="0195"/>
  <outline>
    <contour>
      <point x="12" y="0" type="line"/>
      <point x="413" y="0" type="line"/>
      <point x="518" y="628" type="line" smooth="yes"/>
      <point x="537" y="739"/>
      <point x="612" y="806"/>
      <point x="710" y="806" type="curve" smooth="yes"/>
      <point x="812" y="806"/>
      <point x="859" y="739"/>
      <point x="841" y="628" type="curve" smooth="yes"/>
      <point x="829" y="559" type="line"/>
      <point x="1231" y="559" type="line"/>
      <point x="1257" y="713" type="line" smooth="yes"/>
      <point x="1297" y="957"/>
      <point x="1172" y="1132"/>
      <point x="937" y="1132" type="curve" smooth="yes"/>
      <point x="770" y="1132"/>
      <point x="634" y="1047"/>
      <point x="561" y="905" type="curve"/>
      <point x="550" y="905" type="line"/>
      <point x="646" y="1489" type="line"/>
      <point x="259" y="1489" type="line"/>
    </contour>
    <contour>
      <point x="1236" y="-20" type="curve" smooth="yes"/>
      <point x="1708" y="-20"/>
      <point x="1927" y="339"/>
      <point x="2039" y="1012" type="curve"/>
      <point x="2057" y="1117" type="line"/>
      <point x="1655" y="1117" type="line"/>
      <point x="1638" y="1012" type="line" smooth="yes"/>
      <point x="1564" y="573"/>
      <point x="1469" y="305"/>
      <point x="1303" y="305" type="curve" smooth="yes"/>
      <point x="1231" y="305"/>
      <point x="1196" y="353"/>
      <point x="1210" y="431" type="curve"/>
      <point x="1231" y="559" type="line"/>
      <point x="829" y="559" type="line"/>
      <point x="809" y="431" type="line" smooth="yes"/>
      <point x="764" y="164"/>
      <point x="897" y="-20"/>
    </contour>
  </outline>
</glyph>
<glyph name="khook" format="2">
  <advance height="2479" width="1242"/>
  <unicode hex="0199"/>
  <outline>
    <contour>
      <point x="730" y="0" type="line"/>
      <point x="1158" y="0" type="line"/>
      <point x="844" y="640" type="line"/>
      <point x="1332" y="1117" type="line"/>
      <point x="876" y="1117" type="line"/>
      <point x="559" y="800" type="line"/>
      <point x="544" y="800" type="line"/>
      <point x="582" y="1033" type="line"/>
      <point x="180" y="1033" type="line"/>
      <point x="9" y="0" type="line"/>
      <point x="410" y="0" type="line"/>
      <point x="454" y="256" type="line"/>
      <point x="559" y="355" type="line"/>
    </contour>
    <contour>
      <point x="561" y="913" type="line"/>
      <point x="596" y="1126" type="line" smooth="yes"/>
      <point x="609" y="1193"/>
      <point x="693" y="1207"/>
      <point x="762" y="1207" type="curve" smooth="yes"/>
      <point x="792" y="1207"/>
      <point x="821" y="1204"/>
      <point x="852" y="1201" type="curve"/>
      <point x="899" y="1498" type="line"/>
      <point x="856" y="1501"/>
      <point x="789" y="1510"/>
      <point x="704" y="1510" type="curve" smooth="yes"/>
      <point x="498" y="1510"/>
      <point x="254" y="1478"/>
      <point x="195" y="1126" type="curve" smooth="yes"/>
      <point x="160" y="913" type="line"/>
    </contour>
  </outline>
</glyph>
<glyph name="Mturned" format="2">
  <advance height="2479" width="1976"/>
  <unicode hex="019C"/>
  <outline>
    <contour>
      <point x="420" y="-22" type="curve" smooth="yes"/>
      <point x="721" y="-22"/>
      <point x="885" y="182"/>
      <point x="937" y="493" type="curve"/>
      <point x="836" y="516" type="line"/>
      <point x="815" y="385"/>
      <point x="731" y="278"/>
      <point x="583" y="278" type="curve" smooth="yes"/>
      <point x="487" y="278"/>
      <point x="460" y="321"/>
      <point x="473" y="400" type="curve" smooth="yes"/>
      <point x="654" y="1489" type="line"/>
      <point x="249" y="1489" type="line"/>
      <point x="73" y="426" type="line" smooth="yes"/>
      <point x="22" y="115"/>
      <point x="174" y="-22"/>
    </contour>
    <contour>
      <point x="1111" y="-22" type="curve" smooth="yes"/>
      <point x="1391" y="-22"/>
      <point x="1563" y="191"/>
      <point x="1613" y="493" type="curve"/>
      <point x="1518" y="516" type="line"/>
      <point x="1497" y="388"/>
      <point x="1413" y="278"/>
      <point x="1265" y="278" type="curve" smooth="yes"/>
      <point x="1169" y="278"/>
      <point x="1143" y="321"/>
      <point x="1156" y="400" type="curve"/>
      <point x="1336" y="1489" type="line"/>
      <point x="932" y="1489" type="line"/>
      <point x="756" y="426" type="line"/>
      <point x="703" y="112"/>
      <point x="888" y="-22"/>
    </contour>
    <contour>
      <point x="1383" y="0" type="line"/>
      <point x="1788" y="0" type="line"/>
      <point x="2034" y="1489" type="line"/>
      <point x="1630" y="1489" type="line"/>
    </contour>
  </outline>
</glyph>
<glyph name="Ohorn" format="2">
  <advance height="2479" width="1719"/>
  <unicode hex="01A0"/>
  <anchor x="721" y="0" name="bottom"/>
  <anchor x="931" y="6" name="ogonek"/>
  <anchor x="326" y="1489" name="tonos"/>
  <anchor x="1001" y="1676" name="top"/>
  <outline>
    <contour>
      <point x="1641" y="1539" type="line"/>
      <point x="1609" y="1350"/>
      <point x="1563" y="1239"/>
      <point x="1428" y="1239" type="curve"/>
      <point x="1399" y="1068" type="line"/>
      <point x="1671" y="1068"/>
      <point x="1810" y="1242"/>
      <point x="1859" y="1539" type="curve"/>
    </contour>
    <component base="O"/>
  </outline>
</glyph>
<glyph name="ohorn" format="2">
  <advance height="2479" width="1341"/>
  <unicode hex="01A1"/>
  <anchor x="547" y="0" name="bottom"/>
  <anchor x="713" y="0" name="ogonek"/>
  <anchor x="762" y="1303" name="top"/>
  <outline>
    <contour>
      <point x="1242" y="1169" type="line"/>
      <point x="1214" y="989"/>
      <point x="1156" y="884"/>
      <point x="995" y="884" type="curve"/>
      <point x="972" y="759" type="line"/>
      <point x="1246" y="759"/>
      <point x="1400" y="908"/>
      <point x="1443" y="1169" type="curve"/>
    </contour>
    <component base="o"/>
  </outline>
</glyph>
<glyph name="Oi" format="2">
  <advance height="2479" width="2015"/>
  <unicode hex="01A2"/>
  <outline>
    <contour>
      <point x="1447" y="966" type="line"/>
      <point x="1069" y="966" type="line"/>
      <point x="964" y="340" type="line"/>
      <point x="925" y="317"/>
      <point x="851" y="291"/>
      <point x="756" y="291" type="curve" smooth="yes"/>
      <point x="513" y="291"/>
      <point x="471" y="451"/>
      <point x="511" y="689" type="curve" smooth="yes"/>
      <point x="525" y="777" type="line"/>
      <point x="127" y="774" type="line"/>
      <point x="112" y="689" type="line" smooth="yes"/>
      <point x="38" y="241"/>
      <point x="252" y="-20"/>
      <point x="691" y="-20" type="curve" smooth="yes"/>
      <point x="988" y="-20"/>
      <point x="1220" y="96"/>
      <point x="1316" y="177" type="curve"/>
    </contour>
    <contour>
      <point x="1504" y="1312" type="line"/>
      <point x="1436" y="1396"/>
      <point x="1244" y="1510"/>
      <point x="944" y="1510" type="curve" smooth="yes"/>
      <point x="505" y="1510"/>
      <point x="205" y="1251"/>
      <point x="131" y="800" type="curve" smooth="yes"/>
      <point x="113" y="698" type="line"/>
      <point x="512" y="695" type="line"/>
      <point x="529" y="800" type="line" smooth="yes"/>
      <point x="571" y="1053"/>
      <point x="652" y="1199"/>
      <point x="909" y="1199" type="curve" smooth="yes"/>
      <point x="981" y="1199"/>
      <point x="1057" y="1187"/>
      <point x="1100" y="1152" type="curve"/>
      <point x="996" y="529" type="line"/>
      <point x="1376" y="535" type="line"/>
    </contour>
    <contour>
      <point x="2068" y="1489" type="line"/>
      <point x="1789" y="1489" type="line"/>
      <point x="1281" y="1265" type="line"/>
      <point x="1209" y="832" type="line"/>
      <point x="1617" y="1015" type="line"/>
      <point x="1380" y="-419" type="line"/>
      <point x="1753" y="-419" type="line"/>
    </contour>
  </outline>
</glyph>
<glyph name="oi" format="2">
  <advance height="2479" width="1653"/>
  <unicode hex="01A3"/>
  <outline>
    <contour>
      <point x="542" y="282" type="curve" smooth="yes"/>
      <point x="387" y="282"/>
      <point x="410" y="416"/>
      <point x="430" y="532" type="curve" smooth="yes"/>
      <point x="433" y="550" type="line" smooth="yes"/>
      <point x="459" y="710"/>
      <point x="490" y="832"/>
      <point x="627" y="832" type="curve"/>
      <point x="694" y="832"/>
      <point x="728" y="809"/>
      <point x="747" y="765" type="curve"/>
      <point x="726" y="637" type="line"/>
      <point x="1096" y="602" type="line"/>
      <point x="1132" y="823" type="line"/>
      <point x="1099" y="943"/>
      <point x="955" y="1132"/>
      <point x="691" y="1132" type="curve" smooth="yes"/>
      <point x="333" y="1132"/>
      <point x="118" y="899"/>
      <point x="60" y="550" type="curve" smooth="yes"/>
      <point x="57" y="532" type="line" smooth="yes"/>
      <point x="3" y="209"/>
      <point x="142" y="-20"/>
      <point x="501" y="-20" type="curve"/>
      <point x="794" y="-20"/>
      <point x="939" y="105"/>
      <point x="1036" y="247" type="curve"/>
      <point x="1109" y="687" type="line"/>
      <point x="734" y="687" type="line"/>
      <point x="675" y="329" type="line"/>
      <point x="646" y="297"/>
      <point x="600" y="282"/>
    </contour>
    <contour>
      <point x="1651" y="1117" type="line"/>
      <point x="1407" y="1117" type="line"/>
      <point x="995" y="963" type="line"/>
      <point x="943" y="646" type="line"/>
      <point x="1208" y="719" type="line"/>
      <point x="1020" y="-419" type="line"/>
      <point x="1398" y="-419" type="line"/>
    </contour>
  </outline>
</glyph>
<glyph name="phook" format="2">
  <advance height="2479" width="1327"/>
  <unicode hex="01A5"/>
  <anchor x="151" y="-401" name="bottom"/>
  <anchor x="1222" y="-477" name="bottom0315"/>
  <anchor x="186" y="-163" name="cross"/>
  <anchor x="855" y="1303" name="top"/>
  <outline>
    <contour>
      <point x="593" y="1117" type="line"/>
      <point x="599" y="1164"/>
      <point x="628" y="1187"/>
      <point x="698" y="1184" type="curve" smooth="yes"/>
      <point x="753" y="1181"/>
      <point x="806" y="1169"/>
      <point x="820" y="1164" type="curve"/>
      <point x="864" y="1411" type="line"/>
      <point x="826" y="1420"/>
      <point x="759" y="1434"/>
      <point x="669" y="1434" type="curve" smooth="yes"/>
      <point x="367" y="1434"/>
      <point x="233" y="1353"/>
      <point x="195" y="1117" type="curve"/>
    </contour>
    <component base="p"/>
  </outline>
</glyph>
<glyph name="Tonetwo" format="2">
  <advance height="2479" width="1364"/>
  <unicode hex="01A7"/>
  <anchor x="582" y="0" name="bottom"/>
  <anchor x="584" y="0" name="cedilla"/>
  <anchor x="865" y="1676" name="top"/>
  <outline>
    <contour>
      <point x="541" y="1024" type="line"/>
      <point x="566" y="1121"/>
      <point x="637" y="1178"/>
      <point x="768" y="1178" type="curve" smooth="yes"/>
      <point x="893" y="1178"/>
      <point x="939" y="1130"/>
      <point x="929" y="1065" type="curve" smooth="yes"/>
      <point x="921" y="993"/>
      <point x="851" y="952"/>
      <point x="705" y="922" type="curve" smooth="yes"/>
      <point x="579" y="896" type="line" smooth="yes"/>
      <point x="238" y="825"/>
      <point x="77" y="666"/>
      <point x="38" y="439" type="curve" smooth="yes"/>
      <point x="-10" y="145"/>
      <point x="190" y="-17"/>
      <point x="567" y="-17" type="curve" smooth="yes"/>
      <point x="955" y="-17"/>
      <point x="1236" y="150"/>
      <point x="1300" y="524" type="curve"/>
      <point x="916" y="524" type="line"/>
      <point x="886" y="387"/>
      <point x="782" y="314"/>
      <point x="628" y="314" type="curve" smooth="yes"/>
      <point x="498" y="314"/>
      <point x="440" y="366"/>
      <point x="451" y="439" type="curve" smooth="yes" name="hr00"/>
      <point x="463" y="507"/>
      <point x="527" y="548"/>
      <point x="698" y="585" type="curve" smooth="yes"/>
      <point x="852" y="617" type="line" smooth="yes"/>
      <point x="1126" y="673"/>
      <point x="1309" y="803"/>
      <point x="1347" y="1036" type="curve" smooth="yes"/>
      <point x="1395" y="1319"/>
      <point x="1177" y="1510"/>
      <point x="823" y="1510" type="curve" smooth="yes"/>
      <point x="462" y="1510"/>
      <point x="205" y="1316"/>
      <point x="154" y="1024" type="curve"/>
    </contour>
  </outline>
</glyph>
<glyph name="Thook" format="2">
  <advance height="2479" width="1469"/>
  <unicode hex="01AC"/>
  <outline>
    <contour>
      <point x="919" y="1489" type="line"/>
      <point x="692" y="1489" type="line" smooth="yes"/>
      <point x="372" y="1489"/>
      <point x="183" y="1324"/>
      <point x="137" y="1044" type="curve" smooth="yes"/>
      <point x="105" y="864" type="line"/>
      <point x="431" y="864" type="line"/>
      <point x="451" y="972" type="line" smooth="yes"/>
      <point x="465" y="1065"/>
      <point x="506" y="1164"/>
      <point x="637" y="1164" type="curve" smooth="yes"/>
      <point x="864" y="1164" type="line"/>
    </contour>
    <contour>
      <point x="1568" y="1489" type="line"/>
      <point x="710" y="1489" type="line"/>
      <point x="655" y="1164" type="line"/>
      <point x="666" y="1164" type="line"/>
      <point x="474" y="0" type="line"/>
      <point x="873" y="0" type="line"/>
      <point x="1065" y="1164" type="line"/>
      <point x="1513" y="1164" type="line"/>
    </contour>
  </outline>
</glyph>
<glyph name="thook" format="2">
  <advance height="2479" width="861"/>
  <unicode hex="01AD"/>
  <outline>
    <contour>
      <point x="499" y="-16" type="curve" smooth="yes"/>
      <point x="589" y="-12"/>
      <point x="659" y="7"/>
      <point x="700" y="19" type="curve"/>
      <point x="688" y="301" type="line"/>
      <point x="671" y="298"/>
      <point x="630" y="289"/>
      <point x="607" y="289" type="curve" smooth="yes"/>
      <point x="554" y="289"/>
      <point x="535" y="313"/>
      <point x="543" y="359" type="curve" smooth="yes"/>
      <point x="671" y="1126" type="line"/>
      <point x="269" y="1126" type="line"/>
      <point x="135" y="321" type="line"/>
      <point x="92" y="89"/>
      <point x="217" y="-30"/>
    </contour>
    <contour>
      <point x="76" y="826" type="line"/>
      <point x="812" y="826" type="line"/>
      <point x="861" y="1117" type="line"/>
      <point x="125" y="1117" type="line"/>
    </contour>
    <contour>
      <point x="234" y="913" type="line"/>
      <point x="636" y="913" type="line"/>
      <point x="671" y="1126" type="line" smooth="yes"/>
      <point x="681" y="1193"/>
      <point x="767" y="1207"/>
      <point x="836" y="1207" type="curve" smooth="yes"/>
      <point x="866" y="1207"/>
      <point x="895" y="1204"/>
      <point x="927" y="1201" type="curve"/>
      <point x="973" y="1498" type="line"/>
      <point x="930" y="1501"/>
      <point x="863" y="1510"/>
      <point x="778" y="1510" type="curve" smooth="yes"/>
      <point x="572" y="1510"/>
      <point x="327" y="1478"/>
      <point x="269" y="1126" type="curve" smooth="yes"/>
    </contour>
  </outline>
</glyph>
<glyph name="Tretroflexhook" format="2">
  <advance height="2479" width="1405"/>
  <unicode hex="01AE"/>
  <anchor x="608" y="0" name="bottom"/>
  <anchor x="602" y="0" name="cedilla"/>
  <anchor x="719" y="666" name="cross"/>
  <anchor x="1009" y="163" name="cyrtic"/>
  <anchor x="762" y="0" name="right"/>
  <anchor x="890" y="1676" name="top"/>
  <outline>
    <contour>
      <point x="809" y="0" type="line"/>
      <point x="410" y="0" type="line"/>
      <point x="404" y="-32" type="line" smooth="yes"/>
      <point x="346" y="-384"/>
      <point x="567" y="-419"/>
      <point x="780" y="-419" type="curve"/>
      <point x="954" y="-419" type="line"/>
      <point x="1004" y="-119" type="line"/>
      <point x="937" y="-119" type="line"/>
      <point x="867" y="-119"/>
      <point x="791" y="-102"/>
      <point x="803" y="-35" type="curve" smooth="yes"/>
    </contour>
    <component base="T"/>
  </outline>
</glyph>
<glyph name="Uhorn" format="2">
  <advance height="2479" width="1790"/>
  <unicode hex="01AF"/>
  <anchor x="646" y="9" name="bottom"/>
  <anchor x="866" y="10" name="ogonek"/>
  <anchor x="773" y="0" name="right"/>
  <anchor x="923" y="1676" name="top"/>
  <outline>
    <contour>
      <point x="1673" y="1519" type="line"/>
      <point x="1641" y="1327"/>
      <point x="1623" y="1201"/>
      <point x="1388" y="1201" type="curve"/>
      <point x="1356" y="1024" type="line"/>
      <point x="1719" y="1024"/>
      <point x="1841" y="1213"/>
      <point x="1894" y="1519" type="curve"/>
    </contour>
    <component base="U"/>
  </outline>
</glyph>
<glyph name="Upsilon-latin" format="2">
  <advance height="2479" width="1617"/>
  <unicode hex="01B1"/>
  <outline>
    <contour>
      <point x="90" y="666" type="curve" smooth="yes"/>
      <point x="23" y="265"/>
      <point x="282" y="-20"/>
      <point x="713" y="-20" type="curve" smooth="yes"/>
      <point x="1143" y="-20"/>
      <point x="1495" y="265"/>
      <point x="1562" y="666" type="curve" smooth="yes"/>
      <point x="1600" y="893"/>
      <point x="1527" y="1053"/>
      <point x="1388" y="1155" type="curve"/>
      <point x="1388" y="1164" type="line"/>
      <point x="1644" y="1164" type="line"/>
      <point x="1699" y="1489" type="line"/>
      <point x="1068" y="1489" type="line"/>
      <point x="1001" y="1082" type="line"/>
      <point x="1126" y="1030"/>
      <point x="1184" y="881"/>
      <point x="1155" y="707" type="curve" smooth="yes"/>
      <point x="1120" y="489"/>
      <point x="960" y="335"/>
      <point x="771" y="335" type="curve" smooth="yes"/>
      <point x="582" y="335"/>
      <point x="474" y="489"/>
      <point x="509" y="707" type="curve" smooth="yes"/>
      <point x="538" y="881"/>
      <point x="649" y="1030"/>
      <point x="791" y="1082" type="curve"/>
      <point x="858" y="1489" type="line"/>
      <point x="227" y="1489" type="line"/>
      <point x="172" y="1164" type="line"/>
      <point x="428" y="1164" type="line"/>
      <point x="425" y="1152" type="line"/>
      <point x="253" y="1053"/>
      <point x="128" y="893"/>
    </contour>
  </outline>
</glyph>
<glyph name="Vhook" format="2">
  <advance height="2479" width="1500"/>
  <unicode hex="01B2"/>
  <outline>
    <contour>
      <point x="626" y="-23" type="curve" smooth="yes"/>
      <point x="1068" y="-23"/>
      <point x="1366" y="328"/>
      <point x="1444" y="801" type="curve" smooth="yes"/>
      <point x="1519" y="1252"/>
      <point x="1348" y="1510"/>
      <point x="1073" y="1510" type="curve" smooth="yes"/>
      <point x="1009" y="1510"/>
      <point x="924" y="1495"/>
      <point x="825" y="1466" type="curve"/>
      <point x="821" y="1136" type="line"/>
      <point x="849" y="1146"/>
      <point x="883" y="1158"/>
      <point x="919" y="1159" type="curve" smooth="yes"/>
      <point x="1020" y="1159"/>
      <point x="1067" y="1040"/>
      <point x="1029" y="809" type="curve" smooth="yes"/>
      <point x="984" y="540"/>
      <point x="855" y="329"/>
      <point x="668" y="329" type="curve" smooth="yes"/>
      <point x="552" y="329"/>
      <point x="477" y="418"/>
      <point x="500" y="557" type="curve" smooth="yes"/>
      <point x="654" y="1489" type="line"/>
      <point x="249" y="1489" type="line"/>
      <point x="94" y="548" type="line" smooth="yes"/>
      <point x="38" y="208"/>
      <point x="268" y="-23"/>
    </contour>
  </outline>
</glyph>
<glyph name="Ezh" format="2">
  <advance height="2479" width="1411"/>
  <unicode hex="01B7"/>
  <anchor x="892" y="1676" name="top"/>
  <outline>
    <contour>
      <point x="-16" y="137" type="line"/>
      <point x="-66" y="-199"/>
      <point x="166" y="-442"/>
      <point x="537" y="-442" type="curve" smooth="yes"/>
      <point x="919" y="-442"/>
      <point x="1244" y="-164"/>
      <point x="1308" y="221" type="curve" smooth="yes"/>
      <point x="1359" y="534"/>
      <point x="1201" y="759"/>
      <point x="906" y="791" type="curve"/>
      <point x="909" y="806" type="line"/>
      <point x="1431" y="1199" type="line"/>
      <point x="1479" y="1489" type="line"/>
      <point x="289" y="1489" type="line"/>
      <point x="234" y="1158" type="line"/>
      <point x="938" y="1158" type="line"/>
      <point x="937" y="1146" type="line"/>
      <point x="524" y="832" type="line"/>
      <point x="477" y="553" type="line"/>
      <point x="672" y="553" type="line" smooth="yes"/>
      <point x="826" y="553"/>
      <point x="916" y="425"/>
      <point x="881" y="214" type="curve" smooth="yes"/>
      <point x="851" y="26"/>
      <point x="741" y="-108"/>
      <point x="586" y="-108" type="curve" smooth="yes"/>
      <point x="454" y="-108"/>
      <point x="373" y="-9"/>
      <point x="391" y="137" type="curve"/>
    </contour>
  </outline>
</glyph>
<glyph name="Tonefive" format="2">
  <advance height="2479" width="1356"/>
  <unicode hex="01BC"/>
  <outline>
    <contour>
      <point x="553" y="1489" type="line"/>
      <point x="230" y="1489" type="line"/>
      <point x="177" y="1167" type="line"/>
      <point x="500" y="1167" type="line"/>
    </contour>
    <component base="five" xOffset="58"/>
  </outline>
</glyph>
<glyph name="tonefive" format="2">
  <advance height="2479" width="1498"/>
  <unicode hex="01BD"/>
  <outline>
    <contour>
      <point x="634" y="454" type="line" name="hr00"/>
      <point x="657" y="463"/>
      <point x="703" y="465"/>
      <point x="774" y="465" type="curve" smooth="yes"/>
      <point x="866" y="465"/>
      <point x="919" y="431"/>
      <point x="911" y="378" type="curve" smooth="yes"/>
      <point x="898" y="317"/>
      <point x="846" y="285"/>
      <point x="751" y="285" type="curve" smooth="yes"/>
      <point x="654" y="285"/>
      <point x="599" y="297"/>
      <point x="596" y="346" type="curve"/>
      <point x="218" y="335" type="line"/>
      <point x="177" y="84"/>
      <point x="409" y="-17"/>
      <point x="701" y="-17" type="curve" smooth="yes"/>
      <point x="1067" y="-17"/>
      <point x="1244" y="134"/>
      <point x="1280" y="343" type="curve" smooth="yes"/>
      <point x="1314" y="564"/>
      <point x="1186" y="695"/>
      <point x="928" y="695" type="curve" smooth="yes"/>
      <point x="820" y="695"/>
      <point x="738" y="675"/>
      <point x="687" y="655" type="curve"/>
      <point x="739" y="797" type="line"/>
      <point x="1265" y="797" type="line"/>
      <point x="1312" y="1082" type="line"/>
      <point x="483" y="1082" type="line"/>
      <point x="291" y="465" type="line"/>
    </contour>
    <contour>
      <point x="599" y="1082" type="line"/>
      <point x="271" y="1082" type="line"/>
      <point x="224" y="797" type="line"/>
      <point x="553" y="797" type="line"/>
    </contour>
  </outline>
</glyph>
<glyph name="wynn" format="2">
  <advance height="2479" width="1274"/>
  <unicode hex="01BF"/>
  <outline>
    <contour>
      <point x="253" y="-260" type="line"/>
      <point x="776" y="-104"/>
      <point x="1161" y="239"/>
      <point x="1230" y="653" type="curve" smooth="yes"/>
      <point x="1278" y="939"/>
      <point x="1153" y="1132"/>
      <point x="903" y="1132" type="curve" smooth="yes"/>
      <point x="656" y="1132"/>
      <point x="512" y="945"/>
      <point x="446" y="570" type="curve"/>
      <point x="503" y="545" type="line"/>
      <point x="531" y="722"/>
      <point x="608" y="823"/>
      <point x="707" y="823" type="curve" smooth="yes"/>
      <point x="797" y="823"/>
      <point x="830" y="738"/>
      <point x="807" y="596" type="curve" smooth="yes"/>
      <point x="760" y="311"/>
      <point x="534" y="92"/>
      <point x="237" y="41" type="curve"/>
    </contour>
    <contour>
      <point x="-58" y="-419" type="line"/>
      <point x="343" y="-419" type="line"/>
      <point x="563" y="899" type="line"/>
      <point x="574" y="932" type="line"/>
      <point x="563" y="932" type="line"/>
      <point x="595" y="1117" type="line"/>
      <point x="196" y="1117" type="line"/>
    </contour>
  </outline>
</glyph>
<glyph name="Yogh" format="2">
  <advance height="2479" width="1455"/>
  <unicode hex="021C"/>
  <anchor x="879" y="1676" name="top"/>
  <outline>
    <contour>
      <point x="557" y="-442" type="curve" smooth="yes"/>
      <point x="945" y="-442"/>
      <point x="1286" y="-177"/>
      <point x="1348" y="199" type="curve" smooth="yes"/>
      <point x="1400" y="516"/>
      <point x="1233" y="708"/>
      <point x="861" y="749" type="curve"/>
      <point x="676" y="553" type="line"/>
      <point x="879" y="553"/>
      <point x="964" y="442"/>
      <point x="932" y="251" type="curve" smooth="yes"/>
      <point x="895" y="33"/>
      <point x="748" y="-108"/>
      <point x="575" y="-108" type="curve" smooth="yes"/>
      <point x="441" y="-108"/>
      <point x="368" y="-9"/>
      <point x="386" y="137" type="curve"/>
      <point x="-16" y="137" type="line"/>
      <point x="-65" y="-199"/>
      <point x="174" y="-442"/>
    </contour>
    <contour>
      <point x="330" y="316" type="line"/>
      <point x="1009" y="431"/>
      <point x="1366" y="679"/>
      <point x="1423" y="1022" type="curve" smooth="yes"/>
      <point x="1473" y="1329"/>
      <point x="1271" y="1510"/>
      <point x="871" y="1510" type="curve" smooth="yes"/>
      <point x="473" y="1510"/>
      <point x="228" y="1327"/>
      <point x="175" y="1007" type="curve"/>
      <point x="563" y="1007" type="line"/>
      <point x="578" y="1097"/>
      <point x="682" y="1158"/>
      <point x="834" y="1158" type="curve" smooth="yes"/>
      <point x="974" y="1158"/>
      <point x="1044" y="1103"/>
      <point x="1028" y="1007" type="curve" smooth="yes"/>
      <point x="999" y="833"/>
      <point x="773" y="716"/>
      <point x="364" y="647" type="curve"/>
    </contour>
  </outline>
</glyph>
<glyph name="OU" format="2">
  <advance height="2479" width="1428"/>
  <unicode hex="0222"/>
  <outline>
    <contour>
      <point x="771" y="954" type="line"/>
      <point x="399" y="954"/>
      <point x="156" y="782"/>
      <point x="108" y="483" type="curve" smooth="yes"/>
      <point x="58" y="178"/>
      <point x="255" y="-20"/>
      <point x="609" y="-20" type="curve" smooth="yes"/>
      <point x="630" y="-20" type="line" smooth="yes"/>
      <point x="981" y="-20"/>
      <point x="1241" y="178"/>
      <point x="1293" y="486" type="curve" smooth="yes"/>
      <point x="1343" y="782"/>
      <point x="1157" y="954"/>
      <point x="791" y="954" type="curve" smooth="yes"/>
    </contour>
    <contour>
      <point x="746" y="684" type="line"/>
      <point x="857" y="684"/>
      <point x="913" y="608"/>
      <point x="895" y="486" type="curve" smooth="yes"/>
      <point x="875" y="360"/>
      <point x="791" y="285"/>
      <point x="681" y="285" type="curve" smooth="yes"/>
      <point x="660" y="285" type="line" smooth="yes"/>
      <point x="547" y="285"/>
      <point x="486" y="364"/>
      <point x="506" y="483" type="curve" smooth="yes"/>
      <point x="527" y="605"/>
      <point x="612" y="684"/>
      <point x="726" y="684" type="curve" smooth="yes"/>
    </contour>
    <contour>
      <point x="775" y="998" type="line"/>
      <point x="644" y="998"/>
      <point x="596" y="1018"/>
      <point x="611" y="1114" type="curve" smooth="yes"/>
      <point x="620" y="1170"/>
      <point x="642" y="1198"/>
      <point x="700" y="1207" type="curve"/>
      <point x="749" y="1510" type="line"/>
      <point x="447" y="1516"/>
      <point x="253" y="1365"/>
      <point x="212" y="1114" type="curve" smooth="yes"/>
      <point x="171" y="859"/>
      <point x="357" y="730"/>
      <point x="730" y="730" type="curve" smooth="yes"/>
      <point x="751" y="730" type="line" smooth="yes"/>
      <point x="1124" y="730"/>
      <point x="1361" y="861"/>
      <point x="1402" y="1114" type="curve" smooth="yes"/>
      <point x="1443" y="1363"/>
      <point x="1296" y="1516"/>
      <point x="993" y="1510" type="curve"/>
      <point x="944" y="1207" type="line"/>
      <point x="996" y="1197"/>
      <point x="1012" y="1169"/>
      <point x="1004" y="1114" type="curve" smooth="yes"/>
      <point x="990" y="1021"/>
      <point x="928" y="998"/>
      <point x="796" y="998" type="curve" smooth="yes"/>
    </contour>
  </outline>
</glyph>
<glyph name="ou" format="2">
  <advance height="2479" width="1425"/>
  <unicode hex="0223"/>
  <outline>
    <contour>
      <point x="765" y="928" type="line" name="hr00"/>
      <point x="428" y="928"/>
      <point x="172" y="800"/>
      <point x="116" y="474" type="curve" smooth="yes"/>
      <point x="64" y="157"/>
      <point x="271" y="-20"/>
      <point x="608" y="-20" type="curve" smooth="yes"/>
      <point x="628" y="-20" type="line" smooth="yes"/>
      <point x="963" y="-20"/>
      <point x="1228" y="157"/>
      <point x="1280" y="474" type="curve" smooth="yes"/>
      <point x="1335" y="800"/>
      <point x="1117" y="928"/>
      <point x="785" y="928" type="curve" smooth="yes"/>
    </contour>
    <contour>
      <point x="742" y="666" type="line"/>
      <point x="876" y="666"/>
      <point x="919" y="582"/>
      <point x="902" y="474" type="curve" smooth="yes"/>
      <point x="884" y="367"/>
      <point x="812" y="282"/>
      <point x="678" y="282" type="curve" smooth="yes"/>
      <point x="657" y="282" type="line" smooth="yes"/>
      <point x="529" y="282"/>
      <point x="477" y="367"/>
      <point x="495" y="474" type="curve" smooth="yes"/>
      <point x="512" y="582"/>
      <point x="593" y="666"/>
      <point x="721" y="666" type="curve" smooth="yes"/>
    </contour>
    <contour>
      <point x="788" y="966" type="curve" smooth="yes"/>
      <point x="771" y="966" type="line" smooth="yes"/>
      <point x="628" y="966"/>
      <point x="585" y="1018"/>
      <point x="605" y="1135" type="curve" smooth="yes"/>
      <point x="617" y="1216"/>
      <point x="666" y="1257"/>
      <point x="707" y="1265" type="curve"/>
      <point x="756" y="1556" type="line"/>
      <point x="477" y="1559"/>
      <point x="273" y="1420"/>
      <point x="227" y="1143" type="curve" smooth="yes"/>
      <point x="175" y="823"/>
      <point x="390" y="707"/>
      <point x="727" y="707" type="curve" smooth="yes"/>
      <point x="745" y="707" type="line" smooth="yes"/>
      <point x="1085" y="707"/>
      <point x="1338" y="823"/>
      <point x="1391" y="1143" type="curve" smooth="yes"/>
      <point x="1437" y="1425"/>
      <point x="1277" y="1559"/>
      <point x="1001" y="1556" type="curve"/>
      <point x="951" y="1265" type="line"/>
      <point x="992" y="1257"/>
      <point x="1030" y="1216"/>
      <point x="1018" y="1135" type="curve" smooth="yes"/>
      <point x="998" y="1021"/>
      <point x="934" y="966"/>
    </contour>
  </outline>
</glyph>
<glyph name="zhook" format="2">
  <advance height="2479" width="1199"/>
  <unicode hex="0225"/>
  <outline>
    <contour>
      <point x="672" y="-297" type="line"/>
      <point x="998" y="-297" type="line"/>
      <point x="1024" y="-143" type="line" smooth="yes"/>
      <point x="1073" y="143"/>
      <point x="928" y="303"/>
      <point x="614" y="303" type="curve" smooth="yes"/>
      <point x="559" y="303" type="line"/>
      <point x="1132" y="908" type="line"/>
      <point x="1167" y="1117" type="line"/>
      <point x="236" y="1117" type="line"/>
      <point x="186" y="815" type="line"/>
      <point x="625" y="815" type="line"/>
      <point x="52" y="207" type="line"/>
      <point x="17" y="0" type="line"/>
      <point x="564" y="0" type="line" smooth="yes"/>
      <point x="704" y="0"/>
      <point x="704" y="-119"/>
      <point x="687" y="-209" type="curve" smooth="yes"/>
    </contour>
  </outline>
</glyph>
<glyph name="ncurl" format="2">
  <advance height="2479" width="1696"/>
  <unicode hex="0235"/>
  <anchor x="573" y="0" name="bottom"/>
  <anchor x="788" y="1303" name="top"/>
  <outline>
    <contour>
      <point x="751" y="93" type="line"/>
      <point x="736" y="0" type="line" smooth="yes"/>
      <point x="693" y="-273"/>
      <point x="890" y="-352"/>
      <point x="1088" y="-352" type="curve" smooth="yes"/>
      <point x="1347" y="-352"/>
      <point x="1527" y="-215"/>
      <point x="1559" y="-26" type="curve" smooth="yes"/>
      <point x="1591" y="159"/>
      <point x="1457" y="294"/>
      <point x="1260" y="294" type="curve" smooth="yes"/>
      <point x="1041" y="294"/>
      <point x="873" y="308"/>
      <point x="596" y="32" type="curve" smooth="yes"/>
      <point x="454" y="-111" type="line"/>
      <point x="611" y="-265" type="line"/>
      <point x="788" y="-87" type="line" smooth="yes"/>
      <point x="931" y="55"/>
      <point x="1149" y="79"/>
      <point x="1204" y="76" type="curve" smooth="yes"/>
      <point x="1242" y="73"/>
      <point x="1274" y="47"/>
      <point x="1265" y="0" type="curve" smooth="yes"/>
      <point x="1257" y="-46"/>
      <point x="1231" y="-76"/>
      <point x="1193" y="-76" type="curve" smooth="yes"/>
      <point x="1152" y="-76"/>
      <point x="1130" y="-46"/>
      <point x="1137" y="0" type="curve" smooth="yes"/>
      <point x="1152" y="93" type="line"/>
    </contour>
    <component base="n"/>
  </outline>
</glyph>
<glyph name="jdotless" format="2">
  <advance height="2479" width="605"/>
  <unicode hex="0237"/>
  <anchor x="355" y="0" name="_right"/>
  <anchor x="87" y="-399" name="bottom"/>
  <anchor x="323" y="687" name="cross"/>
  <anchor x="425" y="1303" name="top"/>
  <outline>
    <contour>
      <point x="195" y="1117" type="line"/>
      <point x="4" y="-29" type="line" smooth="yes"/>
      <point x="-7" y="-93"/>
      <point x="-39" y="-122"/>
      <point x="-135" y="-122" type="curve" smooth="yes"/>
      <point x="-150" y="-122"/>
      <point x="-165" y="-121"/>
      <point x="-182" y="-119" type="curve"/>
      <point x="-231" y="-416" type="line"/>
      <point x="-202" y="-418"/>
      <point x="-179" y="-419"/>
      <point x="-154" y="-419" type="curve" smooth="yes"/>
      <point x="141" y="-419"/>
      <point x="353" y="-331"/>
      <point x="403" y="-38" type="curve" smooth="yes"/>
      <point x="596" y="1117" type="line"/>
    </contour>
  </outline>
</glyph>
<glyph name="dbdigraph" format="2">
  <advance height="2479" width="2051"/>
  <unicode hex="0238"/>
  <outline>
    <contour>
      <point x="412" y="-15" type="curve" smooth="yes"/>
      <point x="568" y="-15"/>
      <point x="689" y="70"/>
      <point x="755" y="183" type="curve"/>
      <point x="764" y="183" type="line"/>
      <point x="733" y="0" type="line"/>
      <point x="1132" y="0" type="line"/>
      <point x="1162" y="183" type="line"/>
      <point x="1172" y="183" type="line"/>
      <point x="1199" y="70"/>
      <point x="1292" y="-15"/>
      <point x="1449" y="-15" type="curve" smooth="yes"/>
      <point x="1687" y="-15"/>
      <point x="1920" y="172"/>
      <point x="1984" y="559" type="curve" smooth="yes"/>
      <point x="2051" y="963"/>
      <point x="1865" y="1132"/>
      <point x="1644" y="1132" type="curve" smooth="yes"/>
      <point x="1478" y="1132"/>
      <point x="1356" y="1036"/>
      <point x="1295" y="922" type="curve"/>
      <point x="1287" y="922" type="line"/>
      <point x="1380" y="1489" type="line"/>
      <point x="979" y="1489" type="line"/>
      <point x="884" y="922" type="line"/>
      <point x="877" y="922" type="line"/>
      <point x="852" y="1036"/>
      <point x="764" y="1132"/>
      <point x="598" y="1132" type="curve" smooth="yes"/>
      <point x="377" y="1132"/>
      <point x="134" y="963"/>
      <point x="67" y="559" type="curve" smooth="yes"/>
      <point x="3" y="172"/>
      <point x="172" y="-15"/>
    </contour>
    <contour>
      <point x="611" y="294" type="curve" smooth="yes"/>
      <point x="500" y="294"/>
      <point x="452" y="393"/>
      <point x="480" y="559" type="curve" smooth="yes"/>
      <point x="507" y="724"/>
      <point x="588" y="823"/>
      <point x="698" y="823" type="curve" smooth="yes"/>
      <point x="809" y="823"/>
      <point x="859" y="724"/>
      <point x="832" y="559" type="curve" smooth="yes"/>
      <point x="805" y="396"/>
      <point x="721" y="294"/>
    </contour>
    <contour>
      <point x="1353" y="294" type="curve" smooth="yes"/>
      <point x="1242" y="294"/>
      <point x="1193" y="396"/>
      <point x="1219" y="559" type="curve" smooth="yes"/>
      <point x="1245" y="724"/>
      <point x="1329" y="823"/>
      <point x="1440" y="823" type="curve" smooth="yes"/>
      <point x="1551" y="823"/>
      <point x="1597" y="724"/>
      <point x="1571" y="559" type="curve" smooth="yes"/>
      <point x="1545" y="393"/>
      <point x="1463" y="294"/>
    </contour>
  </outline>
</glyph>
<glyph name="qpdigraph" format="2">
  <advance height="2479" width="2037"/>
  <unicode hex="0239"/>
  <outline>
    <contour>
      <point x="655" y="-419" type="line"/>
      <point x="1057" y="-419" type="line"/>
      <point x="1156" y="183" type="line"/>
      <point x="1166" y="183" type="line"/>
      <point x="1191" y="70"/>
      <point x="1284" y="-15"/>
      <point x="1442" y="-15" type="curve" smooth="yes"/>
      <point x="1679" y="-15"/>
      <point x="1912" y="172"/>
      <point x="1977" y="559" type="curve" smooth="yes"/>
      <point x="2043" y="963"/>
      <point x="1857" y="1132"/>
      <point x="1637" y="1132" type="curve" smooth="yes"/>
      <point x="1470" y="1132"/>
      <point x="1348" y="1036"/>
      <point x="1288" y="922" type="curve"/>
      <point x="1279" y="922" type="line"/>
      <point x="1311" y="1117" type="line"/>
      <point x="913" y="1117" type="line"/>
      <point x="879" y="922" type="line"/>
      <point x="871" y="922" type="line"/>
      <point x="847" y="1036"/>
      <point x="757" y="1132"/>
      <point x="591" y="1132" type="curve" smooth="yes"/>
      <point x="370" y="1132"/>
      <point x="127" y="963"/>
      <point x="60" y="559" type="curve" smooth="yes"/>
      <point x="-4" y="172"/>
      <point x="167" y="-15"/>
      <point x="405" y="-15" type="curve" smooth="yes"/>
      <point x="562" y="-15"/>
      <point x="684" y="70"/>
      <point x="748" y="183" type="curve"/>
      <point x="754" y="183" type="line"/>
    </contour>
    <contour>
      <point x="604" y="294" type="curve" smooth="yes"/>
      <point x="494" y="294"/>
      <point x="446" y="393"/>
      <point x="473" y="559" type="curve" smooth="yes"/>
      <point x="501" y="724"/>
      <point x="581" y="823"/>
      <point x="692" y="823" type="curve" smooth="yes"/>
      <point x="802" y="823"/>
      <point x="853" y="724"/>
      <point x="825" y="559" type="curve"/>
      <point x="799" y="396"/>
      <point x="715" y="294"/>
    </contour>
    <contour>
      <point x="1346" y="294" type="curve" smooth="yes"/>
      <point x="1234" y="294"/>
      <point x="1185" y="396"/>
      <point x="1212" y="559" type="curve" smooth="yes"/>
      <point x="1237" y="724"/>
      <point x="1321" y="823"/>
      <point x="1433" y="823" type="curve" smooth="yes"/>
      <point x="1543" y="823"/>
      <point x="1589" y="724"/>
      <point x="1564" y="559" type="curve" smooth="yes"/>
      <point x="1534" y="393"/>
      <point x="1455" y="294"/>
    </contour>
  </outline>
</glyph>
<glyph name="cstroke" format="2">
  <advance height="2479" width="1242"/>
  <unicode hex="023C"/>
  <anchor x="550" y="0" name="cedilla"/>
  <anchor x="765" y="1303" name="top"/>
  <outline>
    <contour>
      <point x="1178" y="1489" type="line"/>
      <point x="972" y="1489" type="line"/>
      <point x="73" y="-419" type="line"/>
      <point x="276" y="-419" type="line"/>
    </contour>
    <component base="c"/>
  </outline>
</glyph>
<glyph name="zswashtail" format="2">
  <advance height="2479" width="1433"/>
  <unicode hex="0240"/>
  <outline>
    <contour>
      <point x="412" y="303" type="line"/>
      <point x="362" y="0" type="line"/>
      <point x="409" y="0" type="line" smooth="yes"/>
      <point x="676" y="0"/>
      <point x="612" y="-419"/>
      <point x="970" y="-419" type="curve" smooth="yes"/>
      <point x="1121" y="-419"/>
      <point x="1247" y="-343"/>
      <point x="1340" y="-268" type="curve"/>
      <point x="1258" y="-9" type="line"/>
      <point x="1220" y="-35"/>
      <point x="1133" y="-99"/>
      <point x="1063" y="-99" type="curve" smooth="yes"/>
      <point x="863" y="-99"/>
      <point x="924" y="303"/>
      <point x="569" y="303" type="curve" smooth="yes"/>
    </contour>
    <contour>
      <point x="563" y="303" type="line"/>
      <point x="1136" y="908" type="line"/>
      <point x="1171" y="1117" type="line"/>
      <point x="240" y="1117" type="line"/>
      <point x="191" y="815" type="line"/>
      <point x="630" y="815" type="line"/>
      <point x="57" y="207" type="line"/>
      <point x="22" y="0" type="line"/>
      <point x="513" y="0" type="line"/>
    </contour>
  </outline>
</glyph>
<glyph name="Glottalstop" format="2">
  <advance height="2479" width="1219"/>
  <unicode hex="0241"/>
  <outline>
    <contour>
      <point x="558" y="305" type="line"/>
      <point x="907" y="305"/>
      <point x="1167" y="554"/>
      <point x="1224" y="900" type="curve" smooth="yes"/>
      <point x="1287" y="1273"/>
      <point x="1088" y="1524"/>
      <point x="719" y="1524" type="curve" smooth="yes"/>
      <point x="410" y="1524"/>
      <point x="184" y="1335"/>
      <point x="133" y="1044" type="curve"/>
      <point x="546" y="1044" type="line"/>
      <point x="577" y="1161"/>
      <point x="637" y="1199"/>
      <point x="724" y="1199" type="curve" smooth="yes"/>
      <point x="831" y="1199"/>
      <point x="845" y="1120"/>
      <point x="821" y="977" type="curve" smooth="yes"/>
      <point x="785" y="762"/>
      <point x="690" y="631"/>
      <point x="585" y="631" type="curve"/>
    </contour>
    <contour>
      <point x="344" y="0" type="line"/>
      <point x="748" y="0" type="line"/>
      <point x="853" y="631" type="line"/>
      <point x="449" y="631" type="line"/>
    </contour>
  </outline>
</glyph>
<glyph name="Ubar" format="2">
  <advance height="2479" width="1583"/>
  <unicode hex="0244"/>
  <anchor x="707" y="9" name="bottom"/>
  <anchor x="927" y="10" name="ogonek"/>
  <anchor x="834" y="0" name="right"/>
  <anchor x="984" y="1676" name="top"/>
  <outline>
    <contour>
      <point x="1641" y="835" type="line"/>
      <point x="35" y="835" type="line"/>
      <point x="-3" y="614" type="line"/>
      <point x="1603" y="614" type="line"/>
    </contour>
    <component base="U" xOffset="61"/>
  </outline>
</glyph>
<glyph name="Vturned" format="2">
  <advance height="2479" width="1629"/>
  <unicode hex="0245"/>
  <outline>
    <contour>
      <point x="-47" y="0" type="line"/>
      <point x="416" y="0" type="line"/>
      <point x="895" y="1050" type="line"/>
      <point x="906" y="1050" type="line"/>
      <point x="1039" y="0" type="line"/>
      <point x="1489" y="0" type="line"/>
      <point x="1244" y="1489" type="line"/>
      <point x="691" y="1489" type="line"/>
    </contour>
  </outline>
</glyph>
<glyph name="Qhooktail" format="2">
  <advance height="2479" width="1816"/>
  <unicode hex="024A"/>
  <outline>
    <contour>
      <point x="1682" y="1489" type="line"/>
      <point x="1280" y="1489" type="line"/>
      <point x="1245" y="1280" type="line"/>
      <point x="1234" y="1280" type="line"/>
      <point x="1181" y="1401"/>
      <point x="1072" y="1510"/>
      <point x="870" y="1510" type="curve" smooth="yes"/>
      <point x="522" y="1510"/>
      <point x="194" y="1169"/>
      <point x="122" y="745" type="curve" smooth="yes"/>
      <point x="53" y="323"/>
      <point x="260" y="-20"/>
      <point x="617" y="-20" type="curve" smooth="yes"/>
      <point x="816" y="-20"/>
      <point x="965" y="87"/>
      <point x="1056" y="209" type="curve"/>
      <point x="1068" y="209" type="line"/>
      <point x="1027" y="-35" type="line" smooth="yes"/>
      <point x="973" y="-364"/>
      <point x="1162" y="-419"/>
      <point x="1405" y="-419" type="curve" smooth="yes"/>
      <point x="1499" y="-419"/>
      <point x="1564" y="-410"/>
      <point x="1609" y="-407" type="curve"/>
      <point x="1658" y="-111" type="line"/>
      <point x="1625" y="-113"/>
      <point x="1595" y="-116"/>
      <point x="1565" y="-116" type="curve" smooth="yes"/>
      <point x="1493" y="-116"/>
      <point x="1418" y="-102"/>
      <point x="1429" y="-35" type="curve" smooth="yes"/>
    </contour>
    <contour>
      <point x="780" y="332" type="curve" smooth="yes"/>
      <point x="578" y="332"/>
      <point x="495" y="477"/>
      <point x="538" y="745" type="curve" smooth="yes"/>
      <point x="584" y="1012"/>
      <point x="715" y="1158"/>
      <point x="917" y="1158" type="curve" smooth="yes"/>
      <point x="1117" y="1158"/>
      <point x="1200" y="1012"/>
      <point x="1155" y="745" type="curve" smooth="yes"/>
      <point x="1112" y="477"/>
      <point x="980" y="332"/>
    </contour>
  </outline>
</glyph>
<glyph name="Rstroke" format="2">
  <advance height="2479" width="1420"/>
  <unicode hex="024C"/>
  <anchor x="646" y="0" name="bottom"/>
  <anchor x="902" y="1676" name="top"/>
  <outline>
    <contour>
      <point x="378" y="527" type="line"/>
      <point x="425" y="812" type="line"/>
      <point x="55" y="812" type="line"/>
      <point x="9" y="527" type="line"/>
    </contour>
    <component base="R" xOffset="41"/>
  </outline>
</glyph>
<glyph name="bhook" format="2">
  <advance height="2479" width="1321"/>
  <unicode hex="0253"/>
  <outline>
    <contour>
      <point x="719" y="-15" type="curve" smooth="yes"/>
      <point x="957" y="-15"/>
      <point x="1190" y="172"/>
      <point x="1254" y="559" type="curve" smooth="yes"/>
      <point x="1321" y="963"/>
      <point x="1135" y="1132"/>
      <point x="913" y="1132" type="curve" smooth="yes"/>
      <point x="748" y="1132"/>
      <point x="625" y="1036"/>
      <point x="564" y="922" type="curve"/>
      <point x="559" y="922" type="line"/>
      <point x="591" y="1126" type="line" smooth="yes"/>
      <point x="602" y="1193"/>
      <point x="701" y="1207"/>
      <point x="774" y="1207" type="curve" smooth="yes"/>
      <point x="803" y="1207"/>
      <point x="829" y="1204"/>
      <point x="861" y="1201" type="curve"/>
      <point x="908" y="1498" type="line"/>
      <point x="864" y="1501"/>
      <point x="809" y="1510"/>
      <point x="713" y="1510" type="curve" smooth="yes"/>
      <point x="503" y="1510"/>
      <point x="250" y="1487"/>
      <point x="189" y="1126" type="curve" smooth="yes"/>
      <point x="3" y="0" type="line"/>
      <point x="401" y="0" type="line"/>
      <point x="433" y="183" type="line"/>
      <point x="442" y="183" type="line"/>
      <point x="468" y="70"/>
      <point x="561" y="-15"/>
    </contour>
    <contour>
      <point x="623" y="294" type="curve" smooth="yes"/>
      <point x="512" y="294"/>
      <point x="463" y="396"/>
      <point x="489" y="559" type="curve" smooth="yes"/>
      <point x="515" y="724"/>
      <point x="599" y="823"/>
      <point x="710" y="823" type="curve" smooth="yes"/>
      <point x="820" y="823"/>
      <point x="867" y="724"/>
      <point x="841" y="559" type="curve" smooth="yes"/>
      <point x="815" y="393"/>
      <point x="733" y="294"/>
    </contour>
  </outline>
</glyph>
<glyph name="ccurl" format="2">
  <advance height="2479" width="1254"/>
  <unicode hex="0255"/>
  <outline>
    <contour>
      <point x="556" y="-20" type="curve"/>
      <point x="605" y="273" type="line"/>
      <point x="500" y="273"/>
      <point x="448" y="375"/>
      <point x="477" y="559" type="curve" smooth="yes"/>
      <point x="506" y="742"/>
      <point x="593" y="832"/>
      <point x="698" y="832" type="curve" smooth="yes"/>
      <point x="788" y="832"/>
      <point x="835" y="768"/>
      <point x="826" y="652" type="curve"/>
      <point x="1199" y="652" type="line"/>
      <point x="1245" y="943"/>
      <point x="1071" y="1132"/>
      <point x="742" y="1132" type="curve" smooth="yes"/>
      <point x="378" y="1132"/>
      <point x="122" y="899"/>
      <point x="67" y="556" type="curve" smooth="yes"/>
      <point x="9" y="201"/>
      <point x="195" y="-20"/>
    </contour>
    <contour>
      <point x="314" y="-140" type="line"/>
      <point x="672" y="305"/>
      <point x="730" y="364"/>
      <point x="785" y="364" type="curve" smooth="yes"/>
      <point x="806" y="364"/>
      <point x="817" y="349"/>
      <point x="812" y="329" type="curve" smooth="yes"/>
      <point x="803" y="297"/>
      <point x="742" y="273"/>
      <point x="605" y="273" type="curve"/>
      <point x="556" y="-20" type="line"/>
      <point x="937" y="-20"/>
      <point x="1126" y="154"/>
      <point x="1155" y="340" type="curve" smooth="yes"/>
      <point x="1181" y="515"/>
      <point x="1053" y="605"/>
      <point x="861" y="605" type="curve" smooth="yes"/>
      <point x="593" y="605"/>
      <point x="433" y="431"/>
      <point x="90" y="15" type="curve"/>
    </contour>
  </outline>
</glyph>
<glyph name="ereversed" format="2">
  <advance height="2479" width="1246"/>
  <unicode hex="0258"/>
  <anchor x="529" y="0" name="bottom"/>
  <anchor x="524" y="0" name="cedilla"/>
  <anchor x="204" y="49" name="ogonek"/>
  <anchor x="746" y="1303" name="top"/>
  <outline>
    <contour>
      <point x="532" y="-20" type="curve"/>
      <point x="880" y="-20"/>
      <point x="1121" y="181"/>
      <point x="1180" y="529" type="curve"/>
      <point x="1239" y="889"/>
      <point x="1047" y="1132"/>
      <point x="691" y="1132" type="curve" smooth="yes"/>
      <point x="364" y="1132"/>
      <point x="122" y="927"/>
      <point x="63" y="572" type="curve" smooth="yes"/>
      <point x="45" y="465" type="line"/>
      <point x="1043" y="465" type="line"/>
      <point x="1081" y="687" type="line"/>
      <point x="449" y="687" type="line"/>
      <point x="468" y="783"/>
      <point x="567" y="849"/>
      <point x="676" y="849" type="curve" smooth="yes"/>
      <point x="764" y="849"/>
      <point x="825" y="796"/>
      <point x="812" y="700" type="curve"/>
      <point x="772" y="461" type="line"/>
      <point x="754" y="353"/>
      <point x="659" y="262"/>
      <point x="529" y="262" type="curve" smooth="yes"/>
      <point x="457" y="262"/>
      <point x="402" y="297"/>
      <point x="390" y="362" type="curve"/>
      <point x="32" y="362" type="line"/>
      <point x="31" y="129"/>
      <point x="212" y="-20"/>
    </contour>
  </outline>
</glyph>
<glyph name="eopenreversedhook" format="2">
  <advance height="2479" width="1792"/>
  <unicode hex="025D"/>
  <anchor x="718" y="1303" name="top"/>
  <outline>
    <contour>
      <point x="1004" y="646" type="line"/>
      <point x="1169" y="689" type="line"/>
      <point x="1185" y="497"/>
      <point x="1200" y="349"/>
      <point x="1417" y="349" type="curve" smooth="yes"/>
      <point x="1476" y="349"/>
      <point x="1549" y="364"/>
      <point x="1609" y="393" type="curve"/>
      <point x="1597" y="628" type="line"/>
      <point x="1575" y="625"/>
      <point x="1558" y="628"/>
      <point x="1539" y="628" type="curve" smooth="yes"/>
      <point x="1418" y="628"/>
      <point x="1444" y="751"/>
      <point x="1449" y="972" type="curve"/>
      <point x="1044" y="887" type="line"/>
    </contour>
    <component base="eopenreversed" xOffset="6"/>
  </outline>
</glyph>
<glyph name="eopenreversedclosed" format="2">
  <advance height="2479" width="1255"/>
  <unicode hex="025E"/>
  <outline>
    <contour>
      <point x="529" y="-20" type="curve" smooth="yes"/>
      <point x="831" y="-20"/>
      <point x="1076" y="102"/>
      <point x="1110" y="305" type="curve" smooth="yes"/>
      <point x="1140" y="489"/>
      <point x="1011" y="588"/>
      <point x="740" y="588" type="curve"/>
      <point x="630" y="588" type="line"/>
      <point x="608" y="451" type="line"/>
      <point x="620" y="451" type="line" smooth="yes"/>
      <point x="700" y="451"/>
      <point x="751" y="428"/>
      <point x="739" y="349" type="curve" smooth="yes"/>
      <point x="731" y="305"/>
      <point x="700" y="256"/>
      <point x="605" y="256" type="curve" smooth="yes"/>
      <point x="502" y="256"/>
      <point x="439" y="335"/>
      <point x="479" y="570" type="curve"/>
      <point x="103" y="570" type="line"/>
      <point x="33" y="148"/>
      <point x="287" y="-20"/>
    </contour>
    <contour>
      <point x="735" y="547" type="line" smooth="yes"/>
      <point x="972" y="547"/>
      <point x="1149" y="666"/>
      <point x="1174" y="815" type="curve" smooth="yes"/>
      <point x="1207" y="1021"/>
      <point x="1022" y="1132"/>
      <point x="720" y="1132" type="curve" smooth="yes"/>
      <point x="460" y="1132"/>
      <point x="170" y="975"/>
      <point x="103" y="570" type="curve"/>
      <point x="479" y="570" type="line"/>
      <point x="520" y="823"/>
      <point x="633" y="858"/>
      <point x="701" y="858" type="curve" smooth="yes"/>
      <point x="788" y="858"/>
      <point x="795" y="812"/>
      <point x="790" y="774" type="curve" smooth="yes"/>
      <point x="780" y="724"/>
      <point x="739" y="687"/>
      <point x="659" y="687" type="curve" smooth="yes"/>
      <point x="647" y="687" type="line"/>
      <point x="624" y="547" type="line"/>
    </contour>
  </outline>
</glyph>
<glyph name="ghook" format="2">
  <advance height="2479" width="1379"/>
  <unicode hex="0260"/>
  <anchor x="486" y="-416" name="bottom"/>
  <anchor x="1030" y="567" name="cross"/>
  <anchor x="768" y="1303" name="top"/>
  <outline>
    <contour>
      <point x="1313" y="1044" type="line"/>
      <point x="1328" y="1126" type="line" smooth="yes"/>
      <point x="1340" y="1193"/>
      <point x="1436" y="1207"/>
      <point x="1508" y="1207" type="curve" smooth="yes"/>
      <point x="1538" y="1207"/>
      <point x="1532" y="1207"/>
      <point x="1599" y="1201" type="curve"/>
      <point x="1645" y="1498" type="line"/>
      <point x="1599" y="1501"/>
      <point x="1547" y="1510"/>
      <point x="1447" y="1510" type="curve" smooth="yes"/>
      <point x="1239" y="1510"/>
      <point x="977" y="1479"/>
      <point x="927" y="1126" type="curve" smooth="yes"/>
      <point x="915" y="1044" type="line"/>
    </contour>
    <component base="g" xOffset="6"/>
  </outline>
</glyph>
<glyph name="Gsmall" format="2">
  <advance height="2479" width="1180"/>
  <unicode hex="0262"/>
  <outline>
    <contour>
      <point x="739" y="746" type="curve"/>
      <point x="1135" y="746" type="line"/>
      <point x="1148" y="979"/>
      <point x="969" y="1132"/>
      <point x="687" y="1132" type="curve" smooth="yes"/>
      <point x="364" y="1132"/>
      <point x="121" y="915"/>
      <point x="65" y="580" type="curve" smooth="yes"/>
      <point x="7" y="219"/>
      <point x="195" y="-23"/>
      <point x="538" y="-23" type="curve" smooth="yes"/>
      <point x="833" y="-23"/>
      <point x="1052" y="156"/>
      <point x="1094" y="419" type="curve" smooth="yes"/>
      <point x="1127" y="609" type="line"/>
      <point x="628" y="608" type="line"/>
      <point x="588" y="362" type="line"/>
      <point x="758" y="362" type="line"/>
      <point x="688" y="381" type="line"/>
      <point x="678" y="322"/>
      <point x="621" y="271"/>
      <point x="554" y="272" type="curve" smooth="yes"/>
      <point x="465" y="271"/>
      <point x="433" y="372"/>
      <point x="460" y="528" type="curve" smooth="yes"/>
      <point x="489" y="712"/>
      <point x="581" y="837"/>
      <point x="675" y="838" type="curve" smooth="yes"/>
      <point x="713" y="837"/>
      <point x="735" y="801"/>
    </contour>
  </outline>
</glyph>
<glyph name="henghook" format="2">
  <advance height="2479" width="1324"/>
  <unicode hex="0267"/>
  <anchor x="573" y="0" name="bottom"/>
  <anchor x="788" y="1303" name="top"/>
  <outline>
    <contour>
      <point x="736" y="0" type="line"/>
      <point x="730" y="-35" type="line" smooth="yes"/>
      <point x="719" y="-101"/>
      <point x="639" y="-116"/>
      <point x="567" y="-116" type="curve" smooth="yes"/>
      <point x="537" y="-116"/>
      <point x="511" y="-113"/>
      <point x="477" y="-111" type="curve"/>
      <point x="428" y="-407" type="line"/>
      <point x="476" y="-410"/>
      <point x="528" y="-419"/>
      <point x="623" y="-419" type="curve" smooth="yes"/>
      <point x="868" y="-419"/>
      <point x="1077" y="-364"/>
      <point x="1132" y="-35" type="curve" smooth="yes"/>
      <point x="1137" y="0" type="line"/>
    </contour>
    <component base="hhook"/>
  </outline>
</glyph>
<glyph name="Ismall" format="2">
  <advance height="2479" width="1140"/>
  <unicode hex="026A"/>
  <outline>
    <contour>
      <point x="1024" y="1117" type="line" name="hr00"/>
      <point x="303" y="1117" type="line"/>
      <point x="252" y="817" type="line"/>
      <point x="973" y="817" type="line"/>
    </contour>
    <contour>
      <point x="863" y="1117" type="line"/>
      <point x="461" y="1117" type="line"/>
      <point x="275" y="0" type="line"/>
      <point x="676" y="0" type="line"/>
    </contour>
    <contour>
      <point x="889" y="303" type="line"/>
      <point x="167" y="303" type="line"/>
      <point x="116" y="0" type="line"/>
      <point x="838" y="0" type="line"/>
    </contour>
  </outline>
</glyph>
<glyph name="lbelt" format="2">
  <advance height="2479" width="1146"/>
  <unicode hex="026C"/>
  <outline>
    <contour>
      <point x="1114" y="518" type="line"/>
      <point x="1152" y="759" type="line"/>
      <point x="463" y="759" type="line" smooth="yes"/>
      <point x="404" y="759"/>
      <point x="386" y="788"/>
      <point x="393" y="815" type="curve" smooth="yes"/>
      <point x="395" y="841"/>
      <point x="439" y="867"/>
      <point x="489" y="867" type="curve" smooth="yes"/>
      <point x="535" y="867"/>
      <point x="546" y="832"/>
      <point x="532" y="759" type="curve" smooth="yes"/>
      <point x="474" y="399" type="line"/>
      <point x="876" y="399" type="line"/>
      <point x="916" y="649" type="line" smooth="yes"/>
      <point x="956" y="890"/>
      <point x="907" y="1132"/>
      <point x="538" y="1132" type="curve" smooth="yes"/>
      <point x="249" y="1132"/>
      <point x="95" y="977"/>
      <point x="67" y="803" type="curve" smooth="yes"/>
      <point x="40" y="640"/>
      <point x="124" y="518"/>
      <point x="378" y="518" type="curve" smooth="yes"/>
    </contour>
    <contour>
      <point x="1056" y="1489" type="line"/>
      <point x="655" y="1489" type="line"/>
      <point x="407" y="0" type="line"/>
      <point x="809" y="0" type="line"/>
    </contour>
  </outline>
</glyph>
<glyph name="lezh" format="2">
  <advance height="2479" width="1712"/>
  <unicode hex="026E"/>
  <anchor x="206" y="0" name="bottom"/>
  <anchor x="331" y="768" name="cross"/>
  <anchor x="768" y="1489" name="raccent"/>
  <anchor x="483" y="1676" name="top"/>
  <outline>
    <contour>
      <point x="907" y="-442" type="curve" smooth="yes"/>
      <point x="1250" y="-441"/>
      <point x="1533" y="-247"/>
      <point x="1578" y="32" type="curve" smooth="yes"/>
      <point x="1614" y="253"/>
      <point x="1484" y="422"/>
      <point x="1172" y="463" type="curve"/>
      <point x="1173" y="476" type="line"/>
      <point x="1637" y="823" type="line"/>
      <point x="1684" y="1117" type="line"/>
      <point x="578.25" y="1117.0" type="line"/>
      <point x="523.25" y="791.0" type="line"/>
      <point x="1149" y="791" type="line"/>
      <point x="1144" y="783" type="line"/>
      <point x="797" y="512" type="line"/>
      <point x="756" y="244" type="line"/>
      <point x="955" y="244" type="line" smooth="yes"/>
      <point x="1141" y="244"/>
      <point x="1211" y="185"/>
      <point x="1192" y="71" type="curve" smooth="yes"/>
      <point x="1172" y="-52"/>
      <point x="1061" y="-139"/>
      <point x="928" y="-140" type="curve" smooth="yes"/>
      <point x="837" y="-139"/>
      <point x="771" y="-99"/>
      <point x="779" y="-47" type="curve"/>
      <point x="397" y="-47" type="line"/>
      <point x="361" y="-271"/>
      <point x="586" y="-441"/>
    </contour>
    <component base="l" xOffset="-9"/>
  </outline>
</glyph>
<glyph name="mhook" format="2">
  <advance height="2479" width="1926"/>
  <unicode hex="0271"/>
  <anchor x="876" y="0" name="bottom"/>
  <anchor x="1094" y="1303" name="top"/>
  <outline>
    <contour>
      <point x="1338" y="0" type="line"/>
      <point x="1332" y="-35" type="line" smooth="yes"/>
      <point x="1321" y="-100"/>
      <point x="1240" y="-116"/>
      <point x="1169" y="-116" type="curve" smooth="yes"/>
      <point x="1138" y="-116"/>
      <point x="1112" y="-113"/>
      <point x="1079" y="-111" type="curve"/>
      <point x="1030" y="-407" type="line"/>
      <point x="1077" y="-410"/>
      <point x="1129" y="-419"/>
      <point x="1225" y="-419" type="curve" smooth="yes"/>
      <point x="1470" y="-419"/>
      <point x="1679" y="-362"/>
      <point x="1734" y="-35" type="curve" smooth="yes"/>
      <point x="1740" y="0" type="line"/>
    </contour>
    <component base="m"/>
  </outline>
</glyph>
<glyph name="nhookleft" format="2">
  <advance height="2479" width="1414"/>
  <unicode hex="0272"/>
  <anchor x="663" y="0" name="bottom"/>
  <anchor x="878" y="1303" name="top"/>
  <outline>
    <contour>
      <point x="102" y="0" type="line"/>
      <point x="99" y="-17" type="line" smooth="yes"/>
      <point x="88" y="-82"/>
      <point x="47" y="-119"/>
      <point x="-32" y="-119" type="curve" smooth="yes"/>
      <point x="-76" y="-119"/>
      <point x="-111" y="-113"/>
      <point x="-145" y="-105" type="curve"/>
      <point x="-233" y="-428" type="line"/>
      <point x="-169" y="-439"/>
      <point x="-108" y="-442"/>
      <point x="-41" y="-442" type="curve" smooth="yes"/>
      <point x="247" y="-442"/>
      <point x="453" y="-300"/>
      <point x="500" y="-17" type="curve" smooth="yes"/>
      <point x="503" y="0" type="line"/>
    </contour>
    <component base="n" xOffset="90"/>
  </outline>
</glyph>
<glyph name="Nsmall" format="2">
  <advance height="2479" width="1329"/>
  <unicode hex="0274"/>
  <outline>
    <contour>
      <point x="1321" y="1117" type="line"/>
      <point x="925" y="1117" type="line"/>
      <point x="839" y="605" type="line"/>
      <point x="828" y="605" type="line"/>
      <point x="513" y="1117" type="line"/>
      <point x="198" y="1117" type="line"/>
      <point x="12" y="0" type="line"/>
      <point x="399" y="0" type="line"/>
      <point x="476" y="461" type="line"/>
      <point x="484" y="461" type="line"/>
      <point x="765" y="0" type="line"/>
      <point x="1135" y="0" type="line"/>
    </contour>
  </outline>
</glyph>
<glyph name="omegaclosed-latin" format="2">
  <advance height="2479" width="2086"/>
  <unicode hex="0277"/>
  <outline>
    <contour>
      <point x="1140" y="1132" type="line"/>
      <point x="665" y="1132"/>
      <point x="277" y="913"/>
      <point x="205" y="474" type="curve" smooth="yes"/>
      <point x="162" y="209"/>
      <point x="252" y="-20"/>
      <point x="580" y="-20" type="curve" smooth="yes"/>
      <point x="872" y="-20"/>
      <point x="1065" y="186"/>
      <point x="1127" y="561" type="curve" smooth="yes"/>
      <point x="1151" y="704" type="line"/>
      <point x="865" y="704" type="line"/>
      <point x="833" y="512" type="line" smooth="yes"/>
      <point x="806" y="343"/>
      <point x="743" y="282"/>
      <point x="663" y="282" type="curve" smooth="yes"/>
      <point x="589" y="282"/>
      <point x="556" y="337"/>
      <point x="576" y="471" type="curve" smooth="yes"/>
      <point x="607" y="655"/>
      <point x="764" y="832"/>
      <point x="1089" y="832" type="curve"/>
    </contour>
    <contour>
      <point x="1089" y="832" type="line"/>
      <point x="1417" y="832"/>
      <point x="1516" y="655"/>
      <point x="1484" y="471" type="curve" smooth="yes"/>
      <point x="1461" y="337"/>
      <point x="1410" y="282"/>
      <point x="1335" y="282" type="curve" smooth="yes"/>
      <point x="1256" y="282"/>
      <point x="1213" y="343"/>
      <point x="1241" y="512" type="curve" smooth="yes"/>
      <point x="1273" y="704" type="line"/>
      <point x="988" y="704" type="line"/>
      <point x="964" y="561" type="line" smooth="yes"/>
      <point x="902" y="186"/>
      <point x="1027" y="-20"/>
      <point x="1316" y="-20" type="curve" smooth="yes"/>
      <point x="1647" y="-20"/>
      <point x="1812" y="209"/>
      <point x="1857" y="474" type="curve" smooth="yes"/>
      <point x="1931" y="913"/>
      <point x="1615" y="1132"/>
      <point x="1140" y="1132" type="curve"/>
    </contour>
  </outline>
</glyph>
<glyph name="rhookturned" format="2">
  <advance height="2479" width="1033"/>
  <unicode hex="027B"/>
  <anchor x="361" y="0" name="bottom"/>
  <anchor x="587.0" y="582.0" name="cross"/>
  <anchor x="710" y="1303" name="top"/>
  <outline>
    <contour>
      <point x="689" y="-436" type="curve" smooth="yes"/>
      <point x="772" y="-436"/>
      <point x="833" y="-431"/>
      <point x="893" y="-422" type="curve"/>
      <point x="934" y="-172" type="line"/>
      <point x="900" y="-175"/>
      <point x="879" y="-177"/>
      <point x="841" y="-177" type="curve" smooth="yes"/>
      <point x="716" y="-177"/>
      <point x="668" y="-133"/>
      <point x="687" y="-32" type="curve" smooth="yes"/>
      <point x="692" y="0" type="line"/>
      <point x="303" y="0" type="line"/>
      <point x="294" y="-55" type="line" smooth="yes"/>
      <point x="241" y="-388"/>
      <point x="443" y="-436"/>
    </contour>
    <component base="rturned"/>
  </outline>
</glyph>
<glyph name="rtail" format="2">
  <advance height="2479" width="887"/>
  <unicode hex="027D"/>
  <anchor x="212" y="0" name="bottom"/>
  <anchor x="300" y="535" name="cross"/>
  <anchor x="608" y="1303" name="top"/>
  <outline>
    <contour>
      <point x="384" y="-419" type="curve" smooth="yes"/>
      <point x="480" y="-419"/>
      <point x="538" y="-410"/>
      <point x="585" y="-407" type="curve"/>
      <point x="634" y="-111" type="line"/>
      <point x="602" y="-119"/>
      <point x="573" y="-119"/>
      <point x="544" y="-119" type="curve" smooth="yes"/>
      <point x="474" y="-119"/>
      <point x="393" y="-111"/>
      <point x="407" y="-17" type="curve" smooth="yes"/>
      <point x="410" y="0" type="line"/>
      <point x="9" y="0" type="line"/>
      <point x="3" y="-35" type="line" smooth="yes"/>
      <point x="-52" y="-364"/>
      <point x="137" y="-419"/>
    </contour>
    <component base="r"/>
  </outline>
</glyph>
<glyph name="rfishhook" format="2">
  <advance height="2479" width="870"/>
  <unicode hex="027E"/>
  <outline>
    <contour>
      <point x="384" y="0" type="line" name="hr00"/>
      <point x="508" y="753" type="line" smooth="yes"/>
      <point x="526" y="858"/>
      <point x="631" y="881"/>
      <point x="710" y="881" type="curve" smooth="yes"/>
      <point x="744" y="881"/>
      <point x="769" y="879"/>
      <point x="799" y="876" type="curve"/>
      <point x="839" y="1117" type="line"/>
      <point x="784" y="1126"/>
      <point x="727" y="1132"/>
      <point x="637" y="1132" type="curve" smooth="yes"/>
      <point x="428" y="1132"/>
      <point x="180" y="1105"/>
      <point x="121" y="751" type="curve" smooth="yes"/>
      <point x="-3" y="0" type="line"/>
    </contour>
  </outline>
</glyph>
<glyph name="rfishhookreversed" format="2">
  <advance height="2479" width="876"/>
  <unicode hex="027F"/>
  <outline>
    <contour>
      <point x="625" y="-416" type="line" name="hr00"/>
      <point x="819" y="751" type="line" smooth="yes"/>
      <point x="878" y="1105"/>
      <point x="637" y="1132"/>
      <point x="425" y="1132" type="curve" smooth="yes"/>
      <point x="337" y="1132"/>
      <point x="281" y="1126"/>
      <point x="224" y="1117" type="curve"/>
      <point x="185" y="876" type="line"/>
      <point x="209" y="879"/>
      <point x="247" y="881"/>
      <point x="276" y="881" type="curve" smooth="yes"/>
      <point x="351" y="881"/>
      <point x="449" y="858"/>
      <point x="432" y="753" type="curve" smooth="yes"/>
      <point x="239" y="-416" type="line"/>
    </contour>
  </outline>
</glyph>
<glyph name="Rsmallinverted" format="2">
  <advance height="2479" width="1210"/>
  <unicode hex="0281"/>
  <outline>
    <contour>
      <point x="-3" y="0" type="line"/>
      <point x="532" y="0" type="line"/>
      <point x="854" y="0"/>
      <point x="1072" y="150"/>
      <point x="1105" y="364" type="curve"/>
      <point x="1144" y="586"/>
      <point x="954" y="748"/>
      <point x="625" y="748" type="curve"/>
      <point x="352" y="748" type="line"/>
      <point x="311" y="506" type="line"/>
      <point x="607" y="506" type="line"/>
      <point x="713" y="506"/>
      <point x="746" y="467"/>
      <point x="737" y="431" type="curve"/>
      <point x="731" y="371"/>
      <point x="662" y="300"/>
      <point x="560" y="300" type="curve"/>
      <point x="420" y="300" type="line"/>
      <point x="556" y="1117" type="line"/>
      <point x="183" y="1117" type="line"/>
    </contour>
    <contour>
      <point x="464" y="518" type="line"/>
      <point x="841" y="518" type="line"/>
      <point x="1245" y="1117" type="line"/>
      <point x="868" y="1117" type="line"/>
    </contour>
  </outline>
</glyph>
<glyph name="esh" format="2">
  <advance height="2479" width="827"/>
  <unicode hex="0283"/>
  <outline>
    <contour>
      <point x="32" y="-442" type="curve" smooth="yes"/>
      <point x="266" y="-442"/>
      <point x="433" y="-321"/>
      <point x="479" y="-45" type="curve" smooth="yes"/>
      <point x="678" y="1153" type="line" smooth="yes"/>
      <point x="686" y="1206"/>
      <point x="724" y="1254"/>
      <point x="810" y="1254" type="curve" smooth="yes"/>
      <point x="829" y="1254"/>
      <point x="872" y="1252"/>
      <point x="900" y="1244" type="curve"/>
      <point x="986" y="1524" type="line"/>
      <point x="940" y="1536"/>
      <point x="836" y="1559"/>
      <point x="724" y="1559" type="curve" smooth="yes"/>
      <point x="490" y="1559"/>
      <point x="323" y="1439"/>
      <point x="278" y="1162" type="curve" smooth="yes"/>
      <point x="79" y="-36" type="line" smooth="yes"/>
      <point x="71" y="-89"/>
      <point x="32" y="-137"/>
      <point x="-54" y="-137" type="curve" smooth="yes"/>
      <point x="-73" y="-137"/>
      <point x="-116" y="-135"/>
      <point x="-144" y="-127" type="curve"/>
      <point x="-230" y="-407" type="line"/>
      <point x="-184" y="-419"/>
      <point x="-80" y="-442"/>
    </contour>
  </outline>
</glyph>
<glyph name="eshcurl" format="2">
  <advance height="2479" width="1210"/>
  <unicode hex="0286"/>
  <outline>
    <contour>
      <point x="855" y="259" type="line"/>
      <point x="468" y="259" type="line"/>
      <point x="468" y="259"/>
      <point x="409" y="-95"/>
      <point x="406" y="-112" type="curve" smooth="yes"/>
      <point x="394" y="-182"/>
      <point x="377" y="-225"/>
      <point x="310" y="-225" type="curve" smooth="yes"/>
      <point x="266" y="-225"/>
      <point x="220" y="-214"/>
      <point x="228" y="-161" type="curve" smooth="yes"/>
      <point x="235" y="-121"/>
      <point x="281" y="-109"/>
      <point x="342" y="-109" type="curve" smooth="yes"/>
      <point x="455" y="-109"/>
      <point x="545" y="-156"/>
      <point x="671" y="-252" type="curve"/>
      <point x="883" y="-432" type="line"/>
      <point x="1075" y="-202" type="line"/>
      <point x="787" y="33" type="line"/>
      <point x="668" y="106"/>
      <point x="537" y="129"/>
      <point x="342" y="129" type="curve" smooth="yes"/>
      <point x="86" y="129"/>
      <point x="-54" y="16"/>
      <point x="-83" y="-150" type="curve" smooth="yes"/>
      <point x="-113" y="-324"/>
      <point x="-7" y="-444"/>
      <point x="281" y="-444" type="curve" smooth="yes"/>
      <point x="636" y="-444"/>
      <point x="769" y="-249"/>
      <point x="810" y="-10" type="curve"/>
    </contour>
    <contour>
      <point x="810" y="-7" type="line"/>
      <point x="1004" y="1161" type="line" smooth="yes"/>
      <point x="1015" y="1228"/>
      <point x="1076" y="1260"/>
      <point x="1172" y="1260" type="curve" smooth="yes"/>
      <point x="1210" y="1260"/>
      <point x="1236" y="1257"/>
      <point x="1254" y="1251" type="curve"/>
      <point x="1297" y="1533" type="line"/>
      <point x="1245" y="1548"/>
      <point x="1193" y="1556"/>
      <point x="1135" y="1556" type="curve" smooth="yes"/>
      <point x="864" y="1556"/>
      <point x="660" y="1420"/>
      <point x="617" y="1161" type="curve" smooth="yes"/>
      <point x="423" y="-7" type="line"/>
    </contour>
  </outline>
</glyph>
<glyph name="tretroflexhook" format="2">
  <advance height="2479" width="830"/>
  <unicode hex="0288"/>
  <outline>
    <contour>
      <point x="861" y="1117" type="line"/>
      <point x="125" y="1117" type="line"/>
      <point x="76" y="826" type="line"/>
      <point x="812" y="826" type="line"/>
    </contour>
    <contour>
      <point x="311" y="1385" type="line"/>
      <point x="70" y="-79" type="line"/>
      <point x="26" y="-314"/>
      <point x="151" y="-431"/>
      <point x="433" y="-416" type="curve" smooth="yes"/>
      <point x="524" y="-410"/>
      <point x="593" y="-393"/>
      <point x="634" y="-381" type="curve"/>
      <point x="623" y="-99" type="line"/>
      <point x="605" y="-102"/>
      <point x="564" y="-111"/>
      <point x="541" y="-111" type="curve" smooth="yes"/>
      <point x="489" y="-111"/>
      <point x="468" y="-87"/>
      <point x="477" y="-41" type="curve" smooth="yes"/>
      <point x="713" y="1385" type="line"/>
    </contour>
  </outline>
</glyph>
<glyph name="upsilon-latin" format="2">
  <advance height="2479" width="1235"/>
  <unicode hex="028A"/>
  <outline>
    <contour>
      <point x="542" y="-23" type="curve" smooth="yes"/>
      <point x="848" y="-23"/>
      <point x="1111" y="187"/>
      <point x="1152" y="436" type="curve" smooth="yes"/>
      <point x="1179" y="599"/>
      <point x="1115" y="728"/>
      <point x="1011" y="801" type="curve"/>
      <point x="1026" y="817" type="line"/>
      <point x="1215" y="817" type="line"/>
      <point x="1266" y="1117" type="line"/>
      <point x="789" y="1117" type="line"/>
      <point x="739" y="761" type="line"/>
      <point x="791" y="740"/>
      <point x="808" y="648"/>
      <point x="793" y="545" type="curve" smooth="yes"/>
      <point x="765" y="383"/>
      <point x="665" y="270"/>
      <point x="549" y="271" type="curve" smooth="yes"/>
      <point x="453" y="270"/>
      <point x="407" y="356"/>
      <point x="428" y="492" type="curve" smooth="yes"/>
      <point x="449" y="621"/>
      <point x="520" y="730"/>
      <point x="581" y="752" type="curve"/>
      <point x="630" y="1117" type="line"/>
      <point x="155" y="1117" type="line"/>
      <point x="104" y="817" type="line"/>
      <point x="297" y="817" type="line"/>
      <point x="288" y="816" type="line"/>
      <point x="160" y="743"/>
      <point x="72" y="625"/>
      <point x="50" y="489" type="curve" smooth="yes"/>
      <point x="4" y="213"/>
      <point x="215" y="-23"/>
    </contour>
  </outline>
</glyph>
<glyph name="vhook" format="2">
  <advance height="2479" width="1255"/>
  <unicode hex="028B"/>
  <outline>
    <contour>
      <point x="524" y="-20" type="curve" smooth="yes"/>
      <point x="897" y="-20"/>
      <point x="1097" y="208"/>
      <point x="1169" y="643" type="curve" smooth="yes"/>
      <point x="1199" y="826"/>
      <point x="1215" y="1132"/>
      <point x="811" y="1132" type="curve" smooth="yes"/>
      <point x="782" y="1132"/>
      <point x="774" y="1132"/>
      <point x="660" y="1100" type="curve"/>
      <point x="661" y="849" type="line"/>
      <point x="695" y="862"/>
      <point x="707" y="870"/>
      <point x="734" y="870" type="curve" smooth="yes"/>
      <point x="809" y="870"/>
      <point x="814" y="802"/>
      <point x="788" y="644" type="curve" smooth="yes"/>
      <point x="747" y="397"/>
      <point x="668" y="279"/>
      <point x="542" y="279" type="curve" smooth="yes"/>
      <point x="492" y="279"/>
      <point x="447" y="292"/>
      <point x="463" y="388" type="curve" smooth="yes"/>
      <point x="584" y="1117" type="line"/>
      <point x="197" y="1117" type="line"/>
      <point x="81" y="417" type="line" smooth="yes"/>
      <point x="33" y="124"/>
      <point x="231" y="-20"/>
    </contour>
  </outline>
</glyph>
<glyph name="glottalstop" format="2">
  <advance height="2479" width="1235"/>
  <unicode hex="0294"/>
  <anchor x="591" y="228" name="cross"/>
  <outline>
    <contour>
      <point x="570" y="332" type="line"/>
      <point x="919" y="332"/>
      <point x="1175" y="554"/>
      <point x="1231" y="900" type="curve" smooth="yes"/>
      <point x="1294" y="1273"/>
      <point x="1095" y="1524"/>
      <point x="727" y="1524" type="curve" smooth="yes"/>
      <point x="418" y="1524"/>
      <point x="191" y="1335"/>
      <point x="141" y="1044" type="curve"/>
      <point x="510" y="1044" type="line"/>
      <point x="541" y="1161"/>
      <point x="623" y="1225"/>
      <point x="714" y="1225" type="curve" smooth="yes"/>
      <point x="817" y="1225"/>
      <point x="858" y="1120"/>
      <point x="831" y="954" type="curve" smooth="yes"/>
      <point x="799" y="762"/>
      <point x="698" y="631"/>
      <point x="593" y="631" type="curve"/>
    </contour>
    <contour>
      <point x="353" y="0" type="line"/>
      <point x="754" y="0" type="line"/>
      <point x="859" y="631" type="line"/>
      <point x="458" y="631" type="line"/>
    </contour>
  </outline>
</glyph>
<glyph name="eopenclosed" format="2">
  <advance height="2479" width="1254"/>
  <unicode hex="029A"/>
  <outline>
    <contour>
      <point x="532" y="-20" type="curve" smooth="yes"/>
      <point x="775" y="-20"/>
      <point x="1086" y="148"/>
      <point x="1155" y="570" type="curve"/>
      <point x="780" y="570" type="line"/>
      <point x="740" y="335"/>
      <point x="652" y="256"/>
      <point x="550" y="256" type="curve" smooth="yes"/>
      <point x="455" y="256"/>
      <point x="440" y="305"/>
      <point x="445" y="349" type="curve" smooth="yes"/>
      <point x="460" y="428"/>
      <point x="519" y="451"/>
      <point x="599" y="451" type="curve" smooth="yes"/>
      <point x="611" y="451" type="line"/>
      <point x="634" y="588" type="line"/>
      <point x="524" y="588" type="line"/>
      <point x="254" y="588"/>
      <point x="91" y="489"/>
      <point x="61" y="305" type="curve" smooth="yes"/>
      <point x="27" y="102"/>
      <point x="231" y="-20"/>
    </contour>
    <contour>
      <point x="515" y="547" type="curve" smooth="yes"/>
      <point x="625" y="547" type="line"/>
      <point x="649" y="687" type="line"/>
      <point x="637" y="687" type="line" smooth="yes"/>
      <point x="556" y="687"/>
      <point x="527" y="724"/>
      <point x="535" y="774" type="curve" smooth="yes"/>
      <point x="542" y="812"/>
      <point x="565" y="858"/>
      <point x="652" y="858" type="curve" smooth="yes"/>
      <point x="719" y="858"/>
      <point x="821" y="823"/>
      <point x="780" y="570" type="curve"/>
      <point x="1155" y="570" type="line"/>
      <point x="1223" y="975"/>
      <point x="984" y="1132"/>
      <point x="724" y="1132" type="curve" smooth="yes"/>
      <point x="423" y="1132"/>
      <point x="199" y="1021"/>
      <point x="166" y="815" type="curve" smooth="yes"/>
      <point x="140" y="666"/>
      <point x="277" y="547"/>
    </contour>
  </outline>
</glyph>
<glyph name="Gsmallhook" format="2">
  <advance height="2479" width="1300"/>
  <unicode hex="029B"/>
  <outline>
    <contour>
      <point x="1135" y="746" type="line"/>
      <point x="1153" y="864" type="line" smooth="yes"/>
      <point x="1169" y="961"/>
      <point x="1223" y="992"/>
      <point x="1308" y="992" type="curve" smooth="yes"/>
      <point x="1342" y="992"/>
      <point x="1365" y="986"/>
      <point x="1395" y="983" type="curve"/>
      <point x="1436" y="1231" type="line"/>
      <point x="1385" y="1242"/>
      <point x="1348" y="1248"/>
      <point x="1290" y="1248" type="curve" smooth="yes"/>
      <point x="1054" y="1248"/>
      <point x="879" y="1111"/>
      <point x="839" y="864" type="curve" smooth="yes"/>
      <point x="820" y="746" type="line"/>
    </contour>
    <component base="Gsmall"/>
  </outline>
</glyph>
<glyph name="qhook" format="2">
  <advance height="2479" width="1446"/>
  <unicode hex="02A0"/>
  <anchor x="849" y="-401" name="bottom"/>
  <anchor x="-248" y="-477" name="bottom0315"/>
  <anchor x="894" y="-163" name="cross"/>
  <anchor x="725" y="1303" name="top"/>
  <outline>
    <contour>
      <point x="1316" y="1117" type="line"/>
      <point x="1321" y="1164"/>
      <point x="1351" y="1187"/>
      <point x="1420" y="1184" type="curve" smooth="yes"/>
      <point x="1476" y="1182"/>
      <point x="1528" y="1169"/>
      <point x="1543" y="1164" type="curve"/>
      <point x="1586" y="1411" type="line"/>
      <point x="1548" y="1420"/>
      <point x="1481" y="1434"/>
      <point x="1391" y="1434" type="curve" smooth="yes"/>
      <point x="1089" y="1434"/>
      <point x="955" y="1353"/>
      <point x="917" y="1117" type="curve"/>
    </contour>
    <contour>
      <point x="1048" y="-419" type="line"/>
      <point x="1316" y="1117" type="line"/>
      <point x="917" y="1117" type="line"/>
      <point x="882" y="922" type="line"/>
      <point x="873" y="922" type="line"/>
      <point x="852" y="1036"/>
      <point x="762" y="1132"/>
      <point x="596" y="1132" type="curve" smooth="yes"/>
      <point x="375" y="1132"/>
      <point x="132" y="963"/>
      <point x="60" y="559" type="curve" smooth="yes"/>
      <point x="-7" y="172"/>
      <point x="162" y="-15"/>
      <point x="401" y="-15" type="curve" smooth="yes"/>
      <point x="558" y="-15"/>
      <point x="680" y="70"/>
      <point x="744" y="183" type="curve"/>
      <point x="753" y="183" type="line"/>
      <point x="647" y="-419" type="line"/>
    </contour>
    <contour>
      <point x="825" y="559" type="curve" smooth="yes"/>
      <point x="796" y="396"/>
      <point x="713" y="294"/>
      <point x="601" y="294" type="curve" smooth="yes"/>
      <point x="492" y="294"/>
      <point x="447" y="393"/>
      <point x="473" y="559" type="curve" smooth="yes"/>
      <point x="504" y="724"/>
      <point x="584" y="823"/>
      <point x="695" y="823" type="curve" smooth="yes"/>
      <point x="805" y="823"/>
      <point x="856" y="724"/>
    </contour>
  </outline>
</glyph>
<glyph name="dzaltone" format="2">
  <advance height="2479" width="2373"/>
  <unicode hex="02A3"/>
  <anchor x="569" y="0" name="bottom"/>
  <anchor x="1143" y="1280" name="cross"/>
  <anchor x="1495" y="1489" name="raccent"/>
  <anchor x="710" y="1489" name="top"/>
  <outline>
    <contour>
      <point x="1178" y="0" type="line"/>
      <point x="2161" y="0" type="line"/>
      <point x="2211" y="305" type="line"/>
      <point x="1748" y="305" type="line"/>
      <point x="1751" y="311" type="line"/>
      <point x="2289" y="873" type="line"/>
      <point x="2327" y="1117" type="line"/>
      <point x="1135" y="1117" type="line"/>
      <point x="1082" y="812" type="line"/>
      <point x="1801" y="812" type="line"/>
      <point x="1798" y="806" type="line"/>
      <point x="1213" y="221" type="line"/>
    </contour>
    <component base="d"/>
  </outline>
</glyph>
<glyph name="dzcurl" format="2">
  <advance height="2479" width="2736"/>
  <unicode hex="02A5"/>
  <anchor x="569" y="0" name="bottom"/>
  <anchor x="1143" y="1280" name="cross"/>
  <anchor x="1495" y="1489" name="raccent"/>
  <anchor x="710" y="1489" name="top"/>
  <outline>
    <contour>
      <point x="1623" y="0" type="line"/>
      <point x="2208" y="0" type="line" smooth="yes"/>
      <point x="2473" y="0"/>
      <point x="2636" y="180"/>
      <point x="2668" y="358" type="curve" smooth="yes"/>
      <point x="2697" y="538"/>
      <point x="2575" y="655"/>
      <point x="2415" y="655" type="curve" smooth="yes"/>
      <point x="2208" y="655"/>
      <point x="2015" y="461"/>
      <point x="1626" y="12" type="curve" smooth="yes"/>
      <point x="1478" y="-160" type="line"/>
      <point x="1687" y="-297" type="line"/>
      <point x="1972" y="17" type="line" smooth="yes"/>
      <point x="2231" y="303"/>
      <point x="2278" y="367"/>
      <point x="2327" y="367" type="curve" smooth="yes"/>
      <point x="2351" y="367"/>
      <point x="2365" y="352"/>
      <point x="2365" y="343" type="curve" smooth="yes"/>
      <point x="2359" y="311"/>
      <point x="2345" y="303"/>
      <point x="2284" y="303" type="curve" smooth="yes"/>
      <point x="1673" y="303" type="line"/>
    </contour>
    <contour>
      <point x="2077" y="303" type="line"/>
      <point x="1713" y="303" type="line"/>
      <point x="2287" y="908" type="line"/>
      <point x="2321" y="1117" type="line"/>
      <point x="1172" y="1117" type="line"/>
      <point x="1123" y="815" type="line"/>
      <point x="1780" y="815" type="line"/>
      <point x="1207" y="207" type="line"/>
      <point x="1172" y="0" type="line"/>
      <point x="2028" y="0" type="line"/>
    </contour>
    <component base="d"/>
  </outline>
</glyph>
<glyph name="ts" format="2">
  <advance height="2479" width="1946"/>
  <unicode hex="02A6"/>
  <outline>
    <contour>
      <point x="556" y="-16" type="curve" smooth="yes"/>
      <point x="884" y="-16"/>
      <point x="1095" y="121"/>
      <point x="1155" y="361" type="curve"/>
      <point x="765" y="361" type="line"/>
      <point x="749" y="313"/>
      <point x="698" y="289"/>
      <point x="617" y="289" type="curve" smooth="yes"/>
      <point x="564" y="289"/>
      <point x="533" y="300"/>
      <point x="541" y="346" type="curve" smooth="yes"/>
      <point x="713" y="1385" type="line"/>
      <point x="311" y="1385" type="line"/>
      <point x="137" y="335" type="line"/>
      <point x="97" y="109"/>
      <point x="241" y="-16"/>
    </contour>
    <contour>
      <point x="76" y="826" type="line"/>
      <point x="812" y="826" type="line"/>
      <point x="861" y="1117" type="line"/>
      <point x="125" y="1117" type="line"/>
    </contour>
    <contour>
      <point x="1280" y="-20" type="curve" smooth="yes"/>
      <point x="1580" y="-20"/>
      <point x="1820" y="117"/>
      <point x="1859" y="346" type="curve" smooth="yes"/>
      <point x="1887" y="521"/>
      <point x="1783" y="628"/>
      <point x="1562" y="669" type="curve" smooth="yes"/>
      <point x="1341" y="710" type="line" smooth="yes"/>
      <point x="1259" y="725"/>
      <point x="1249" y="745"/>
      <point x="1254" y="768" type="curve" smooth="yes"/>
      <point x="1262" y="825"/>
      <point x="1337" y="864"/>
      <point x="1417" y="864" type="curve" smooth="yes"/>
      <point x="1485" y="864"/>
      <point x="1538" y="823"/>
      <point x="1533" y="753" type="curve"/>
      <point x="1894" y="753" type="line"/>
      <point x="1925" y="989"/>
      <point x="1743" y="1132"/>
      <point x="1408" y="1132" type="curve" smooth="yes"/>
      <point x="1101" y="1132"/>
      <point x="895" y="1014"/>
      <point x="858" y="791" type="curve" smooth="yes"/>
      <point x="827" y="605"/>
      <point x="931" y="482"/>
      <point x="1152" y="442" type="curve" smooth="yes"/>
      <point x="1344" y="407" type="line" smooth="yes"/>
      <point x="1429" y="392"/>
      <point x="1455" y="378"/>
      <point x="1452" y="346" type="curve" smooth="yes"/>
      <point x="1444" y="289"/>
      <point x="1371" y="247"/>
      <point x="1286" y="250" type="curve" smooth="yes"/>
      <point x="1207" y="252"/>
      <point x="1157" y="288"/>
      <point x="1155" y="361" type="curve"/>
      <point x="765" y="361" type="line"/>
      <point x="750" y="134"/>
      <point x="928" y="-20"/>
    </contour>
  </outline>
</glyph>
<glyph name="tesh" format="2">
  <advance height="2479" width="1416"/>
  <unicode hex="02A7"/>
  <anchor x="362" y="0" name="bottom"/>
  <anchor x="477" y="0" name="cedilla"/>
  <anchor x="873" y="1562" name="raccent"/>
  <anchor x="538" y="1542" name="top"/>
  <outline>
    <contour>
      <point x="749" y="1117" type="line"/>
      <point x="701" y="826" type="line"/>
      <point x="812" y="826" type="line"/>
      <point x="860" y="1117" type="line"/>
    </contour>
    <contour>
      <point x="607" y="289" type="curve"/>
      <point x="497" y="-16" type="line"/>
      <point x="641" y="1"/>
      <point x="709" y="34"/>
      <point x="748" y="45" type="curve"/>
      <point x="737" y="313" type="line"/>
      <point x="713" y="307"/>
      <point x="652" y="291"/>
    </contour>
    <component base="t"/>
    <component base="esh" xOffset="589"/>
  </outline>
</glyph>
<glyph name="lsdigraph" format="2">
  <advance height="2479" width="1730"/>
  <unicode hex="02AA"/>
  <anchor x="205" y="0" name="bottom"/>
  <anchor x="271" y="788" name="cross"/>
  <anchor x="704" y="1489" name="raccent"/>
  <anchor x="419" y="1676" name="top"/>
  <outline>
    <contour>
      <point x="295" y="-8" type="line"/>
      <point x="623" y="-8"/>
      <point x="879" y="121"/>
      <point x="939" y="361" type="curve"/>
      <point x="549" y="361" type="line"/>
      <point x="533" y="312"/>
      <point x="510" y="294"/>
      <point x="465" y="294" type="curve"/>
    </contour>
    <contour>
      <point x="1064" y="-20" type="curve" smooth="yes"/>
      <point x="1364" y="-20"/>
      <point x="1604" y="117"/>
      <point x="1643" y="346" type="curve" smooth="yes"/>
      <point x="1671" y="521"/>
      <point x="1567" y="628"/>
      <point x="1346" y="669" type="curve" smooth="yes"/>
      <point x="1125" y="710" type="line" smooth="yes"/>
      <point x="1043" y="725"/>
      <point x="1033" y="745"/>
      <point x="1038" y="768" type="curve" smooth="yes"/>
      <point x="1046" y="825"/>
      <point x="1121" y="864"/>
      <point x="1201" y="864" type="curve" smooth="yes"/>
      <point x="1269" y="864"/>
      <point x="1322" y="823"/>
      <point x="1317" y="753" type="curve"/>
      <point x="1678" y="753" type="line"/>
      <point x="1709" y="989"/>
      <point x="1527" y="1132"/>
      <point x="1192" y="1132" type="curve" smooth="yes"/>
      <point x="885" y="1132"/>
      <point x="679" y="1014"/>
      <point x="642" y="791" type="curve" smooth="yes"/>
      <point x="611" y="605"/>
      <point x="715" y="482"/>
      <point x="936" y="442" type="curve" smooth="yes"/>
      <point x="1128" y="407" type="line" smooth="yes"/>
      <point x="1213" y="392"/>
      <point x="1239" y="378"/>
      <point x="1236" y="346" type="curve" smooth="yes"/>
      <point x="1228" y="289"/>
      <point x="1155" y="247"/>
      <point x="1070" y="250" type="curve" smooth="yes"/>
      <point x="991" y="252"/>
      <point x="941" y="288"/>
      <point x="939" y="361" type="curve"/>
      <point x="549" y="361" type="line"/>
      <point x="534" y="134"/>
      <point x="712" y="-20"/>
    </contour>
    <component base="l.ss02" xOffset="-72"/>
  </outline>
</glyph>
<glyph name="lzdigraph" format="2">
  <advance height="2479" width="1722"/>
  <unicode hex="02AB"/>
  <outline>
    <contour>
      <point x="1559" y="303" type="line"/>
      <point x="672" y="303" type="line"/>
      <point x="623" y="0" type="line"/>
      <point x="1510" y="0" type="line"/>
    </contour>
    <contour>
      <point x="1649" y="908" type="line"/>
      <point x="1684" y="1117" type="line"/>
      <point x="1414" y="1117" type="line"/>
      <point x="570" y="207" type="line"/>
      <point x="535" y="0" type="line"/>
      <point x="806" y="0" type="line"/>
    </contour>
    <contour>
      <point x="1565" y="1117" type="line"/>
      <point x="381" y="1117" type="line"/>
      <point x="332" y="815" type="line"/>
      <point x="1516" y="815" type="line"/>
    </contour>
    <contour>
      <point x="657" y="1489" type="line"/>
      <point x="256" y="1489" type="line"/>
      <point x="9" y="0" type="line"/>
      <point x="410" y="0" type="line"/>
    </contour>
  </outline>
</glyph>
<glyph name="bilabialpercussive" format="2">
  <advance height="2479" width="1303"/>
  <unicode hex="02AC"/>
  <outline>
    <contour>
      <point x="495" y="1047" type="line"/>
      <point x="442" y="873" type="line"/>
      <point x="588" y="873" type="line"/>
      <point x="815" y="1265" type="line"/>
      <point x="899" y="1457" type="line"/>
      <point x="710" y="1457" type="line"/>
    </contour>
    <contour>
      <point x="573" y="1457" type="line"/>
      <point x="329" y="1457" type="line"/>
      <point x="390" y="873" type="line"/>
      <point x="573" y="873" type="line"/>
      <point x="591" y="1053" type="line"/>
    </contour>
    <contour>
      <point x="873" y="1056" type="line"/>
      <point x="838" y="873" type="line"/>
      <point x="1018" y="873" type="line"/>
      <point x="1271" y="1457" type="line"/>
      <point x="1024" y="1457" type="line"/>
    </contour>
    <contour>
      <point x="887" y="1457" type="line"/>
      <point x="704" y="1457" type="line"/>
      <point x="724" y="1263" type="line"/>
      <point x="820" y="873" type="line"/>
      <point x="969" y="873" type="line"/>
      <point x="972" y="1053" type="line"/>
    </contour>
    <contour>
      <point x="349" y="177" type="line"/>
      <point x="297" y="0" type="line"/>
      <point x="442" y="0" type="line"/>
      <point x="672" y="393" type="line"/>
      <point x="753" y="585" type="line"/>
      <point x="564" y="585" type="line"/>
    </contour>
    <contour>
      <point x="428" y="585" type="line"/>
      <point x="183" y="585" type="line"/>
      <point x="244" y="0" type="line"/>
      <point x="428" y="0" type="line"/>
      <point x="448" y="183" type="line"/>
    </contour>
    <contour>
      <point x="730" y="186" type="line"/>
      <point x="692" y="0" type="line"/>
      <point x="873" y="0" type="line"/>
      <point x="1126" y="585" type="line"/>
      <point x="879" y="585" type="line"/>
    </contour>
    <contour>
      <point x="742" y="585" type="line"/>
      <point x="559" y="585" type="line"/>
      <point x="582" y="393" type="line"/>
      <point x="675" y="0" type="line"/>
      <point x="823" y="0" type="line"/>
      <point x="826" y="177" type="line"/>
    </contour>
  </outline>
</glyph>
<glyph name="bidentalpercussive" format="2">
  <advance height="2479" width="963"/>
  <unicode hex="02AD"/>
  <outline>
    <contour>
      <point x="660" y="585" type="line"/>
      <point x="303" y="585" type="line"/>
      <point x="271" y="378" type="line"/>
      <point x="628" y="378" type="line"/>
    </contour>
    <contour>
      <point x="320" y="585" type="line"/>
      <point x="49" y="585" type="line"/>
      <point x="-47" y="0" type="line"/>
      <point x="224" y="0" type="line"/>
    </contour>
    <contour>
      <point x="913" y="585" type="line"/>
      <point x="643" y="585" type="line"/>
      <point x="547" y="0" type="line"/>
      <point x="817" y="0" type="line"/>
    </contour>
    <contour>
      <point x="806" y="1457" type="line"/>
      <point x="448" y="1457" type="line"/>
      <point x="413" y="1248" type="line"/>
      <point x="771" y="1248" type="line"/>
    </contour>
    <contour>
      <point x="465" y="1457" type="line"/>
      <point x="195" y="1457" type="line"/>
      <point x="99" y="873" type="line"/>
      <point x="369" y="873" type="line"/>
    </contour>
    <contour>
      <point x="1059" y="1457" type="line"/>
      <point x="788" y="1457" type="line"/>
      <point x="692" y="873" type="line"/>
      <point x="963" y="873" type="line"/>
    </contour>
  </outline>
</glyph>
<glyph name="hturnedfishhookandtail" format="2">
  <advance height="2479" width="1564"/>
  <unicode hex="02AF"/>
  <outline>
    <contour>
      <point x="69" y="823" type="line"/>
      <point x="101" y="826"/>
      <point x="130" y="829"/>
      <point x="159" y="829" type="curve" smooth="yes"/>
      <point x="229" y="829"/>
      <point x="311" y="815"/>
      <point x="299" y="748" type="curve" smooth="yes"/>
      <point x="241" y="404" type="line" smooth="yes"/>
      <point x="200" y="160"/>
      <point x="325" y="-15"/>
      <point x="561" y="-15" type="curve" smooth="yes"/>
      <point x="727" y="-15"/>
      <point x="863" y="70"/>
      <point x="936" y="212" type="curve"/>
      <point x="948" y="212" type="line"/>
      <point x="907" y="-35" type="line" smooth="yes"/>
      <point x="855" y="-364"/>
      <point x="1035" y="-419"/>
      <point x="1279" y="-419" type="curve" smooth="yes"/>
      <point x="1378" y="-419"/>
      <point x="1433" y="-410"/>
      <point x="1483" y="-407" type="curve"/>
      <point x="1532" y="-111" type="line"/>
      <point x="1503" y="-113"/>
      <point x="1468" y="-116"/>
      <point x="1442" y="-116" type="curve" smooth="yes"/>
      <point x="1369" y="-116"/>
      <point x="1282" y="-102"/>
      <point x="1294" y="-35" type="curve" smooth="yes"/>
      <point x="1486" y="1117" type="line"/>
      <point x="1084" y="1117" type="line"/>
      <point x="980" y="489" type="line" smooth="yes"/>
      <point x="962" y="378"/>
      <point x="887" y="311"/>
      <point x="788" y="311" type="curve" smooth="yes"/>
      <point x="686" y="311"/>
      <point x="639" y="378"/>
      <point x="657" y="489" type="curve" smooth="yes"/>
      <point x="700" y="748" type="line" smooth="yes"/>
      <point x="753" y="1076"/>
      <point x="564" y="1132"/>
      <point x="319" y="1132" type="curve" smooth="yes"/>
      <point x="223" y="1132"/>
      <point x="165" y="1123"/>
      <point x="119" y="1120" type="curve"/>
    </contour>
  </outline>
</glyph>
<glyph name="hmod" format="2">
  <advance height="2479" width="878"/>
  <unicode hex="02B0"/>
  <outline>
    <contour>
      <point x="431" y="1146" type="line" smooth="yes"/>
      <point x="445" y="1236"/>
      <point x="500" y="1280"/>
      <point x="567" y="1280" type="curve" smooth="yes"/>
      <point x="631" y="1280"/>
      <point x="666" y="1242"/>
      <point x="652" y="1161" type="curve" smooth="yes"/>
      <point x="582" y="745" type="line"/>
      <point x="847" y="745" type="line"/>
      <point x="922" y="1207" type="line" smooth="yes"/>
      <point x="954" y="1396"/>
      <point x="867" y="1498"/>
      <point x="713" y="1498" type="curve" smooth="yes"/>
      <point x="593" y="1498"/>
      <point x="515" y="1443"/>
      <point x="468" y="1356" type="curve"/>
      <point x="457" y="1356" type="line"/>
      <point x="521" y="1737" type="line"/>
      <point x="265" y="1737" type="line"/>
      <point x="99" y="745" type="line"/>
      <point x="364" y="745" type="line"/>
    </contour>
  </outline>
</glyph>
<glyph name="hhookmod" format="2">
  <advance height="2479" width="1039"/>
  <unicode hex="02B1"/>
  <outline>
    <contour>
      <point x="541" y="1478" type="line"/>
      <point x="554" y="1539"/>
      <point x="595" y="1597"/>
      <point x="692" y="1597" type="curve" smooth="yes"/>
      <point x="714" y="1597"/>
      <point x="729" y="1597"/>
      <point x="753" y="1588" type="curve"/>
      <point x="788" y="1804" type="line"/>
      <point x="784" y="1804"/>
      <point x="676" y="1809"/>
      <point x="637" y="1809" type="curve" smooth="yes"/>
      <point x="455" y="1809"/>
      <point x="342" y="1757"/>
      <point x="300" y="1510" type="curve" smooth="yes"/>
      <point x="157" y="655" type="line"/>
      <point x="404" y="655" type="line"/>
    </contour>
    <contour>
      <point x="448" y="1079" type="line"/>
      <point x="464" y="1178"/>
      <point x="522" y="1254"/>
      <point x="637" y="1254" type="curve" smooth="yes"/>
      <point x="735" y="1254"/>
      <point x="755" y="1193"/>
      <point x="733" y="1065" type="curve" smooth="yes"/>
      <point x="663" y="655" type="line"/>
      <point x="913" y="655" type="line"/>
      <point x="998" y="1161" type="line" smooth="yes"/>
      <point x="1037" y="1376"/>
      <point x="944" y="1466"/>
      <point x="765" y="1466" type="curve" smooth="yes"/>
      <point x="575" y="1466"/>
      <point x="438" y="1303"/>
      <point x="399" y="1076" type="curve"/>
    </contour>
  </outline>
</glyph>
<glyph name="jmod" format="2">
  <advance height="2479" width="393"/>
  <unicode hex="02B2"/>
  <outline>
    <contour>
      <point x="218" y="1489" type="line"/>
      <point x="96" y="745" type="line" smooth="yes"/>
      <point x="90" y="701"/>
      <point x="79" y="675"/>
      <point x="15" y="675" type="curve" smooth="yes"/>
      <point x="3" y="675"/>
      <point x="-9" y="675"/>
      <point x="-23" y="678" type="curve"/>
      <point x="-55" y="468" type="line"/>
      <point x="-38" y="468"/>
      <point x="-9" y="468"/>
      <point x="-9" y="468" type="curve" smooth="yes"/>
      <point x="201" y="463"/>
      <point x="326" y="544"/>
      <point x="358" y="739" type="curve" smooth="yes"/>
      <point x="483" y="1489" type="line"/>
    </contour>
    <contour>
      <point x="372" y="1556" type="curve" smooth="yes"/>
      <point x="454" y="1556"/>
      <point x="518" y="1620"/>
      <point x="524" y="1696" type="curve" smooth="yes"/>
      <point x="529" y="1772"/>
      <point x="468" y="1830"/>
      <point x="390" y="1830" type="curve" smooth="yes"/>
      <point x="314" y="1830"/>
      <point x="247" y="1769"/>
      <point x="241" y="1693" type="curve" smooth="yes"/>
      <point x="239" y="1617"/>
      <point x="297" y="1556"/>
    </contour>
  </outline>
</glyph>
<glyph name="rturnedmod" format="2">
  <advance height="2479" width="634"/>
  <unicode hex="02B4"/>
  <outline>
    <contour>
      <point x="81" y="655" type="line"/>
      <point x="90" y="652"/>
      <point x="108" y="649"/>
      <point x="134" y="649" type="curve" smooth="yes"/>
      <point x="297" y="649"/>
      <point x="433" y="812"/>
      <point x="471" y="1041" type="curve"/>
      <point x="419" y="1036" type="line"/>
      <point x="404" y="937"/>
      <point x="323" y="899"/>
      <point x="221" y="899" type="curve" smooth="yes"/>
      <point x="175" y="899"/>
      <point x="145" y="905"/>
      <point x="125" y="911" type="curve"/>
    </contour>
    <contour>
      <point x="358" y="826" type="line"/>
      <point x="378" y="655" type="line"/>
      <point x="579" y="655" type="line"/>
      <point x="713" y="1460" type="line"/>
      <point x="463" y="1460" type="line"/>
    </contour>
  </outline>
</glyph>
<glyph name="rhookturnedmod" format="2">
  <advance height="2479" width="826"/>
  <unicode hex="02B5"/>
  <outline>
    <contour>
      <point x="84" y="655" type="line"/>
      <point x="97" y="652"/>
      <point x="111" y="649"/>
      <point x="134" y="649" type="curve" smooth="yes"/>
      <point x="300" y="649"/>
      <point x="434" y="812"/>
      <point x="471" y="1041" type="curve"/>
      <point x="422" y="1036" type="line"/>
      <point x="408" y="937"/>
      <point x="327" y="899"/>
      <point x="224" y="899" type="curve" smooth="yes"/>
      <point x="190" y="899"/>
      <point x="155" y="902"/>
      <point x="128" y="911" type="curve"/>
    </contour>
    <contour>
      <point x="721" y="355" type="curve"/>
      <point x="756" y="567" type="line"/>
      <point x="734" y="561"/>
      <point x="716" y="559"/>
      <point x="701" y="559" type="curve" smooth="yes"/>
      <point x="603" y="559"/>
      <point x="577" y="620"/>
      <point x="588" y="678" type="curve" smooth="yes"/>
      <point x="716" y="1460" type="line"/>
      <point x="468" y="1460" type="line"/>
      <point x="335" y="646" type="line" smooth="yes"/>
      <point x="295" y="401"/>
      <point x="388" y="346"/>
      <point x="576" y="346" type="curve" smooth="yes"/>
      <point x="626" y="346"/>
      <point x="716" y="355"/>
    </contour>
  </outline>
</glyph>
<glyph name="commaturnedmod" format="2">
  <advance height="2479" width="646"/>
  <unicode hex="02BB"/>
  <outline>
    <contour>
      <point x="215" y="1015" type="line"/>
      <point x="509" y="1015" type="line"/>
      <point x="544" y="1222" type="line" smooth="yes"/>
      <point x="569" y="1370"/>
      <point x="618" y="1460"/>
      <point x="669" y="1536" type="curve"/>
      <point x="506" y="1617" type="line"/>
      <point x="403" y="1533"/>
      <point x="275" y="1373"/>
      <point x="250" y="1222" type="curve" smooth="yes"/>
    </contour>
  </outline>
</glyph>
<glyph name="commareversedmod" format="2">
  <advance height="2479" width="646"/>
  <unicode hex="02BD"/>
  <outline>
    <contour>
      <point x="343" y="992" type="curve"/>
      <point x="591" y="992" type="line"/>
      <point x="580" y="1072"/>
      <point x="548" y="1280"/>
      <point x="582" y="1478" type="curve" smooth="yes"/>
      <point x="595" y="1559" type="line"/>
      <point x="292" y="1559" type="line"/>
      <point x="285" y="1478" type="line" smooth="yes"/>
      <point x="265" y="1267"/>
      <point x="321" y="1072"/>
    </contour>
  </outline>
</glyph>
<glyph name="ringhalfright" format="2">
  <advance height="2479" width="332"/>
  <unicode hex="02BE"/>
  <anchor x="239" y="1140" name="_rhalfring"/>
  <outline>
    <contour>
      <point x="138" y="1108" type="line"/>
      <point x="252" y="1108"/>
      <point x="358" y="1187"/>
      <point x="377" y="1303" type="curve" smooth="yes"/>
      <point x="396" y="1423"/>
      <point x="317" y="1507"/>
      <point x="204" y="1507" type="curve"/>
      <point x="180" y="1366" type="line"/>
      <point x="218" y="1366"/>
      <point x="243" y="1340"/>
      <point x="237" y="1303" type="curve" smooth="yes"/>
      <point x="231" y="1270"/>
      <point x="199" y="1245"/>
      <point x="160" y="1245" type="curve"/>
    </contour>
  </outline>
</glyph>
<glyph name="glottalstopmod" format="2">
  <advance height="2479" width="1050"/>
  <unicode hex="02C0"/>
  <outline>
    <contour>
      <point x="343" y="1527" type="curve"/>
      <point x="593" y="1527" type="line"/>
      <point x="596" y="1562"/>
      <point x="625" y="1609"/>
      <point x="695" y="1609" type="curve" smooth="yes"/>
      <point x="776" y="1609"/>
      <point x="767" y="1536"/>
      <point x="748" y="1417" type="curve" smooth="yes"/>
      <point x="704" y="1158" type="line" smooth="yes"/>
      <point x="689" y="1065"/>
      <point x="622" y="1036"/>
      <point x="547" y="1036" type="curve" smooth="yes"/>
      <point x="477" y="1036" type="line"/>
      <point x="445" y="832" type="line"/>
      <point x="559" y="832" type="line" smooth="yes"/>
      <point x="793" y="832"/>
      <point x="936" y="963"/>
      <point x="972" y="1172" type="curve" smooth="yes"/>
      <point x="1012" y="1428" type="line" smooth="yes"/>
      <point x="1055" y="1687"/>
      <point x="953" y="1809"/>
      <point x="721" y="1809" type="curve" smooth="yes"/>
      <point x="523" y="1809"/>
      <point x="372" y="1716"/>
    </contour>
    <contour>
      <point x="460" y="1036" type="line"/>
      <point x="396" y="655" type="line"/>
      <point x="660" y="655" type="line"/>
      <point x="724" y="1036" type="line"/>
    </contour>
  </outline>
</glyph>
<glyph name="arrowheadleftmod" format="2">
  <advance height="2479" width="1306"/>
  <unicode hex="02C2"/>
  <outline>
    <contour>
      <point x="300" y="902" type="line"/>
      <point x="678" y="960" type="line"/>
      <point x="1158" y="1103" type="line"/>
      <point x="1199" y="1341" type="line"/>
      <point x="329" y="1082" type="line"/>
    </contour>
    <contour>
      <point x="1071" y="576" type="line"/>
      <point x="1111" y="820" type="line"/>
      <point x="678" y="954" type="line"/>
      <point x="317" y="1015" type="line"/>
      <point x="288" y="835" type="line"/>
    </contour>
  </outline>
</glyph>
<glyph name="arrowheadupmod" format="2">
  <advance height="2479" width="1033"/>
  <unicode hex="02C4"/>
  <outline>
    <contour>
      <point x="673" y="567" type="line"/>
      <point x="918" y="567" type="line"/>
      <point x="775" y="1361" type="line"/>
      <point x="589" y="1361" type="line"/>
      <point x="595" y="1004" type="line"/>
    </contour>
    <contour>
      <point x="118" y="567" type="line"/>
      <point x="368" y="567" type="line"/>
      <point x="586" y="1004" type="line"/>
      <point x="708" y="1361" type="line"/>
      <point x="525" y="1361" type="line"/>
    </contour>
  </outline>
</glyph>
<glyph name="colontriangularmod" format="2">
  <advance height="2479" width="646"/>
  <unicode hex="02D0"/>
  <outline>
    <contour>
      <point x="207" y="1082" type="line"/>
      <point x="343" y="777" type="line"/>
      <point x="369" y="777" type="line"/>
      <point x="611" y="1082" type="line"/>
    </contour>
    <contour>
      <point x="26" y="0" type="line"/>
      <point x="431" y="0" type="line"/>
      <point x="294" y="305" type="line"/>
      <point x="268" y="305" type="line"/>
    </contour>
  </outline>
</glyph>
<glyph name="downtackmod" format="2">
  <advance height="2479" width="844"/>
  <unicode hex="02D5"/>
  <outline>
    <contour>
      <point x="119" y="396" type="line"/>
      <point x="675" y="396" type="line"/>
      <point x="710" y="608" type="line"/>
      <point x="154" y="608" type="line"/>
    </contour>
    <contour>
      <point x="239" y="140" type="line"/>
      <point x="468" y="140" type="line"/>
      <point x="547" y="608" type="line"/>
      <point x="317" y="608" type="line"/>
    </contour>
  </outline>
</glyph>
<glyph name="plusmod" format="2">
  <advance height="2479" width="844"/>
  <unicode hex="02D6"/>
  <outline>
    <contour>
      <point x="559" y="675" type="line"/>
      <point x="329" y="675" type="line"/>
      <point x="227" y="61" type="line"/>
      <point x="457" y="61" type="line"/>
    </contour>
    <contour>
      <point x="134" y="480" type="line"/>
      <point x="96" y="262" type="line"/>
      <point x="652" y="262" type="line"/>
      <point x="689" y="480" type="line"/>
    </contour>
  </outline>
</glyph>
<glyph name="breve" format="2">
  <advance height="2479" width="1033"/>
  <unicode hex="02D8"/>
  <anchor x="640" y="1303" name="_top"/>
  <anchor x="698" y="1655" name="mkmktop_acc"/>
  <outline>
    <contour>
      <point x="820" y="1519" type="line"/>
      <point x="809" y="1455"/>
      <point x="759" y="1396"/>
      <point x="655" y="1396" type="curve" smooth="yes"/>
      <point x="547" y="1396"/>
      <point x="516" y="1457"/>
      <point x="527" y="1519" type="curve"/>
      <point x="276" y="1519" type="line"/>
      <point x="244" y="1329"/>
      <point x="378" y="1207"/>
      <point x="624" y="1207" type="curve" smooth="yes"/>
      <point x="867" y="1207"/>
      <point x="1041" y="1329"/>
      <point x="1073" y="1519" type="curve"/>
    </contour>
  </outline>
</glyph>
<glyph name="ring" format="2">
  <advance height="2479" width="884"/>
  <unicode hex="02DA"/>
  <anchor x="564" y="1303" name="_top"/>
  <outline>
    <contour>
      <point x="564" y="1233" type="curve" smooth="yes"/>
      <point x="695" y="1233"/>
      <point x="815" y="1338"/>
      <point x="829" y="1466" type="curve" smooth="yes"/>
      <point x="844" y="1594"/>
      <point x="748" y="1699"/>
      <point x="617" y="1699" type="curve" smooth="yes"/>
      <point x="486" y="1699"/>
      <point x="367" y="1594"/>
      <point x="352" y="1466" type="curve" smooth="yes"/>
      <point x="337" y="1338"/>
      <point x="433" y="1233"/>
    </contour>
    <contour>
      <point x="582" y="1376" type="curve" smooth="yes"/>
      <point x="527" y="1376"/>
      <point x="489" y="1417"/>
      <point x="495" y="1466" type="curve" smooth="yes"/>
      <point x="500" y="1516"/>
      <point x="547" y="1556"/>
      <point x="602" y="1556" type="curve" smooth="yes"/>
      <point x="655" y="1556"/>
      <point x="692" y="1516"/>
      <point x="687" y="1466" type="curve" smooth="yes"/>
      <point x="681" y="1417"/>
      <point x="634" y="1376"/>
    </contour>
  </outline>
</glyph>
<glyph name="ogonek" format="2">
  <advance height="2479" width="640"/>
  <unicode hex="02DB"/>
  <anchor x="422" y="0" name="_ogonek"/>
  <outline>
    <contour>
      <point x="209" y="-404" type="curve" smooth="yes"/>
      <point x="287" y="-404"/>
      <point x="351" y="-381"/>
      <point x="393" y="-361" type="curve"/>
      <point x="375" y="-180" type="line"/>
      <point x="357" y="-183"/>
      <point x="337" y="-192"/>
      <point x="311" y="-192" type="curve" smooth="yes"/>
      <point x="273" y="-192"/>
      <point x="249" y="-166"/>
      <point x="259" y="-116" type="curve" smooth="yes"/>
      <point x="267" y="-58"/>
      <point x="325" y="-29"/>
      <point x="422" y="0" type="curve"/>
      <point x="108" y="99" type="line"/>
      <point x="17" y="61"/>
      <point x="-44" y="-87"/>
      <point x="-26" y="-212" type="curve" smooth="yes"/>
      <point x="-9" y="-335"/>
      <point x="75" y="-404"/>
    </contour>
  </outline>
</glyph>
<glyph name="rhotichookmod" format="2">
  <advance height="2479" width="602"/>
  <unicode hex="02DE"/>
  <anchor x="-35" y="652" name="_rhotichook"/>
  <outline>
    <contour>
      <point x="-61" y="521" type="line"/>
      <point x="169" y="579" type="line"/>
      <point x="190" y="381"/>
      <point x="207" y="250"/>
      <point x="419" y="250" type="curve" smooth="yes"/>
      <point x="489" y="250"/>
      <point x="559" y="273"/>
      <point x="614" y="303" type="curve"/>
      <point x="605" y="535" type="line"/>
      <point x="585" y="532"/>
      <point x="565" y="535"/>
      <point x="547" y="535" type="curve" smooth="yes"/>
      <point x="431" y="535"/>
      <point x="449" y="660"/>
      <point x="451" y="890" type="curve"/>
      <point x="-17" y="783" type="line"/>
    </contour>
  </outline>
</glyph>
<glyph name="crossaccentmod" format="2">
  <advance height="2479" width="832"/>
  <unicode hex="02DF"/>
  <outline>
    <contour>
      <point x="352" y="1143" type="line"/>
      <point x="902" y="1606" type="line"/>
      <point x="780" y="1751" type="line"/>
      <point x="230" y="1292" type="line"/>
    </contour>
    <contour>
      <point x="672" y="1140" type="line"/>
      <point x="847" y="1289" type="line"/>
      <point x="454" y="1754" type="line"/>
      <point x="282" y="1606" type="line"/>
    </contour>
  </outline>
</glyph>
<glyph name="smod" format="2">
  <advance height="2479" width="794"/>
  <unicode hex="02E2"/>
  <outline>
    <contour>
      <point x="855" y="1263" type="line"/>
      <point x="864" y="1405"/>
      <point x="759" y="1498"/>
      <point x="544" y="1498" type="curve" smooth="yes"/>
      <point x="335" y="1498"/>
      <point x="192" y="1405"/>
      <point x="169" y="1263" type="curve" smooth="yes"/>
      <point x="148" y="1140"/>
      <point x="212" y="1059"/>
      <point x="364" y="1033" type="curve" smooth="yes"/>
      <point x="495" y="1009" type="line" smooth="yes"/>
      <point x="547" y="1001"/>
      <point x="561" y="992"/>
      <point x="559" y="972" type="curve" smooth="yes"/>
      <point x="553" y="940"/>
      <point x="506" y="922"/>
      <point x="454" y="922" type="curve" smooth="yes"/>
      <point x="401" y="922"/>
      <point x="367" y="943"/>
      <point x="364" y="989" type="curve"/>
      <point x="105" y="972" type="line"/>
      <point x="99" y="823"/>
      <point x="221" y="730"/>
      <point x="439" y="730" type="curve" smooth="yes"/>
      <point x="637" y="730"/>
      <point x="806" y="826"/>
      <point x="832" y="980" type="curve" smooth="yes"/>
      <point x="852" y="1094"/>
      <point x="783" y="1167"/>
      <point x="631" y="1196" type="curve" smooth="yes"/>
      <point x="495" y="1222" type="line" smooth="yes"/>
      <point x="439" y="1233"/>
      <point x="428" y="1242"/>
      <point x="431" y="1260" type="curve" smooth="yes"/>
      <point x="436" y="1292"/>
      <point x="489" y="1309"/>
      <point x="532" y="1309" type="curve" smooth="yes"/>
      <point x="593" y="1309"/>
      <point x="617" y="1271"/>
      <point x="617" y="1245" type="curve"/>
    </contour>
  </outline>
</glyph>
<glyph name="glottalstopreversedsuperior" format="2">
  <advance height="2479" width="1039"/>
  <unicode hex="02E4"/>
  <outline>
    <contour>
      <point x="745" y="1152" type="curve"/>
      <point x="966" y="1152" type="line"/>
      <point x="996" y="1332"/>
      <point x="886" y="1466"/>
      <point x="675" y="1466" type="curve" smooth="yes"/>
      <point x="461" y="1466"/>
      <point x="301" y="1338"/>
      <point x="262" y="1100" type="curve" smooth="yes"/>
      <point x="234" y="925"/>
      <point x="316" y="751"/>
      <point x="503" y="751" type="curve" smooth="yes"/>
      <point x="672" y="751" type="line"/>
      <point x="701" y="922" type="line"/>
      <point x="588" y="922" type="line" smooth="yes"/>
      <point x="522" y="922"/>
      <point x="490" y="989"/>
      <point x="503" y="1082" type="curve" smooth="yes"/>
      <point x="522" y="1190"/>
      <point x="586" y="1260"/>
      <point x="660" y="1260" type="curve" smooth="yes"/>
      <point x="717" y="1260"/>
      <point x="758" y="1222"/>
    </contour>
    <contour>
      <point x="660" y="655" type="line"/>
      <point x="707" y="922" type="line"/>
      <point x="465" y="922" type="line"/>
      <point x="419" y="655" type="line"/>
    </contour>
  </outline>
</glyph>
<glyph name="tonebarhighmod" format="2">
  <advance height="2479" width="829"/>
  <unicode hex="02E6"/>
  <outline>
    <contour>
      <point x="908" y="1457" type="line"/>
      <point x="532" y="1457" type="line"/>
      <point x="291" y="0" type="line"/>
      <point x="666" y="0" type="line"/>
    </contour>
    <contour>
      <point x="841" y="1242" type="line"/>
      <point x="189" y="1242" type="line"/>
      <point x="140" y="940" type="line"/>
      <point x="791" y="940" type="line"/>
    </contour>
  </outline>
</glyph>
<glyph name="yindepartingtonemod" format="2">
  <advance height="2479" width="1100"/>
  <unicode hex="02EA"/>
  <outline>
    <contour>
      <point x="905" y="303" type="line"/>
      <point x="346" y="303" type="line"/>
      <point x="297" y="0" type="line"/>
      <point x="855" y="0" type="line"/>
    </contour>
    <contour>
      <point x="591" y="908" type="line"/>
      <point x="212" y="908" type="line"/>
      <point x="61" y="0" type="line"/>
      <point x="439" y="0" type="line"/>
    </contour>
  </outline>
</glyph>
